<svg width="18" height="18" viewBox="0 0 18 18" fill="none" xmlns="http://www.w3.org/2000/svg">
<path d="M6.22707 1.54693C5.53273 1.64361 4.92043 1.90874 4.39015 2.34234C3.86281 2.773 3.47902 3.3062 3.23878 3.94194C3.08351 4.36089 3.00587 4.79888 3.00587 5.25591C3.00587 5.49614 3.02345 5.71293 3.05861 5.9063C3.09669 6.09673 3.15675 6.3062 3.23878 6.53472C3.37062 6.93023 3.5713 7.29351 3.84083 7.62456C4.11329 7.95269 4.42238 8.22515 4.76809 8.44194C5.08157 8.63531 5.39651 8.77447 5.71291 8.85943C6.03225 8.94146 6.37796 8.98247 6.75003 8.98247C6.94339 8.98247 7.09866 8.97661 7.21584 8.9649C7.33596 8.95318 7.48685 8.92827 7.66849 8.89018C8.18412 8.75835 8.65726 8.51958 9.08793 8.17387C9.52153 7.82524 9.8643 7.40483 10.1162 6.91264C10.2832 6.57572 10.3975 6.19779 10.459 5.77886C10.4825 5.65874 10.4942 5.48442 10.4942 5.25591C10.4942 5.02739 10.4825 4.85307 10.459 4.73295C10.3741 4.17045 10.1749 3.65483 9.86137 3.18609C9.55082 2.71733 9.14946 2.33354 8.65726 2.03472C8.28519 1.8062 7.86478 1.64946 7.39602 1.5645C7.26419 1.54107 7.06936 1.52642 6.81155 1.52056C6.55374 1.5147 6.35891 1.52349 6.22707 1.54693ZM11.8082 1.62163C11.688 1.65679 11.5796 1.71685 11.483 1.80181C11.3863 1.88384 11.3204 1.99809 11.2852 2.14458C11.25 2.28813 11.25 2.42583 11.2852 2.55767C11.3204 2.6895 11.3863 2.7979 11.483 2.88286C11.5796 2.96489 11.7247 3.04253 11.918 3.11577C12.1319 3.18608 12.3047 3.26079 12.4366 3.3399C12.5684 3.41607 12.7002 3.5274 12.8321 3.67387C13.1221 3.96098 13.317 4.29057 13.4166 4.66264C13.5191 5.03471 13.525 5.40678 13.4341 5.77886C13.3462 6.15093 13.1675 6.48051 12.898 6.76762C12.6285 7.05473 12.2945 7.2642 11.896 7.39604C11.7291 7.45757 11.606 7.51909 11.5269 7.58062C11.4507 7.63921 11.3819 7.72857 11.3204 7.84868C11.2735 7.93364 11.25 8.03618 11.25 8.1563C11.25 8.27349 11.2735 8.37456 11.3204 8.45952C11.3936 8.62651 11.5137 8.75249 11.6807 8.83746C11.7891 8.88726 11.8975 8.90923 12.0059 8.90336C12.1143 8.89458 12.2579 8.86089 12.4366 8.80229C12.7383 8.70561 12.9991 8.58843 13.2188 8.45073C13.4415 8.31303 13.6612 8.12993 13.878 7.90142C14.5489 7.23052 14.9151 6.43804 14.9766 5.52398C15.0616 4.50445 14.7613 3.59331 14.0757 2.79057C13.6568 2.28667 13.1104 1.92046 12.4366 1.69194C12.1495 1.59527 11.94 1.57183 11.8082 1.62163ZM7.00051 3.02348C7.34915 3.04692 7.6846 3.16996 8.00687 3.39262C8.33206 3.61528 8.58109 3.898 8.75394 4.24077C8.92972 4.58061 9.00882 4.95854 8.99124 5.37456C8.97366 5.78765 8.85061 6.15678 8.6221 6.48198C8.49026 6.68412 8.32767 6.86137 8.13431 7.01372C7.94388 7.16314 7.74612 7.27886 7.54104 7.36089C7.37405 7.4107 7.25101 7.44439 7.17191 7.46196C7.09574 7.47954 6.95511 7.48833 6.75003 7.48833C6.54495 7.48833 6.40286 7.47954 6.32376 7.46196C6.24758 7.44438 6.126 7.41069 5.95901 7.36089C5.6221 7.24077 5.33059 7.04009 5.08449 6.75884C4.8384 6.47759 4.66701 6.16264 4.57033 5.81401C4.47658 5.4185 4.48244 5.02885 4.58791 4.64506C4.6963 4.26128 4.89113 3.93169 5.17238 3.6563C5.45656 3.37797 5.79641 3.18462 6.19192 3.07622C6.26516 3.05279 6.37063 3.03228 6.50832 3.0147C6.64602 2.99712 6.7383 2.99419 6.78518 3.00591L7.00051 3.02348ZM3.97706 10.5469C3.15089 10.667 2.44336 11.0215 1.85449 11.6104C1.38575 12.0791 1.06201 12.6431 0.8833 13.3023C0.821774 13.5074 0.785152 13.6963 0.773435 13.8692C0.761718 14.042 0.755859 14.3936 0.755859 14.9239V15.9126L0.8086 16.0577C0.858408 16.1397 0.918464 16.2173 0.988768 16.2906C1.17041 16.4576 1.3872 16.5205 1.63916 16.4795C1.89112 16.4385 2.0713 16.3038 2.17969 16.0752L2.23243 15.9478L2.25001 14.9239C2.26172 14.3936 2.27344 14.0625 2.28516 13.9307C2.29688 13.7989 2.32764 13.6495 2.37745 13.4825C2.49757 13.1573 2.69825 12.8658 2.9795 12.608C3.26075 12.3501 3.5757 12.1729 3.92434 12.0762C4.05617 12.0411 4.28615 12.0176 4.61428 12.0059C4.94533 11.9942 5.65725 11.9883 6.75003 11.9883C7.8428 11.9883 8.55325 11.9942 8.88138 12.0059C9.21243 12.0176 9.44388 12.0411 9.57572 12.0762C9.93607 12.1729 10.2598 12.3575 10.5469 12.6299C10.837 12.8995 11.0347 13.2071 11.1402 13.5528C11.19 13.6963 11.2178 13.8355 11.2237 13.9703C11.2295 14.1021 11.2383 14.42 11.25 14.9239L11.2676 15.9478L11.3204 16.0752C11.4288 16.3038 11.6089 16.4385 11.8609 16.4795C12.1129 16.5205 12.3296 16.4576 12.5113 16.2906C12.5816 16.2173 12.6417 16.1397 12.6915 16.0577L12.7442 15.9126V14.9239C12.7442 14.3936 12.7383 14.042 12.7266 13.8692C12.7149 13.6963 12.6783 13.5074 12.6168 13.3023C12.5464 13.0269 12.4454 12.7632 12.3135 12.5113C12.085 12.066 11.7686 11.6792 11.3643 11.3511C10.9629 11.0201 10.5235 10.7886 10.0459 10.6568L9.98881 10.6392C9.84525 10.5894 9.71928 10.5586 9.61088 10.5469C9.47904 10.5352 9.23881 10.5293 8.89017 10.5293L6.82034 10.5118C5.05666 10.5118 4.1089 10.5235 3.97706 10.5469ZM14.0757 10.6216C13.8707 10.6685 13.7139 10.7857 13.6055 10.9732C13.5001 11.1578 13.4766 11.3526 13.5352 11.5577C13.585 11.7247 13.6758 11.8565 13.8077 11.9532C13.8663 11.9883 13.9864 12.0425 14.168 12.1158C14.3819 12.1861 14.5547 12.2608 14.6866 12.3399C14.8184 12.4161 14.9576 12.5333 15.1041 12.6914C15.3912 12.9903 15.5831 13.3257 15.6798 13.6978C15.7032 13.7945 15.7178 13.8999 15.7237 14.0142C15.7296 14.1285 15.7384 14.4317 15.7501 14.9239L15.7676 15.9478L15.8204 16.0752C15.9288 16.3038 16.109 16.4385 16.3609 16.4795C16.6129 16.5205 16.8297 16.4576 17.0113 16.2906C17.0816 16.2173 17.1417 16.1397 17.1915 16.0577L17.2442 15.9126L17.2618 15.0821C17.2618 14.5313 17.2501 14.1211 17.2266 13.8516C17.2032 13.5821 17.149 13.3272 17.064 13.087C16.9439 12.7266 16.7608 12.3794 16.5147 12.0455C16.2686 11.7085 15.9903 11.4258 15.6798 11.1973C15.4132 11.0039 15.1143 10.8501 14.7833 10.7359C14.4551 10.6216 14.2193 10.5835 14.0757 10.6216Z" fill="#08257E"/>
</svg>
