<svg width="26" height="26" viewBox="0 0 26 26" fill="none" xmlns="http://www.w3.org/2000/svg">
<rect width="26" height="26" rx="13" fill="#08257E"/>
<path d="M18.1223 8.70313C18.0676 8.71355 18.0181 8.73568 17.9739 8.76953C17.9322 8.80079 16.7603 9.96876 14.4582 12.2734L11.0012 15.7109L9.52853 14.2383C8.54676 13.2591 8.02072 12.7539 7.9504 12.7227C7.88269 12.6888 7.79805 12.6719 7.69649 12.6719C7.59493 12.6719 7.50639 12.6862 7.43087 12.7148C7.35795 12.7409 7.28634 12.7839 7.21602 12.8437C7.14831 12.901 7.09753 12.9661 7.06368 13.0391C7.04285 13.0938 7.02982 13.1367 7.02461 13.168C7.0194 13.1992 7.0168 13.2526 7.0168 13.3281V13.375C7.00638 13.4609 7.02201 13.5365 7.06368 13.6016C7.11837 13.6849 7.25769 13.8385 7.48164 14.0625C7.63008 14.224 7.99857 14.5977 8.58712 15.1836L10.2981 16.8789C10.5116 17.082 10.66 17.2109 10.7434 17.2656C10.7981 17.3073 10.8684 17.3229 10.9543 17.3125L11.0637 17.3281C11.1184 17.3281 11.1718 17.3177 11.2238 17.2969C11.2889 17.2422 11.4113 17.1328 11.591 16.9688C11.7733 16.8021 12.078 16.5117 12.5051 16.0977L15.1145 13.4883C16.703 11.8893 17.7317 10.8555 18.2004 10.3867C18.6692 9.91537 18.9153 9.65365 18.9387 9.60157C18.97 9.53646 18.9856 9.44531 18.9856 9.32813C18.9856 9.25261 18.983 9.19922 18.9778 9.16797C18.9726 9.13671 18.9596 9.09375 18.9387 9.03906C18.9049 8.97656 18.8528 8.91407 18.7825 8.85157C18.7148 8.78646 18.6457 8.74089 18.5754 8.71485C18.5077 8.6862 18.4283 8.67188 18.3372 8.67188C18.246 8.67188 18.1744 8.6823 18.1223 8.70313Z" fill="white"/>
</svg>
