<svg width="12" height="13" viewBox="0 0 12 13" fill="none" xmlns="http://www.w3.org/2000/svg">
<path fill-rule="evenodd" clip-rule="evenodd" d="M1 0C0.867392 0 0.740215 0.0526784 0.646447 0.146447C0.552678 0.240215 0.5 0.367392 0.5 0.5C0.5 0.632608 0.552678 0.759785 0.646447 0.853553C0.740215 0.947322 0.867392 1 1 1V12H0.5C0.367392 12 0.240215 12.0527 0.146447 12.1464C0.0526784 12.2402 0 12.3674 0 12.5C0 12.6326 0.0526784 12.7598 0.146447 12.8536C0.240215 12.9473 0.367392 13 0.5 13H11.5C11.6326 13 11.7598 12.9473 11.8536 12.8536C11.9473 12.7598 12 12.6326 12 12.5C12 12.3674 11.9473 12.2402 11.8536 12.1464C11.7598 12.0527 11.6326 12 11.5 12H11V1C11.1326 1 11.2598 0.947322 11.3536 0.853553C11.4473 0.759785 11.5 0.632608 11.5 0.5C11.5 0.367392 11.4473 0.240215 11.3536 0.146447C11.2598 0.0526784 11.1326 0 11 0H1ZM4 2.5C3.86739 2.5 3.74022 2.55268 3.64645 2.64645C3.55268 2.74021 3.5 2.86739 3.5 3C3.5 3.13261 3.55268 3.25979 3.64645 3.35355C3.74022 3.44732 3.86739 3.5 4 3.5H5C5.13261 3.5 5.25979 3.44732 5.35355 3.35355C5.44732 3.25979 5.5 3.13261 5.5 3C5.5 2.86739 5.44732 2.74021 5.35355 2.64645C5.25979 2.55268 5.13261 2.5 5 2.5H4ZM3.5 5C3.5 4.86739 3.55268 4.74021 3.64645 4.64645C3.74022 4.55268 3.86739 4.5 4 4.5H5C5.13261 4.5 5.25979 4.55268 5.35355 4.64645C5.44732 4.74021 5.5 4.86739 5.5 5C5.5 5.13261 5.44732 5.25979 5.35355 5.35355C5.25979 5.44732 5.13261 5.5 5 5.5H4C3.86739 5.5 3.74022 5.44732 3.64645 5.35355C3.55268 5.25979 3.5 5.13261 3.5 5ZM4 6.5C3.86739 6.5 3.74022 6.55268 3.64645 6.64645C3.55268 6.74021 3.5 6.86739 3.5 7C3.5 7.13261 3.55268 7.25979 3.64645 7.35355C3.74022 7.44732 3.86739 7.5 4 7.5H5C5.13261 7.5 5.25979 7.44732 5.35355 7.35355C5.44732 7.25979 5.5 7.13261 5.5 7C5.5 6.86739 5.44732 6.74021 5.35355 6.64645C5.25979 6.55268 5.13261 6.5 5 6.5H4ZM6.5 3C6.5 2.86739 6.55268 2.74021 6.64645 2.64645C6.74021 2.55268 6.86739 2.5 7 2.5H8C8.13261 2.5 8.25978 2.55268 8.35355 2.64645C8.44732 2.74021 8.5 2.86739 8.5 3C8.5 3.13261 8.44732 3.25979 8.35355 3.35355C8.25978 3.44732 8.13261 3.5 8 3.5H7C6.86739 3.5 6.74021 3.44732 6.64645 3.35355C6.55268 3.25979 6.5 3.13261 6.5 3ZM7 4.5C6.86739 4.5 6.74021 4.55268 6.64645 4.64645C6.55268 4.74021 6.5 4.86739 6.5 5C6.5 5.13261 6.55268 5.25979 6.64645 5.35355C6.74021 5.44732 6.86739 5.5 7 5.5H8C8.13261 5.5 8.25978 5.44732 8.35355 5.35355C8.44732 5.25979 8.5 5.13261 8.5 5C8.5 4.86739 8.44732 4.74021 8.35355 4.64645C8.25978 4.55268 8.13261 4.5 8 4.5H7ZM6.5 7C6.5 6.86739 6.55268 6.74021 6.64645 6.64645C6.74021 6.55268 6.86739 6.5 7 6.5H8C8.13261 6.5 8.25978 6.55268 8.35355 6.64645C8.44732 6.74021 8.5 6.86739 8.5 7C8.5 7.13261 8.44732 7.25979 8.35355 7.35355C8.25978 7.44732 8.13261 7.5 8 7.5H7C6.86739 7.5 6.74021 7.44732 6.64645 7.35355C6.55268 7.25979 6.5 7.13261 6.5 7ZM4 11.5V10C4 9.86739 4.05268 9.74021 4.14645 9.64645C4.24022 9.55268 4.36739 9.5 4.5 9.5H7.5C7.63261 9.5 7.75978 9.55268 7.85355 9.64645C7.94732 9.74021 8 9.86739 8 10V11.5C8 11.6326 7.94732 11.7598 7.85355 11.8536C7.75978 11.9473 7.63261 12 7.5 12H4.5C4.36739 12 4.24022 11.9473 4.14645 11.8536C4.05268 11.7598 4 11.6326 4 11.5Z" fill="url(#paint0_linear_341_293)"/>
<defs>
<linearGradient id="paint0_linear_341_293" x1="6" y1="0" x2="6" y2="13" gradientUnits="userSpaceOnUse">
<stop stop-color="white"/>
<stop offset="1" stop-color="#D1DCFF"/>
</linearGradient>
</defs>
</svg>
