<svg width="18" height="18" viewBox="0 0 18 18" fill="none" xmlns="http://www.w3.org/2000/svg">
<path d="M8.47707 1.54668C7.78273 1.64336 7.17043 1.9085 6.64015 2.34209C6.11281 2.77275 5.72902 3.30596 5.48878 3.9417C5.33351 4.36065 5.25587 4.79863 5.25587 5.25566C5.25587 5.49589 5.27345 5.71269 5.30861 5.90605C5.34669 6.09648 5.40675 6.30596 5.48878 6.53447C5.62062 6.92998 5.8213 7.29327 6.09083 7.62432C6.36329 7.95244 6.67238 8.2249 7.01809 8.4417C7.33157 8.63506 7.64651 8.77422 7.96291 8.85918C8.28225 8.94121 8.62796 8.98223 9.00003 8.98223C9.19339 8.98223 9.34866 8.97637 9.46584 8.96465C9.58596 8.95293 9.73685 8.92803 9.91849 8.88994C10.4341 8.7581 10.9073 8.51933 11.3379 8.17363C11.7715 7.82499 12.1143 7.40458 12.3662 6.91239C12.5332 6.57548 12.6475 6.19755 12.709 5.77861C12.7325 5.65849 12.7442 5.48418 12.7442 5.25566C12.7442 5.02715 12.7325 4.85283 12.709 4.73271C12.6241 4.17021 12.4249 3.65459 12.1114 3.18584C11.8008 2.71709 11.3995 2.3333 10.9073 2.03447C10.5352 1.80596 10.1148 1.64922 9.64602 1.56426C9.51419 1.54083 9.31936 1.52618 9.06155 1.52031C8.80374 1.51445 8.60891 1.52324 8.47707 1.54668ZM9.25051 3.02324C9.59915 3.04667 9.9346 3.16972 10.2569 3.39238C10.5821 3.61504 10.8311 3.89775 11.0039 4.24053C11.1797 4.58037 11.2588 4.9583 11.2412 5.37432C11.2237 5.7874 11.1006 6.15654 10.8721 6.48173C10.7403 6.68388 10.5777 6.86113 10.3843 7.01348C10.1939 7.16289 9.99612 7.27862 9.79104 7.36065C9.62405 7.41045 9.50101 7.44414 9.42191 7.46172C9.34574 7.4793 9.20511 7.48809 9.00003 7.48809C8.79495 7.48809 8.65286 7.4793 8.57376 7.46172C8.49758 7.44414 8.376 7.41045 8.20901 7.36065C7.87209 7.24053 7.58059 7.03984 7.33449 6.7586C7.0884 6.47734 6.91701 6.1624 6.82033 5.81376C6.72658 5.41825 6.73244 5.0286 6.83791 4.64482C6.9463 4.26103 7.14113 3.93144 7.42238 3.65605C7.70656 3.37773 8.04641 3.18437 8.44192 3.07598C8.51517 3.05254 8.62063 3.03204 8.75832 3.01446C8.89602 2.99688 8.9883 2.99394 9.03518 3.00566L9.25051 3.02324ZM6.22706 10.5467C5.40089 10.6668 4.69336 11.0213 4.10449 11.6101C3.63574 12.0789 3.31201 12.6429 3.1333 13.302C3.07177 13.5071 3.03515 13.6961 3.02344 13.8689C3.01172 14.0418 3.00586 14.3934 3.00586 14.9236V15.9124L3.0586 16.0574C3.10841 16.1395 3.16846 16.2171 3.23877 16.2903C3.42041 16.4573 3.6372 16.5203 3.88916 16.4793C4.14112 16.4383 4.3213 16.3035 4.42969 16.075L4.48243 15.9476L4.50001 14.9236C4.51172 14.3934 4.52344 14.0623 4.53516 13.9305C4.54688 13.7986 4.57764 13.6492 4.62745 13.4822C4.74757 13.157 4.94825 12.8655 5.2295 12.6077C5.51075 12.3499 5.8257 12.1727 6.17434 12.076C6.30617 12.0408 6.53615 12.0174 6.86428 12.0057C7.19533 11.9939 7.90725 11.9881 9.00003 11.9881C10.0928 11.9881 10.8033 11.9939 11.1314 12.0057C11.4624 12.0174 11.6939 12.0408 11.8257 12.076C12.1861 12.1727 12.5098 12.3572 12.7969 12.6297C13.087 12.8992 13.2847 13.2068 13.3902 13.5525C13.44 13.6961 13.4678 13.8353 13.4737 13.97C13.4795 14.1019 13.4883 14.4197 13.5 14.9236L13.5176 15.9476L13.5704 16.075C13.6788 16.3035 13.8589 16.4383 14.1109 16.4793C14.3628 16.5203 14.5796 16.4573 14.7613 16.2903C14.8316 16.2171 14.8917 16.1395 14.9415 16.0574L14.9942 15.9124V14.9236C14.9942 14.3934 14.9883 14.0418 14.9766 13.8689C14.9649 13.6961 14.9283 13.5071 14.8668 13.302C14.7964 13.0267 14.6954 12.763 14.5635 12.511C14.335 12.0657 14.0186 11.679 13.6143 11.3509C13.2129 11.0198 12.7735 10.7884 12.2959 10.6565L12.2388 10.639C12.0953 10.5892 11.9693 10.5584 11.8609 10.5467C11.729 10.535 11.4888 10.5291 11.1402 10.5291L9.07034 10.5115C7.30666 10.5115 6.3589 10.5232 6.22706 10.5467Z" fill="#70737A"/>
</svg>
