<svg width="24" height="24" viewBox="0 0 24 24" fill="none" xmlns="http://www.w3.org/2000/svg">
<path fill-rule="evenodd" clip-rule="evenodd" d="M9.40069 3.00293C10.5557 1.00293 13.4437 1.00293 14.5977 3.00293L21.9527 15.7509C23.1067 17.7509 21.6627 20.2509 19.3537 20.2509H4.64469C2.33569 20.2509 0.89269 17.7509 2.04669 15.7509L9.39969 3.00293H9.40069ZM11.9997 8.24993C12.1986 8.24993 12.3894 8.32895 12.53 8.4696C12.6707 8.61025 12.7497 8.80102 12.7497 8.99993V12.7499C12.7497 12.9488 12.6707 13.1396 12.53 13.2803C12.3894 13.4209 12.1986 13.4999 11.9997 13.4999C11.8008 13.4999 11.61 13.4209 11.4694 13.2803C11.3287 13.1396 11.2497 12.9488 11.2497 12.7499V8.99993C11.2497 8.80102 11.3287 8.61025 11.4694 8.4696C11.61 8.32895 11.8008 8.24993 11.9997 8.24993ZM11.9997 16.4999C12.1986 16.4999 12.3894 16.4209 12.53 16.2803C12.6707 16.1396 12.7497 15.9488 12.7497 15.7499C12.7497 15.551 12.6707 15.3603 12.53 15.2196C12.3894 15.0789 12.1986 14.9999 11.9997 14.9999C11.8008 14.9999 11.61 15.0789 11.4694 15.2196C11.3287 15.3603 11.2497 15.551 11.2497 15.7499C11.2497 15.9488 11.3287 16.1396 11.4694 16.2803C11.61 16.4209 11.8008 16.4999 11.9997 16.4999Z" fill="#B0B1B4"/>
</svg>
