<svg width="18" height="18" viewBox="0 0 18 18" fill="none" xmlns="http://www.w3.org/2000/svg">
<path d="M1.88966 1.54688C1.64943 1.59669 1.42091 1.72852 1.2041 1.94238C1.09863 2.05078 1.01513 2.15038 0.953616 2.24121C0.895021 2.33203 0.846683 2.44922 0.8086 2.59277L0.755859 2.75538V5.52393L0.8086 5.7041C0.881843 5.89746 0.98731 6.07178 1.125 6.22705C1.26269 6.38232 1.41504 6.50244 1.58204 6.58741C1.79884 6.6958 1.99219 6.75 2.16212 6.75H2.25001L2.26758 14.6162L2.32032 14.814C2.45216 15.2593 2.66749 15.6226 2.96632 15.9038C3.26808 16.1851 3.63576 16.3682 4.06935 16.4531C4.15138 16.4766 4.4634 16.4883 5.0054 16.4883H9.00004H12.9947C13.5367 16.4883 13.8487 16.4766 13.9307 16.4531C14.3643 16.3682 14.7305 16.1851 15.0294 15.9038C15.3311 15.6226 15.5479 15.2593 15.6797 14.814L15.7325 14.6162L15.7501 6.75H15.838C16.0079 6.75 16.2012 6.6958 16.418 6.58741C16.585 6.50245 16.7374 6.38233 16.8751 6.22705C17.0128 6.07178 17.1182 5.89746 17.1915 5.7041L17.2442 5.52393V2.75538L17.1915 2.59277C17.1534 2.44922 17.1036 2.33203 17.0421 2.24121C16.9835 2.15038 16.9014 2.05078 16.796 1.94238C16.5792 1.72852 16.3448 1.59668 16.0928 1.54687C15.9844 1.52344 13.6172 1.51172 8.99124 1.51172C4.36525 1.51172 1.99805 1.52345 1.88966 1.54688ZM15.7501 4.12207V5.23828H2.25001V2.98828H15.7501V4.12207ZM14.2383 10.604V14.4536L14.1856 14.5635C14.1006 14.7305 13.9747 14.8564 13.8077 14.9414L13.6626 14.9941H4.33742L4.20997 14.9414C4.03126 14.8564 3.89942 14.7305 3.81447 14.5635L3.76173 14.4536V6.75H14.2383V10.604ZM7.23782 8.29688C7.15286 8.33497 7.07083 8.39063 6.99173 8.46387C6.91555 8.53418 6.86135 8.60303 6.82912 8.67041C6.79983 8.73487 6.78225 8.78467 6.7764 8.81982C6.77053 8.85498 6.7676 8.91504 6.7676 9C6.7676 9.13184 6.78518 9.24024 6.82034 9.3252C6.91702 9.50391 7.05618 9.62989 7.23782 9.70313C7.29641 9.72657 7.40335 9.73828 7.55863 9.73828H9.00004H10.4414C10.5967 9.73828 10.7037 9.72657 10.7623 9.70313C10.9439 9.62989 11.0831 9.50391 11.1797 9.3252C11.2149 9.24024 11.2325 9.13184 11.2325 9C11.2325 8.91504 11.2295 8.85498 11.2237 8.81982C11.2178 8.78466 11.2032 8.73632 11.1797 8.67481C11.1416 8.60449 11.0831 8.53418 11.0039 8.46387C10.9278 8.39063 10.8531 8.33936 10.7798 8.31006C10.7095 8.27783 10.5967 8.26172 10.4414 8.26172H9.00004H7.55863C7.39164 8.27344 7.2847 8.28516 7.23782 8.29688Z" fill="#8C8F96"/>
</svg>
