<svg width="18" height="20" viewBox="0 0 18 20" fill="none" xmlns="http://www.w3.org/2000/svg">
<path fill-rule="evenodd" clip-rule="evenodd" d="M1.5 0C1.30109 0 1.11032 0.0790175 0.96967 0.21967C0.829018 0.360322 0.75 0.551088 0.75 0.75C0.75 0.948912 0.829018 1.13968 0.96967 1.28033C1.11032 1.42098 1.30109 1.5 1.5 1.5V18H0.75C0.551088 18 0.360322 18.079 0.21967 18.2197C0.0790175 18.3603 0 18.5511 0 18.75C0 18.9489 0.0790175 19.1397 0.21967 19.2803C0.360322 19.421 0.551088 19.5 0.75 19.5H17.25C17.4489 19.5 17.6397 19.421 17.7803 19.2803C17.921 19.1397 18 18.9489 18 18.75C18 18.5511 17.921 18.3603 17.7803 18.2197C17.6397 18.079 17.4489 18 17.25 18H16.5V1.5C16.6989 1.5 16.8897 1.42098 17.0303 1.28033C17.171 1.13968 17.25 0.948912 17.25 0.75C17.25 0.551088 17.171 0.360322 17.0303 0.21967C16.8897 0.0790175 16.6989 0 16.5 0H1.5ZM6 3.75C5.80109 3.75 5.61032 3.82902 5.46967 3.96967C5.32902 4.11032 5.25 4.30109 5.25 4.5C5.25 4.69891 5.32902 4.88968 5.46967 5.03033C5.61032 5.17098 5.80109 5.25 6 5.25H7.5C7.69891 5.25 7.88968 5.17098 8.03033 5.03033C8.17098 4.88968 8.25 4.69891 8.25 4.5C8.25 4.30109 8.17098 4.11032 8.03033 3.96967C7.88968 3.82902 7.69891 3.75 7.5 3.75H6ZM5.25 7.5C5.25 7.30109 5.32902 7.11032 5.46967 6.96967C5.61032 6.82902 5.80109 6.75 6 6.75H7.5C7.69891 6.75 7.88968 6.82902 8.03033 6.96967C8.17098 7.11032 8.25 7.30109 8.25 7.5C8.25 7.69891 8.17098 7.88968 8.03033 8.03033C7.88968 8.17098 7.69891 8.25 7.5 8.25H6C5.80109 8.25 5.61032 8.17098 5.46967 8.03033C5.32902 7.88968 5.25 7.69891 5.25 7.5ZM6 9.75C5.80109 9.75 5.61032 9.82902 5.46967 9.96967C5.32902 10.1103 5.25 10.3011 5.25 10.5C5.25 10.6989 5.32902 10.8897 5.46967 11.0303C5.61032 11.171 5.80109 11.25 6 11.25H7.5C7.69891 11.25 7.88968 11.171 8.03033 11.0303C8.17098 10.8897 8.25 10.6989 8.25 10.5C8.25 10.3011 8.17098 10.1103 8.03033 9.96967C7.88968 9.82902 7.69891 9.75 7.5 9.75H6ZM9.75 4.5C9.75 4.30109 9.82902 4.11032 9.96967 3.96967C10.1103 3.82902 10.3011 3.75 10.5 3.75H12C12.1989 3.75 12.3897 3.82902 12.5303 3.96967C12.671 4.11032 12.75 4.30109 12.75 4.5C12.75 4.69891 12.671 4.88968 12.5303 5.03033C12.3897 5.17098 12.1989 5.25 12 5.25H10.5C10.3011 5.25 10.1103 5.17098 9.96967 5.03033C9.82902 4.88968 9.75 4.69891 9.75 4.5ZM10.5 6.75C10.3011 6.75 10.1103 6.82902 9.96967 6.96967C9.82902 7.11032 9.75 7.30109 9.75 7.5C9.75 7.69891 9.82902 7.88968 9.96967 8.03033C10.1103 8.17098 10.3011 8.25 10.5 8.25H12C12.1989 8.25 12.3897 8.17098 12.5303 8.03033C12.671 7.88968 12.75 7.69891 12.75 7.5C12.75 7.30109 12.671 7.11032 12.5303 6.96967C12.3897 6.82902 12.1989 6.75 12 6.75H10.5ZM9.75 10.5C9.75 10.3011 9.82902 10.1103 9.96967 9.96967C10.1103 9.82902 10.3011 9.75 10.5 9.75H12C12.1989 9.75 12.3897 9.82902 12.5303 9.96967C12.671 10.1103 12.75 10.3011 12.75 10.5C12.75 10.6989 12.671 10.8897 12.5303 11.0303C12.3897 11.171 12.1989 11.25 12 11.25H10.5C10.3011 11.25 10.1103 11.171 9.96967 11.0303C9.82902 10.8897 9.75 10.6989 9.75 10.5ZM6 17.25V15C6 14.8011 6.07902 14.6103 6.21967 14.4697C6.36032 14.329 6.55109 14.25 6.75 14.25H11.25C11.4489 14.25 11.6397 14.329 11.7803 14.4697C11.921 14.6103 12 14.8011 12 15V17.25C12 17.4489 11.921 17.6397 11.7803 17.7803C11.6397 17.921 11.4489 18 11.25 18H6.75C6.55109 18 6.36032 17.921 6.21967 17.7803C6.07902 17.6397 6 17.4489 6 17.25Z" fill="#B0B1B4"/>
</svg>
