<svg width="28" height="28" viewBox="0 0 28 28" fill="none" xmlns="http://www.w3.org/2000/svg">
<path d="M2.15328 1.20301C1.76134 1.23946 1.47651 1.43998 1.29877 1.80457C1.1256 2.16916 1.13244 2.52918 1.31929 2.88465C1.35575 2.9758 2.14872 3.79611 3.6982 5.34559L6.02243 7.66981L5.99509 7.81337C5.89939 8.12782 5.84242 8.80914 5.82419 9.85731C5.78774 10.5865 5.73989 11.1949 5.68063 11.6825C5.62594 12.1656 5.53252 12.6509 5.40037 13.1386C5.27277 13.6216 5.11554 14.0637 4.92869 14.4647C4.74184 14.8658 4.53219 15.2258 4.29977 15.5448C4.06734 15.8593 3.71643 16.2694 3.24704 16.7753C2.96904 17.0897 2.77307 17.3358 2.65914 17.5136C2.54977 17.6913 2.46546 17.9009 2.40622 18.1425C2.35152 18.3293 2.33329 18.5458 2.35152 18.7919C2.36975 19.0334 2.40621 19.2385 2.4609 19.4071C2.68877 20.0406 3.1012 20.4963 3.6982 20.7743L3.78024 20.8017C3.91241 20.8791 4.08103 20.927 4.28611 20.9452C4.54587 20.9634 5.12464 20.9817 6.02243 20.9999H19.3457L22.1485 23.8026C24.0352 25.6848 25.0242 26.6441 25.1153 26.6806C25.4708 26.8674 25.8262 26.8788 26.1817 26.7147C26.5372 26.5461 26.7423 26.2658 26.7969 25.8739C26.8516 25.6096 26.8243 25.3567 26.7149 25.1151C26.6557 25.0422 22.7341 21.1047 14.9502 13.3026C7.16633 5.49599 3.19007 1.53798 3.02144 1.42861C2.77991 1.22353 2.49052 1.14833 2.15328 1.20301ZM13.4395 1.20301C12.3958 1.28049 11.4251 1.53342 10.5273 1.96181C9.87564 2.27626 9.45181 2.53603 9.25585 2.74111C9.05989 2.94619 8.96191 3.20368 8.96191 3.51357C8.96191 3.82346 9.06445 4.09006 9.26953 4.31337C9.43814 4.48198 9.66145 4.59364 9.93945 4.64833C10.0898 4.68478 10.2288 4.68478 10.3564 4.64833C10.4886 4.61188 10.6572 4.53668 10.8623 4.42275C11.3135 4.14475 11.7487 3.93511 12.168 3.79383C12.5872 3.65255 13.0475 3.56368 13.5488 3.52723C14.3327 3.45431 15.0983 3.54774 15.8457 3.80751C16.5931 4.06727 17.2836 4.46831 17.917 5.01063C18.309 5.34787 18.6644 5.78309 18.9834 6.31629C19.3024 6.84493 19.5258 7.3713 19.6534 7.89539C19.7126 8.15515 19.7559 8.39897 19.7832 8.62685C19.8106 8.85016 19.8334 9.23297 19.8516 9.77529C19.8698 10.5956 19.9291 11.3043 20.0293 11.9013C20.1341 12.4983 20.28 13.1317 20.4668 13.8017C20.6537 14.3622 20.8952 14.9615 21.1914 15.5995C21.4922 16.233 21.7748 16.716 22.0391 17.0487C22.2624 17.3495 22.5495 17.5136 22.9004 17.5409C23.2559 17.5683 23.5658 17.452 23.8301 17.1923C24.017 17.0054 24.1195 16.7616 24.1378 16.4608C24.156 16.315 24.1446 16.1874 24.1036 16.078C24.0671 15.9641 23.9942 15.8137 23.8848 15.6269C23.4382 14.9159 23.0873 14.1959 22.8321 13.4667C22.5814 12.7375 22.3991 11.9446 22.2852 11.0878C22.2488 10.8098 22.2169 10.3768 22.1895 9.78895C22.1622 9.20106 22.1394 8.77495 22.1211 8.51063C22.0254 7.41232 21.6927 6.35959 21.1231 5.35243C20.5534 4.34071 19.822 3.49989 18.9288 2.82997C18.5551 2.52918 18.1244 2.26258 17.6367 2.03017C17.1537 1.79774 16.6797 1.61545 16.2149 1.48329C15.8229 1.35113 15.374 1.26226 14.8682 1.21669C14.3623 1.17112 13.8861 1.16656 13.4395 1.20301ZM12.5713 14.2528L16.9942 18.6483H4.67575L5.15427 18.1698C5.4505 17.8371 5.67381 17.5774 5.82419 17.3905C6.14321 16.9986 6.44627 16.5451 6.73338 16.0302C7.02505 15.5152 7.24379 15.0344 7.38962 14.5878C7.82257 13.3756 8.0755 11.9765 8.14842 10.3905L8.17576 9.82997L12.5713 14.2528ZM11.6211 23.3788C11.3203 23.4927 11.0993 23.6796 10.958 23.9394C10.8213 24.1991 10.7894 24.4794 10.8623 24.7802C10.8805 24.8941 10.9603 25.0582 11.1016 25.2724C11.2428 25.4866 11.3887 25.6688 11.5391 25.8192C12.209 26.4892 13.0293 26.8241 14 26.8241C14.9707 26.8241 15.791 26.4892 16.461 25.8192C16.6113 25.6688 16.7572 25.4866 16.8985 25.2724C17.0397 25.0582 17.1195 24.8941 17.1377 24.7802C17.2106 24.5204 17.1856 24.2652 17.0625 24.0145C16.944 23.7593 16.764 23.5656 16.5225 23.4335C16.4085 23.3788 16.2399 23.3515 16.0166 23.3515C15.8662 23.3515 15.7637 23.3606 15.709 23.3788C15.6543 23.397 15.5791 23.4244 15.4834 23.4608C15.3513 23.5383 15.2305 23.6431 15.1211 23.7753C14.9707 23.9804 14.8522 24.1194 14.7656 24.1923C14.6836 24.2652 14.5856 24.3313 14.4717 24.3905C14.3623 24.4452 14.2051 24.4726 14 24.4726C13.7949 24.4726 13.6354 24.4452 13.5215 24.3905C13.4121 24.3313 13.3141 24.2652 13.2275 24.1923C13.1455 24.1194 13.0293 23.9804 12.8789 23.7753C12.6738 23.511 12.3844 23.3697 12.0107 23.3515C11.8239 23.3515 11.694 23.3606 11.6211 23.3788Z" fill="#FFB300"/>
</svg>
