<svg width="16" height="16" viewBox="0 0 16 16" fill="none" xmlns="http://www.w3.org/2000/svg">
<g clip-path="url(#clip0_499_230)">
<path d="M7.71553 0.685651C7.23675 0.706475 6.77098 0.802798 6.31823 0.974621C5.86547 1.14384 5.45304 1.38335 5.08095 1.69314C4.59957 2.07844 4.20666 2.54573 3.90222 3.09504C3.60039 3.64434 3.41694 4.22228 3.35188 4.82885C3.34147 4.95642 3.32846 5.22326 3.31285 5.62937C3.29724 6.03289 3.27512 6.36352 3.2465 6.62125C3.22048 6.87637 3.17104 7.13671 3.09819 7.40224C3.02273 7.73286 2.91604 8.03225 2.77813 8.30039C2.67144 8.53469 2.55956 8.73254 2.44247 8.89395C2.32538 9.05275 2.13282 9.27534 1.86481 9.56171C1.69568 9.75435 1.57858 9.90144 1.51353 10.003C1.45108 10.1045 1.40294 10.2243 1.36911 10.3622C1.33788 10.469 1.32748 10.5926 1.33789 10.7332C1.3483 10.8712 1.36912 10.9883 1.40034 11.0846C1.53045 11.4361 1.76073 11.6912 2.09119 11.85L2.13802 11.8813C2.21348 11.9255 2.32016 11.9529 2.45808 11.9633C2.63762 11.9737 3.03703 11.9841 3.65632 11.9945H12.3212C12.9405 11.9841 13.3399 11.9737 13.5194 11.9633C13.6573 11.9529 13.764 11.9255 13.8395 11.8813L13.8863 11.85C14.2168 11.6912 14.4471 11.4361 14.5772 11.0846C14.6084 10.9883 14.6292 10.8712 14.6396 10.7332C14.65 10.5926 14.6396 10.469 14.6084 10.3622C14.5746 10.2243 14.5251 10.1019 14.4601 9.99516C14.3976 9.88842 14.2818 9.74394 14.1127 9.56171C13.8447 9.27534 13.6521 9.05275 13.535 8.89395C13.4179 8.73254 13.306 8.53469 13.1994 8.30039C13.0719 8.04526 12.9704 7.77973 12.8949 7.50378C12.8221 7.22522 12.7687 6.94797 12.7349 6.67201C12.7037 6.39346 12.6777 6.04591 12.6568 5.62937C12.6464 5.07486 12.6139 4.67525 12.5593 4.43054C12.4005 3.60788 12.0441 2.88286 11.4898 2.25547C10.9356 1.62546 10.2642 1.17638 9.47583 0.908243C8.91118 0.728613 8.32442 0.654416 7.71553 0.685651ZM8.50005 2.0446C8.85133 2.09927 9.187 2.20731 9.50705 2.36871C9.8271 2.52752 10.1094 2.73969 10.354 3.00522C10.7053 3.35668 10.9616 3.76149 11.1229 4.21967C11.1958 4.41231 11.2452 4.59975 11.2712 4.78199C11.2999 4.96162 11.3194 5.24408 11.3298 5.62937C11.3402 6.07715 11.3662 6.46374 11.4079 6.78916C11.4521 7.11458 11.5119 7.43739 11.5874 7.75759C11.7149 8.27825 11.8931 8.74165 12.1221 9.14777C12.3511 9.55389 12.6738 9.98083 13.0901 10.4286L13.3126 10.6512H2.66494L2.88741 10.4286C3.30374 9.98083 3.6264 9.55389 3.85538 9.14777C4.08436 8.74166 4.2626 8.27826 4.3901 7.75759C4.46556 7.43738 4.52411 7.11457 4.56574 6.78916C4.60998 6.46374 4.6399 6.07715 4.65551 5.62937C4.67112 5.1816 4.69714 4.84838 4.73357 4.6297C4.7726 4.41102 4.85327 4.16891 4.97557 3.90337C5.09786 3.63523 5.2735 3.37359 5.50248 3.11847C5.73146 2.86074 5.97345 2.65247 6.22846 2.49366C6.68903 2.21511 7.19642 2.055 7.75066 2.01335C7.8131 2.00294 7.9315 2.00294 8.10584 2.01335C8.28278 2.02376 8.41418 2.03418 8.50005 2.0446ZM6.63048 13.3534C6.45874 13.4185 6.33254 13.5253 6.25187 13.6737C6.17381 13.8221 6.1556 13.9822 6.19723 14.154C6.20764 14.2191 6.25317 14.3128 6.33384 14.4351C6.41451 14.5575 6.49777 14.6616 6.58364 14.7475C6.96614 15.1302 7.43451 15.3216 7.98875 15.3216C8.54299 15.3216 9.01136 15.1302 9.39386 14.7475C9.47973 14.6616 9.56299 14.5575 9.64366 14.4351C9.72432 14.3128 9.76986 14.2191 9.78027 14.154C9.8219 14.0056 9.80759 13.8598 9.73733 13.7166C9.66968 13.5708 9.56689 13.4602 9.42899 13.3847C9.36393 13.3535 9.26766 13.3378 9.14016 13.3378C9.05429 13.3378 8.99575 13.343 8.96452 13.3534C8.93329 13.3639 8.89036 13.3795 8.83572 13.4003C8.76026 13.4446 8.69131 13.5045 8.62886 13.5799C8.54299 13.6971 8.47534 13.7765 8.42589 13.8181C8.37906 13.8598 8.32311 13.8975 8.25806 13.9314C8.19561 13.9626 8.10584 13.9783 7.98875 13.9783C7.87166 13.9783 7.78058 13.9626 7.71553 13.9314C7.65308 13.8975 7.59714 13.8598 7.5477 13.8181C7.50087 13.7765 7.43451 13.6971 7.34864 13.5799C7.23155 13.429 7.06632 13.3482 6.85295 13.3378C6.74626 13.3378 6.67211 13.343 6.63048 13.3534Z" fill="#FFB300"/>
</g>
<defs>
<clipPath id="clip0_499_230">
<rect width="13.3095" height="14.6429" fill="white" transform="translate(1.33398 0.678711)"/>
</clipPath>
</defs>
</svg>
