<svg width="36" height="36" viewBox="0 0 36 36" fill="none" xmlns="http://www.w3.org/2000/svg">
<path d="M2.76906 1.54687C2.26514 1.59374 1.89893 1.85155 1.67041 2.3203C1.44776 2.78906 1.45655 3.25195 1.69679 3.70898C1.74366 3.82617 2.76319 4.88085 4.75539 6.87304L7.74369 9.86133L7.70854 10.0459C7.58548 10.4502 7.51224 11.3262 7.48881 12.6738C7.44194 13.6113 7.38041 14.3936 7.30423 15.0205C7.23391 15.6416 7.1138 16.2656 6.94389 16.8926C6.77984 17.5137 6.57769 18.082 6.33744 18.5977C6.0972 19.1133 5.82766 19.5762 5.52883 19.9863C5.22999 20.3906 4.77883 20.918 4.17533 21.5684C3.8179 21.9727 3.56594 22.2891 3.41945 22.5176C3.27883 22.7461 3.17043 23.0156 3.09427 23.3262C3.02395 23.5664 3.0005 23.8447 3.02394 24.1611C3.04737 24.4717 3.09425 24.7354 3.16457 24.9521C3.45754 25.7666 3.98782 26.3525 4.75539 26.71L4.86087 26.7451C5.03079 26.8447 5.24759 26.9062 5.51127 26.9297C5.84524 26.9531 6.58939 26.9766 7.74369 27H24.8736L28.4772 30.6035C30.903 33.0234 32.1745 34.2568 32.2917 34.3037C32.7487 34.5439 33.2057 34.5586 33.6627 34.3477C34.1198 34.1309 34.3835 33.7705 34.4538 33.2666C34.5241 32.9268 34.4889 32.6016 34.3483 32.291C34.2721 32.1973 29.2301 27.1348 19.2223 17.1035C9.21441 7.06641 4.10207 1.97755 3.88527 1.83693C3.57472 1.57325 3.20265 1.47657 2.76906 1.54687ZM17.2799 1.54687C15.9381 1.64649 14.69 1.97169 13.5357 2.52247C12.6978 2.92677 12.1529 3.26075 11.9009 3.52443C11.649 3.7881 11.523 4.11915 11.523 4.51759C11.523 4.91602 11.6548 5.25879 11.9185 5.5459C12.1353 5.76269 12.4224 5.90625 12.7799 5.97657C12.9732 6.02343 13.1519 6.02343 13.316 5.97657C13.4859 5.9297 13.7027 5.83302 13.9664 5.68653C14.5464 5.32911 15.106 5.05957 15.6451 4.87792C16.1841 4.69628 16.7759 4.58202 17.4205 4.53515C18.4283 4.4414 19.4127 4.56152 20.3736 4.89551C21.3346 5.22949 22.2223 5.74511 23.0367 6.44238C23.5406 6.87597 23.9977 7.43554 24.4078 8.12109C24.818 8.80077 25.1051 9.47752 25.2692 10.1514C25.3453 10.4853 25.401 10.7988 25.4361 11.0918C25.4713 11.3789 25.5006 11.8711 25.524 12.5684C25.5475 13.6231 25.6236 14.5342 25.7526 15.3017C25.8873 16.0693 26.0748 16.8838 26.3151 17.7451C26.5553 18.4658 26.8658 19.2363 27.2467 20.0566C27.6334 20.8711 27.9967 21.4922 28.3365 21.9199C28.6237 22.3066 28.9928 22.5176 29.444 22.5527C29.901 22.5879 30.2995 22.4385 30.6393 22.1045C30.8795 21.8642 31.0114 21.5508 31.0348 21.1641C31.0582 20.9766 31.0436 20.8125 30.9909 20.6719C30.944 20.5254 30.8502 20.332 30.7096 20.0918C30.1354 19.1777 29.6842 18.252 29.3561 17.3145C29.0338 16.3769 28.7994 15.3574 28.653 14.2559C28.6061 13.8984 28.5651 13.3418 28.5299 12.5859C28.4948 11.8301 28.4655 11.2822 28.442 10.9424C28.319 9.53027 27.8912 8.17676 27.1588 6.88184C26.4264 5.58105 25.4859 4.5 24.3375 3.63867C23.8571 3.25195 23.3033 2.90918 22.6764 2.61036C22.0553 2.31153 21.4459 2.07715 20.8482 1.90723C20.3443 1.73731 19.7672 1.62305 19.1168 1.56446C18.4664 1.50586 17.8541 1.5 17.2799 1.54687ZM16.1636 18.3252L21.8502 23.9766H6.01223L6.62748 23.3613C7.00834 22.9336 7.29545 22.5996 7.48881 22.3594C7.89897 21.8555 8.28862 21.2724 8.65776 20.6104C9.03276 19.9482 9.31401 19.3301 9.5015 18.7559C10.0581 17.1973 10.3833 15.3984 10.4771 13.3594L10.5123 12.6387L16.1636 18.3252ZM14.942 30.0586C14.5552 30.2051 14.2711 30.4453 14.0894 30.7793C13.9136 31.1133 13.8726 31.4736 13.9664 31.8604C13.9898 32.0068 14.0923 32.2178 14.274 32.4932C14.4556 32.7686 14.6431 33.0029 14.8365 33.1963C15.6978 34.0576 16.7525 34.4883 18.0006 34.4883C19.2486 34.4883 20.3033 34.0576 21.1646 33.1963C21.358 33.0029 21.5455 32.7686 21.7271 32.4932C21.9088 32.2178 22.0113 32.0068 22.0348 31.8604C22.1285 31.5264 22.0963 31.1983 21.9381 30.876C21.7857 30.5478 21.5543 30.2988 21.2437 30.1289C21.0973 30.0586 20.8805 30.0234 20.5934 30.0234C20.4 30.0234 20.2682 30.0352 20.1978 30.0586C20.1275 30.082 20.0308 30.1172 19.9078 30.1641C19.7379 30.2637 19.5826 30.3985 19.442 30.5684C19.2486 30.832 19.0963 31.0108 18.9849 31.1045C18.8795 31.1982 18.7535 31.2832 18.607 31.3594C18.4664 31.4297 18.2642 31.4648 18.0006 31.4648C17.7369 31.4648 17.5318 31.4297 17.3853 31.3594C17.2447 31.2832 17.1187 31.1982 17.0074 31.1045C16.9019 31.0107 16.7525 30.832 16.5591 30.5684C16.2955 30.2285 15.9234 30.0469 15.4429 30.0234C15.2027 30.0234 15.0357 30.0352 14.942 30.0586Z" fill="#70737A"/>
</svg>
