<svg width="18" height="18" viewBox="0 0 18 18" fill="none" xmlns="http://www.w3.org/2000/svg">
<path d="M8.6929 0.773436C8.15384 0.79687 7.62942 0.905268 7.11966 1.09863C6.60989 1.28906 6.14553 1.5586 5.72658 1.90723C5.18459 2.34082 4.74221 2.8667 4.39944 3.48487C4.0596 4.10303 3.85305 4.75342 3.7798 5.43604C3.76808 5.57959 3.75343 5.87989 3.73585 6.33691C3.71827 6.79102 3.69337 7.16309 3.66115 7.45313C3.63185 7.74024 3.57619 8.03321 3.49416 8.33204C3.4092 8.7041 3.28908 9.04102 3.1338 9.34277C3.01368 9.60645 2.8877 9.8291 2.75588 10.0107C2.62404 10.1895 2.40724 10.4399 2.10548 10.7622C1.91505 10.979 1.78321 11.1445 1.70997 11.2588C1.63966 11.3731 1.58545 11.5078 1.54736 11.6631C1.5122 11.7832 1.50049 11.9224 1.51221 12.0806C1.52393 12.2358 1.54737 12.3677 1.58253 12.4761C1.72901 12.8716 1.98829 13.1587 2.36036 13.3374L2.41309 13.3726C2.49805 13.4224 2.61817 13.4531 2.77345 13.4649C2.9756 13.4766 3.42531 13.4883 4.12257 13.5H13.8785C14.5758 13.4883 15.0255 13.4766 15.2276 13.4649C15.3829 13.4531 15.503 13.4224 15.588 13.3726L15.6407 13.3374C16.0128 13.1587 16.272 12.8716 16.4185 12.4761C16.4537 12.3677 16.4771 12.2358 16.4888 12.0806C16.5006 11.9224 16.4888 11.7832 16.4537 11.6631C16.4156 11.5078 16.3599 11.3701 16.2867 11.25C16.2164 11.1299 16.086 10.9673 15.8956 10.7622C15.5938 10.4399 15.377 10.1895 15.2452 10.0107C15.1133 9.8291 14.9874 9.60645 14.8673 9.34277C14.7237 9.05567 14.6094 8.75684 14.5245 8.4463C14.4425 8.13282 14.3824 7.82081 14.3443 7.51026C14.3091 7.19678 14.2798 6.80567 14.2564 6.33691C14.2447 5.71289 14.2081 5.26318 14.1465 4.98779C13.9678 4.06201 13.5665 3.24609 12.9424 2.54005C12.3184 1.83106 11.5626 1.32569 10.6749 1.02393C10.0391 0.821783 9.37846 0.738284 8.6929 0.773436ZM9.57621 2.30274C9.97172 2.36427 10.3497 2.48585 10.71 2.66749C11.0704 2.8462 11.3882 3.08497 11.6636 3.3838C12.0591 3.77931 12.3477 4.23487 12.5294 4.75048C12.6114 4.96728 12.667 5.17822 12.6963 5.3833C12.7286 5.58545 12.7505 5.90332 12.7623 6.33691C12.774 6.84082 12.8033 7.27588 12.8502 7.64209C12.9 8.00831 12.9673 8.37159 13.0523 8.73193C13.1959 9.31786 13.3965 9.83935 13.6544 10.2964C13.9122 10.7534 14.2755 11.2339 14.7442 11.7378L14.9947 11.9883H3.00636L3.25684 11.7378C3.7256 11.2339 4.08888 10.7534 4.3467 10.2964C4.60451 9.83936 4.80519 9.31787 4.94875 8.73193C5.03371 8.37158 5.09963 8.0083 5.1465 7.64209C5.19631 7.27588 5.23 6.84082 5.24757 6.33691C5.26515 5.83301 5.29445 5.45801 5.33547 5.21191C5.37941 4.96582 5.47024 4.69336 5.60794 4.39453C5.74563 4.09278 5.94338 3.79834 6.20119 3.51124C6.45901 3.2212 6.73147 2.98682 7.01859 2.8081C7.53715 2.49463 8.10843 2.31445 8.73245 2.26758C8.80277 2.25586 8.93607 2.25586 9.13236 2.26758C9.33158 2.27929 9.47953 2.29102 9.57621 2.30274ZM7.47123 15.0293C7.27786 15.1025 7.13577 15.2227 7.04495 15.3897C6.95705 15.5566 6.93655 15.7368 6.98342 15.9302C6.99514 16.0034 7.04641 16.1089 7.13724 16.2466C7.22806 16.3843 7.32181 16.5015 7.41849 16.5982C7.84915 17.0288 8.3765 17.2441 9.00053 17.2441C9.62455 17.2441 10.1519 17.0288 10.5826 16.5982C10.6792 16.5015 10.773 16.3843 10.8638 16.2466C10.9546 16.1089 11.0059 16.0034 11.0176 15.9302C11.0645 15.7632 11.0484 15.5991 10.9693 15.438C10.8931 15.2739 10.7774 15.1494 10.6221 15.0645C10.5489 15.0293 10.4405 15.0117 10.2969 15.0117C10.2002 15.0117 10.1343 15.0176 10.0992 15.0293C10.064 15.041 10.0157 15.0586 9.95415 15.082C9.86918 15.1318 9.79155 15.1992 9.72124 15.2842C9.62456 15.416 9.54838 15.5054 9.49271 15.5522C9.43998 15.5991 9.37699 15.6416 9.30375 15.6797C9.23344 15.7148 9.13236 15.7324 9.00053 15.7324C8.86869 15.7324 8.76615 15.7148 8.6929 15.6797C8.62259 15.6416 8.55961 15.5991 8.50394 15.5522C8.45121 15.5054 8.3765 15.416 8.27982 15.2842C8.14798 15.1143 7.96194 15.0234 7.72171 15.0117C7.60159 15.0117 7.5181 15.0176 7.47123 15.0293Z" fill="#70737A"/>
</svg>
