<svg width="18" height="18" viewBox="0 0 18 18" fill="none" xmlns="http://www.w3.org/2000/svg">
<path d="M8.69315 0.773751C8.23905 0.797185 7.78348 0.880684 7.32645 1.02425C6.66727 1.24104 6.07254 1.58382 5.54227 2.05256C5.01492 2.52132 4.60183 3.06184 4.303 3.67414C4.12428 4.04621 3.99245 4.4007 3.90749 4.73762C3.82253 5.07161 3.77419 5.44221 3.76247 5.84944C3.75075 6.25667 3.77712 6.61702 3.84157 6.9305C3.90895 7.24104 4.02028 7.55891 4.17556 7.88411C4.28395 8.11263 4.407 8.32356 4.5447 8.51691C4.68239 8.70735 4.85964 8.91682 5.07644 9.14533C5.35183 9.42072 5.55544 9.66682 5.68728 9.88361C5.81912 10.0975 5.92166 10.3245 5.9949 10.5648C6.03006 10.7113 6.06522 10.8138 6.10037 10.8724C6.13845 10.931 6.18679 10.991 6.24539 11.0526C6.36551 11.161 6.50028 11.2239 6.64969 11.2415C6.80204 11.2591 6.95584 11.2327 7.11111 11.1624C7.16971 11.1243 7.23123 11.0672 7.29569 10.991C7.36307 10.9119 7.4158 10.8358 7.45389 10.7625C7.5242 10.5487 7.48172 10.2308 7.32645 9.80892C7.21805 9.53352 7.08036 9.26985 6.91336 9.01789C6.74637 8.76593 6.52371 8.49054 6.24539 8.19172C5.89968 7.81965 5.65652 7.49592 5.5159 7.22053C5.3782 6.9422 5.29764 6.62287 5.27419 6.26253C5.20388 5.14632 5.55838 4.18684 6.33768 3.38411C6.9119 2.78353 7.61356 2.41731 8.44267 2.28547C8.56279 2.27375 8.74883 2.26789 9.00078 2.26789C9.25273 2.26789 9.43877 2.27375 9.55888 2.28547C10.1097 2.38215 10.6136 2.58137 11.0706 2.88313C11.5276 3.18196 11.8997 3.57161 12.1868 4.05208C12.4739 4.49446 12.6497 4.98664 12.7142 5.52863C12.7815 6.0677 12.7317 6.56428 12.5648 7.01839C12.4915 7.22347 12.3978 7.40804 12.2835 7.57209C12.1722 7.73323 12.0081 7.92659 11.7913 8.15217C11.431 8.52424 11.157 8.86701 10.9695 9.1805C10.785 9.49104 10.6443 9.82649 10.5477 10.1868C10.4656 10.5238 10.5198 10.7948 10.7103 10.9998C10.8421 11.1551 11.0091 11.2386 11.2112 11.2503C11.4163 11.262 11.598 11.1961 11.7562 11.0526C11.8265 10.991 11.8763 10.931 11.9056 10.8724C11.9378 10.8138 11.9715 10.7054 12.0066 10.5472C12.0799 10.2835 12.1824 10.0565 12.3143 9.86604C12.4461 9.67268 12.6556 9.42072 12.9427 9.11018C13.1478 8.9051 13.306 8.72492 13.4173 8.56965C13.5316 8.41145 13.6429 8.23713 13.7513 8.0467C13.9915 7.58967 14.1424 7.10921 14.2039 6.6053C14.2274 6.43831 14.2391 6.19954 14.2391 5.88899C14.2391 5.57552 14.2215 5.33528 14.1863 5.16828C14.0545 4.42415 13.7894 3.74592 13.3909 3.13362C12.9954 2.52131 12.4856 2.01154 11.8616 1.60432C11.7181 1.50765 11.5379 1.40511 11.3211 1.2967C10.5066 0.889474 9.6248 0.715157 8.67558 0.773751H8.69315ZM6.55301 12.7796C6.45633 12.803 6.36258 12.8543 6.27176 12.9334C6.18387 13.0125 6.11795 13.0916 6.074 13.1707C6.03299 13.2469 6.01248 13.3568 6.01248 13.5003C6.01248 13.6439 6.03006 13.7493 6.06522 13.8167C6.1033 13.8812 6.1575 13.95 6.22781 14.0233C6.30105 14.0936 6.36697 14.1478 6.42557 14.1859L6.53543 14.2386H11.4661L11.576 14.1859C11.6346 14.1478 11.699 14.0936 11.7693 14.0233C11.8426 13.95 11.8968 13.8812 11.9319 13.8167C11.97 13.7493 11.9891 13.6439 11.9891 13.5003C11.9891 13.3568 11.9715 13.2484 11.9363 13.1751C11.8514 13.0316 11.7313 12.9173 11.576 12.8323L11.4661 12.762H9.03593C7.4158 12.762 6.58816 12.7679 6.55301 12.7796ZM7.32645 15.7679C7.2532 15.7913 7.1741 15.8309 7.08914 15.8866C7.00711 15.9393 6.94852 15.9964 6.91336 16.0579C6.79324 16.2015 6.73904 16.367 6.75077 16.5545C6.76248 16.7391 6.84012 16.8973 6.98367 17.0291C7.09207 17.1375 7.21805 17.2034 7.36161 17.2269C7.45829 17.2503 8.00468 17.262 9.00078 17.262C9.99687 17.262 10.5433 17.2503 10.6399 17.2269C10.7835 17.2034 10.9095 17.1375 11.0179 17.0291C11.2083 16.8358 11.2801 16.6131 11.2332 16.3612C11.1863 16.1092 11.0355 15.9232 10.7806 15.8031L10.6751 15.7679L9.05352 15.7503C7.96367 15.7503 7.38798 15.7562 7.32645 15.7679Z" fill="#70737A"/>
</svg>
