<svg width="20" height="20" viewBox="0 0 20 20" fill="none" xmlns="http://www.w3.org/2000/svg">
<path d="M9.85843 3.35913C9.76728 3.37215 9.68753 3.39656 9.61917 3.43237C9.55406 3.46492 8.51727 4.48218 6.5088 6.48413C4.50358 8.48282 3.48144 9.51472 3.44238 9.57983C3.33496 9.75235 3.30078 9.94604 3.33984 10.1609C3.36588 10.252 3.39843 10.335 3.4375 10.4099C3.47981 10.4815 4.50684 11.5183 6.51857 13.5203L8.92092 15.9177C9.279 16.266 9.52477 16.4874 9.65823 16.5818C9.73961 16.6339 9.83401 16.6599 9.94143 16.6599H10C10.2279 16.6599 10.4281 16.5737 10.6006 16.4011C10.708 16.2937 10.778 16.1602 10.8106 16.0007C10.8431 15.8412 10.8334 15.6882 10.7813 15.5418C10.7552 15.4604 10.6315 15.3074 10.4102 15.0828C10.1888 14.8549 9.53941 14.2006 8.46193 13.1199C6.95477 11.6127 6.20118 10.8526 6.20118 10.8396C6.20118 10.8266 7.83367 10.8201 11.0987 10.8201H15.4004C15.8269 10.8201 16.0791 10.8038 16.1573 10.7712C16.2387 10.7354 16.3184 10.6785 16.3965 10.6003C16.4779 10.519 16.5414 10.4294 16.587 10.3318C16.6358 10.2309 16.6602 10.1202 16.6602 9.99976C16.6602 9.87932 16.6407 9.76538 16.6016 9.65796C16.5072 9.47241 16.3672 9.33244 16.1817 9.23804L16.0596 9.17944H11.1377C7.8467 9.17944 6.20118 9.17293 6.20118 9.15991C6.20118 9.14689 6.95477 8.3868 8.46193 6.87964C9.53941 5.79891 10.1888 5.14624 10.4102 4.92163C10.6315 4.69376 10.7552 4.53914 10.7813 4.45777C10.8464 4.2592 10.8448 4.06714 10.7764 3.8816C10.7113 3.6928 10.5957 3.54957 10.4297 3.4519C10.2637 3.35098 10.0733 3.32006 9.85843 3.35913Z" fill="#212125"/>
</svg>
