<svg width="16" height="16" viewBox="0 0 16 16" fill="none" xmlns="http://www.w3.org/2000/svg">
<path d="M5.82422 3.35937C5.63151 3.42448 5.48698 3.54167 5.39063 3.71094C5.35938 3.77604 5.34375 3.8724 5.34375 4C5.34375 4.12761 5.35938 4.22396 5.39063 4.28906C5.42448 4.35156 6.04297 4.98568 7.2461 6.19141L9.0547 8L7.2461 9.80859C6.04297 11.0143 5.42448 11.6497 5.39063 11.7148C5.35938 11.7773 5.34375 11.8672 5.34375 11.9844C5.34375 12.1016 5.35677 12.1927 5.38281 12.2578C5.41146 12.3203 5.46224 12.3893 5.53516 12.4648C5.61068 12.5378 5.67969 12.5885 5.74219 12.6172C5.80729 12.6432 5.89844 12.6563 6.01563 12.6563C6.13282 12.6563 6.22527 12.638 6.29298 12.6016C6.36329 12.5625 7.08856 11.8529 8.46877 10.4727C9.85159 9.08984 10.5612 8.36458 10.5977 8.29688C10.6367 8.22657 10.6563 8.1276 10.6563 8C10.6563 7.8724 10.6394 7.77735 10.6055 7.71485C10.5742 7.64974 9.86591 6.92318 8.48048 5.53516L6.83204 3.90234C6.57683 3.64714 6.40105 3.48828 6.30469 3.42578C6.22917 3.37109 6.15365 3.34375 6.07813 3.34375H6.03125C5.92448 3.34375 5.85547 3.34896 5.82422 3.35937Z" fill="#8C8F96"/>
</svg>
