<svg width="20" height="20" viewBox="0 0 20 20" fill="none" xmlns="http://www.w3.org/2000/svg">
<path d="M4.78028 4.19922C4.53939 4.2806 4.35873 4.42708 4.23829 4.63867C4.19922 4.72005 4.17969 4.8405 4.17969 5C4.17969 5.15951 4.19922 5.27995 4.23829 5.36133C4.2806 5.43945 5.05372 6.2321 6.55763 7.73926L8.81838 10L6.55763 12.2607C5.05372 13.7679 4.2806 14.5622 4.23829 14.6436C4.19922 14.7217 4.17969 14.834 4.17969 14.9805C4.17969 15.127 4.19596 15.2409 4.22852 15.3223C4.26433 15.4004 4.3278 15.4867 4.41895 15.5811C4.51335 15.6722 4.59961 15.7357 4.67773 15.7715C4.75911 15.804 4.87305 15.8203 5.01953 15.8203C5.16602 15.8203 5.27833 15.8008 5.35645 15.7617C5.43783 15.7194 6.23211 14.9463 7.73927 13.4424L10 11.1816L12.2608 13.4424C13.7679 14.9463 14.5606 15.7194 14.6387 15.7617C14.7201 15.8008 14.834 15.8203 14.9805 15.8203C15.127 15.8203 15.2393 15.804 15.3174 15.7715C15.3988 15.7357 15.4851 15.6722 15.5762 15.5811C15.6706 15.4867 15.7341 15.4004 15.7667 15.3223C15.8025 15.2409 15.8204 15.127 15.8204 14.9805C15.8204 14.834 15.7992 14.7217 15.7569 14.6436C15.7178 14.5622 14.9463 13.7679 13.4424 12.2607L11.1817 10L13.4424 7.73926C14.9463 6.2321 15.7178 5.43945 15.7569 5.36133C15.7992 5.27995 15.8204 5.15951 15.8204 5C15.8204 4.8405 15.8008 4.72005 15.7618 4.63867C15.6674 4.47917 15.5339 4.35222 15.3614 4.25782C15.306 4.23178 15.2588 4.21224 15.2198 4.19922C15.1807 4.1862 15.1075 4.17969 15 4.17969C14.8926 4.17969 14.8194 4.1862 14.7803 4.19922C14.7413 4.21224 14.6876 4.23177 14.6192 4.25782C14.5248 4.31316 13.7321 5.0879 12.2413 6.58203L10 8.81836L5.96192 4.7998C5.66569 4.51985 5.4655 4.33919 5.36134 4.25782C5.27995 4.20573 5.18555 4.17969 5.07813 4.17969H5.03906C4.9056 4.17969 4.81933 4.1862 4.78028 4.19922Z" fill="#8C8F96"/>
</svg>
