<svg width="14" height="14" viewBox="0 0 14 14" fill="none" xmlns="http://www.w3.org/2000/svg">
<path d="M10.6538 9.31055C10.8224 9.25358 10.9489 9.15104 11.0332 9.00293C11.0605 8.94596 11.0742 8.86165 11.0742 8.75C11.0742 8.63835 11.0583 8.55176 11.0264 8.49023C10.9922 8.43098 10.3713 7.79638 9.16357 6.58643C7.95361 5.37875 7.31901 4.75782 7.25977 4.72363C7.19824 4.69173 7.11165 4.67578 7 4.67578C6.88835 4.67578 6.8029 4.69173 6.74365 4.72363C6.68212 4.75781 6.04752 5.37874 4.83984 6.58643C3.62988 7.79639 3.00895 8.43099 2.97705 8.49023C2.94287 8.55176 2.92578 8.63835 2.92578 8.75C2.92578 8.86165 2.93945 8.94596 2.9668 9.00293C3.03288 9.11458 3.1263 9.20345 3.24707 9.26953C3.28581 9.28776 3.31885 9.30143 3.34619 9.31055C3.37354 9.31966 3.42481 9.32422 3.5 9.32422C3.57519 9.32422 3.62646 9.31966 3.65381 9.31055C3.68115 9.30144 3.71875 9.28776 3.7666 9.26953C3.83268 9.23079 4.38753 8.68847 5.43115 7.64258L7 6.07715L9.82666 8.89014C10.034 9.08611 10.1742 9.21257 10.2471 9.26953C10.304 9.30599 10.3701 9.32422 10.4453 9.32422H10.4727C10.5661 9.32422 10.6265 9.31966 10.6538 9.31055Z" fill="#8C8F96"/>
</svg>
