<svg width="18" height="18" viewBox="0 0 18 18" fill="none" xmlns="http://www.w3.org/2000/svg">
<path d="M4.30225 6.02929C4.08545 6.10254 3.92285 6.23437 3.81446 6.42481C3.7793 6.49805 3.76172 6.60645 3.76172 6.75C3.76172 6.89356 3.78223 7.00489 3.82324 7.08399C3.86719 7.16017 4.66553 7.97608 6.21828 9.53173C7.77395 11.0845 8.58987 11.8828 8.66603 11.9268C8.74514 11.9678 8.85647 11.9883 9.00002 11.9883C9.14358 11.9883 9.25344 11.9678 9.32962 11.9268C9.40872 11.8828 10.2246 11.0845 11.7774 9.53173C13.3331 7.97607 14.1314 7.16016 14.1724 7.08399C14.2164 7.00489 14.2383 6.89356 14.2383 6.75C14.2383 6.60645 14.2207 6.49805 14.1856 6.42481C14.1006 6.28125 13.9805 6.16699 13.8252 6.08203C13.7754 6.0586 13.733 6.04102 13.6978 6.02929C13.6626 6.01758 13.5967 6.01172 13.5 6.01172C13.4034 6.01172 13.3374 6.01758 13.3023 6.02929C13.2671 6.04101 13.2188 6.05859 13.1573 6.08203C13.0723 6.13184 12.3589 6.82911 11.0171 8.17383L9.00002 10.1865L5.36573 6.56982C5.09912 6.31786 4.91895 6.15527 4.8252 6.08203C4.75196 6.03516 4.667 6.01172 4.57032 6.01172H4.53516C4.41504 6.01172 4.3374 6.01758 4.30225 6.02929Z" fill="#B7B9BF"/>
</svg>
