<svg width="9" height="5" viewBox="0 0 9 5" fill="none" xmlns="http://www.w3.org/2000/svg">
<path d="M0.42041 0.01367C0.25179 0.0706366 0.125327 0.173177 0.0410199 0.32129C0.0136732 0.378257 0 0.462567 0 0.57422C0 0.685874 0.0159499 0.772463 0.0478499 0.83399C0.0820299 0.893237 0.702963 1.52784 1.91065 2.73779C3.12061 3.94547 3.75521 4.5664 3.81445 4.60059C3.87598 4.63249 3.96257 4.64844 4.07422 4.64844C4.18587 4.64844 4.27132 4.63249 4.33057 4.60059C4.3921 4.56641 5.0267 3.94548 6.23438 2.73779C7.44434 1.52783 8.06527 0.89323 8.09717 0.83399C8.13135 0.772463 8.14844 0.685874 8.14844 0.57422C8.14844 0.462567 8.13477 0.378257 8.10742 0.32129C8.04134 0.209637 7.94792 0.12077 7.82715 0.0546904C7.78841 0.0364637 7.75537 0.02279 7.72803 0.01367C7.70068 0.00455663 7.64941 0 7.57422 0C7.49903 0 7.44776 0.00455663 7.42041 0.01367C7.39307 0.0227833 7.35547 0.036457 7.30762 0.0546904C7.24154 0.0934304 6.68669 0.635747 5.64307 1.68164L4.07422 3.24707L1.24756 0.43408C1.0402 0.238113 0.900063 0.11165 0.82715 0.0546904C0.770183 0.0182304 0.704103 0 0.62891 0H0.60156C0.508133 0 0.44775 0.00455663 0.42041 0.01367Z" fill="#B7B9BF"/>
</svg>
