<svg width="40" height="40" viewBox="0 0 40 40" fill="none" xmlns="http://www.w3.org/2000/svg">
<path d="M32.8029 8.43752C32.6661 8.46356 32.5424 8.51889 32.4318 8.60352C32.3276 8.68165 29.3979 11.6016 23.6427 17.3633L15 25.957L11.3184 22.2754C8.86397 19.8275 7.54886 18.5645 7.37307 18.4863C7.20379 18.4017 6.9922 18.3594 6.7383 18.3594C6.48439 18.3594 6.26304 18.3952 6.07424 18.4668C5.89195 18.5319 5.71291 18.6393 5.53712 18.7891C5.36784 18.9323 5.24089 19.0951 5.15626 19.2773C5.10418 19.4141 5.07163 19.5215 5.0586 19.5996C5.04557 19.6777 5.03906 19.8112 5.03906 20V20.1172C5.01302 20.332 5.05209 20.5208 5.15626 20.6836C5.29299 20.8919 5.64129 21.2761 6.20118 21.8359C6.57227 22.2396 7.4935 23.1738 8.96488 24.6387L13.2422 28.8769C13.7761 29.3848 14.1472 29.707 14.3555 29.8437C14.4922 29.9479 14.668 29.987 14.8828 29.9609L15.1563 30C15.293 30 15.4265 29.974 15.5567 29.9219C15.7194 29.7852 16.0254 29.5117 16.4747 29.1016C16.9304 28.6849 17.6921 27.959 18.7598 26.9238L25.2833 20.4004C29.2547 16.403 31.8263 13.8184 32.9982 12.6465C34.1701 11.4681 34.7853 10.8138 34.8439 10.6836C34.922 10.5208 34.9611 10.293 34.9611 10C34.9611 9.8112 34.9546 9.67774 34.9415 9.5996C34.9285 9.52147 34.896 9.41405 34.8439 9.27735C34.7592 9.1211 34.629 8.96485 34.4532 8.8086C34.284 8.64584 34.1114 8.53191 33.9357 8.4668C33.7664 8.39518 33.5678 8.35938 33.34 8.35938C33.1121 8.35938 32.9331 8.38544 32.8029 8.43752Z" fill="white"/>
</svg>
