<svg width="24" height="24" viewBox="0 0 24 24" fill="none" xmlns="http://www.w3.org/2000/svg">
<path fill-rule="evenodd" clip-rule="evenodd" d="M7.72032 12.5299C7.57987 12.3893 7.50098 12.1987 7.50098 11.9999C7.50098 11.8012 7.57987 11.6105 7.72032 11.4699L15.2203 3.96991C15.289 3.89622 15.3718 3.83712 15.4638 3.79613C15.5558 3.75514 15.6551 3.73309 15.7558 3.73132C15.8565 3.72954 15.9565 3.74807 16.0499 3.78579C16.1433 3.82351 16.2281 3.87965 16.2994 3.95087C16.3706 4.02209 16.4267 4.10692 16.4644 4.20031C16.5022 4.2937 16.5207 4.39373 16.5189 4.49443C16.5171 4.59513 16.4951 4.69445 16.4541 4.78645C16.4131 4.87845 16.354 4.96125 16.2803 5.02991L9.31032 11.9999L16.2803 18.9699C16.354 19.0386 16.4131 19.1214 16.4541 19.2134C16.4951 19.3054 16.5171 19.4047 16.5189 19.5054C16.5207 19.6061 16.5022 19.7061 16.4644 19.7995C16.4267 19.8929 16.3706 19.9777 16.2994 20.0489C16.2281 20.1202 16.1433 20.1763 16.0499 20.214C15.9565 20.2518 15.8565 20.2703 15.7558 20.2685C15.6551 20.2667 15.5558 20.2447 15.4638 20.2037C15.3718 20.1627 15.289 20.1036 15.2203 20.0299L7.72032 12.5299Z" fill="#B0B1B4"/>
</svg>
