<svg width="18" height="18" viewBox="0 0 18 18" fill="none" xmlns="http://www.w3.org/2000/svg">
<path d="M13.6978 11.9707C13.9145 11.8975 14.0771 11.7656 14.1855 11.5752C14.2207 11.502 14.2383 11.3936 14.2383 11.25C14.2383 11.1064 14.2178 10.9951 14.1768 10.916C14.1328 10.8398 13.3345 10.0239 11.7817 8.46827C10.2261 6.91553 9.41013 6.11719 9.33397 6.07324C9.25486 6.03222 9.14353 6.01172 8.99998 6.01172C8.85642 6.01172 8.74656 6.03222 8.67038 6.07324C8.59128 6.11718 7.77535 6.91553 6.22262 8.46827C4.66695 10.0239 3.8686 10.8398 3.82759 10.916C3.78364 10.9951 3.76167 11.1064 3.76167 11.25C3.76167 11.3936 3.77925 11.502 3.81441 11.5752C3.89937 11.7187 4.01949 11.833 4.17476 11.918C4.22457 11.9414 4.26705 11.959 4.3022 11.9707C4.33736 11.9824 4.40328 11.9883 4.49996 11.9883C4.59663 11.9883 4.66255 11.9824 4.69771 11.9707C4.73286 11.959 4.7812 11.9414 4.84273 11.918C4.92769 11.8682 5.64107 11.1709 6.98287 9.82617L8.99998 7.81348L12.6343 11.4302C12.9009 11.6821 13.0811 11.8447 13.1748 11.918C13.248 11.9648 13.333 11.9883 13.4297 11.9883H13.4648C13.585 11.9883 13.6626 11.9824 13.6978 11.9707Z" fill="#B7B9BF"/>
</svg>
