<svg width="24" height="24" viewBox="0 0 24 24" fill="none" xmlns="http://www.w3.org/2000/svg">
<path fill-rule="evenodd" clip-rule="evenodd" d="M12.5298 16.2799C12.3892 16.4204 12.1986 16.4992 11.9998 16.4992C11.8011 16.4992 11.6105 16.4204 11.4698 16.2799L3.96985 8.77991C3.83737 8.63773 3.76524 8.44969 3.76867 8.25539C3.7721 8.06109 3.85081 7.8757 3.98822 7.73829C4.12564 7.60087 4.31102 7.52216 4.50532 7.51873C4.69963 7.51531 4.88767 7.58743 5.02985 7.71991L11.9998 14.6899L18.9698 7.71991C19.0385 7.64622 19.1213 7.58712 19.2133 7.54613C19.3053 7.50514 19.4046 7.48309 19.5053 7.48132C19.606 7.47954 19.7061 7.49807 19.7994 7.53579C19.8928 7.57351 19.9777 7.62965 20.0489 7.70087C20.1201 7.77209 20.1762 7.85692 20.214 7.95031C20.2517 8.0437 20.2702 8.14373 20.2684 8.24443C20.2667 8.34513 20.2446 8.44445 20.2036 8.53645C20.1626 8.62845 20.1035 8.71125 20.0298 8.77991L12.5298 16.2799Z" fill="#B0B1B4"/>
</svg>
