<svg width="24" height="24" viewBox="0 0 24 24" fill="none" xmlns="http://www.w3.org/2000/svg">
<path fill-rule="evenodd" clip-rule="evenodd" d="M19.9158 4.626C20.0813 4.73634 20.1962 4.9079 20.2352 5.10293C20.2742 5.29796 20.2342 5.50051 20.1238 5.666L11.1238 19.166C11.0623 19.2582 10.981 19.3357 10.8859 19.3927C10.7908 19.4498 10.6842 19.485 10.5738 19.4959C10.4634 19.5068 10.352 19.4931 10.2476 19.4558C10.1431 19.4185 10.0483 19.3584 9.96985 19.28L3.96985 13.28C3.83737 13.1378 3.76524 12.9498 3.76867 12.7555C3.7721 12.5612 3.85081 12.3758 3.98822 12.2384C4.12564 12.101 4.31102 12.0223 4.50532 12.0188C4.69963 12.0154 4.88767 12.0875 5.02985 12.22L10.3828 17.573L18.8758 4.833C18.9863 4.66768 19.158 4.553 19.353 4.51419C19.548 4.47537 19.7505 4.51559 19.9158 4.626Z" fill="#B0B1B4"/>
</svg>
