<svg width="14" height="10" viewBox="0 0 14 10" fill="none" xmlns="http://www.w3.org/2000/svg">
<path d="M12.4972 0.0351642C12.4357 0.0468814 12.38 0.0717813 12.3302 0.109864C12.2833 0.145024 10.965 1.45899 8.37513 4.05176L4.48596 7.91895L2.82922 6.26221C1.72473 5.16065 1.13293 4.59228 1.05382 4.55712C0.977645 4.51904 0.882429 4.5 0.768171 4.5C0.653913 4.5 0.554304 4.51611 0.469344 4.54834C0.387315 4.57764 0.306747 4.62598 0.227641 4.69336C0.151467 4.75782 0.0943379 4.83106 0.0562549 4.91309C0.0328205 4.97461 0.0181718 5.02295 0.012309 5.0581C0.00644607 5.09326 0.00351464 5.15332 0.00351464 5.23828V5.29102C-0.00820255 5.3877 0.00937757 5.47266 0.0562549 5.5459C0.117781 5.63966 0.274519 5.81251 0.526468 6.06446C0.693458 6.24609 1.10801 6.66651 1.77013 7.32569L3.69495 9.23291C3.93518 9.46142 4.10217 9.60644 4.19591 9.66797C4.25744 9.71484 4.33654 9.73242 4.43322 9.72071L4.55627 9.73828C4.6178 9.73828 4.67786 9.72657 4.73644 9.70313C4.80969 9.64161 4.94738 9.51856 5.14953 9.33399C5.35461 9.14649 5.69739 8.81983 6.17786 8.354L9.11342 5.41846C10.9005 3.61964 12.0578 2.45655 12.5851 1.9292C13.1125 1.39893 13.3893 1.1045 13.4157 1.0459C13.4508 0.97266 13.4684 0.87012 13.4684 0.738283C13.4684 0.653323 13.4655 0.593263 13.4596 0.558103C13.4538 0.522943 13.4391 0.474604 13.4157 0.413087C13.3776 0.342776 13.319 0.272464 13.2399 0.202153C13.1637 0.12891 13.0861 0.07764 13.007 0.0483429C12.9308 0.0161143 12.8415 0 12.7389 0C12.6364 0 12.5558 0.0117299 12.4972 0.0351642Z" fill="#08257E"/>
</svg>
