<svg width="22" height="22" viewBox="0 0 22 22" fill="none" xmlns="http://www.w3.org/2000/svg">
<rect width="22" height="22" rx="11" fill="#08257E"/>
<path d="M16.1223 6.70313C16.0676 6.71355 16.0181 6.73568 15.9739 6.76953C15.9322 6.80079 14.7603 7.96876 12.4582 10.2734L9.00119 13.7109L7.52853 12.2383C6.54676 11.2591 6.02072 10.7539 5.9504 10.7227C5.88269 10.6888 5.79805 10.6719 5.69649 10.6719C5.59493 10.6719 5.50639 10.6862 5.43087 10.7148C5.35795 10.7409 5.28634 10.7839 5.21602 10.8437C5.14831 10.901 5.09753 10.9661 5.06368 11.0391C5.04285 11.0938 5.02982 11.1367 5.02461 11.168C5.0194 11.1992 5.0168 11.2526 5.0168 11.3281V11.375C5.00638 11.4609 5.02201 11.5365 5.06368 11.6016C5.11837 11.6849 5.25769 11.8385 5.48164 12.0625C5.63008 12.224 5.99857 12.5977 6.58712 13.1836L8.29807 14.8789C8.51161 15.082 8.66004 15.2109 8.74337 15.2656C8.79806 15.3073 8.86838 15.3229 8.95431 15.3125L9.06369 15.3281C9.11838 15.3281 9.17177 15.3177 9.22384 15.2969C9.28895 15.2422 9.41135 15.1328 9.59103 14.9688C9.77333 14.8021 10.078 14.5117 10.5051 14.0977L13.1145 11.4883C14.703 9.88933 15.7317 8.85547 16.2004 8.38672C16.6692 7.91537 16.9153 7.65365 16.9387 7.60157C16.97 7.53646 16.9856 7.44531 16.9856 7.32813C16.9856 7.25261 16.983 7.19922 16.9778 7.16797C16.9726 7.13671 16.9596 7.09375 16.9387 7.03906C16.9049 6.97656 16.8528 6.91407 16.7825 6.85157C16.7148 6.78646 16.6457 6.74089 16.5754 6.71485C16.5077 6.6862 16.4283 6.67188 16.3372 6.67188C16.246 6.67188 16.1744 6.6823 16.1223 6.70313Z" fill="white"/>
</svg>
