<svg width="18" height="18" viewBox="0 0 18 18" fill="none" xmlns="http://www.w3.org/2000/svg">
<path d="M5.8843 0.773488C5.77883 0.785205 5.67482 0.827685 5.57228 0.900928C5.46974 0.971239 5.38771 1.05474 5.32619 1.15142C5.29103 1.22467 5.26759 1.31256 5.25588 1.4151C5.24416 1.51471 5.2383 1.66705 5.2383 1.87212V2.25005L3.52882 2.26763C3.4087 2.27935 3.30616 2.29107 3.2212 2.30279C2.79053 2.42291 2.42432 2.63971 2.12256 2.95318C1.82374 3.26373 1.63184 3.64165 1.54687 4.08697C1.52344 4.16899 1.51172 4.51616 1.51172 5.12847V15.4073L1.58203 15.605C1.7168 16.0503 1.95704 16.4195 2.30275 16.7125C2.65138 17.0054 3.05421 17.1768 3.51124 17.2266C3.64308 17.2501 5.47268 17.2618 9.00003 17.2618C12.5274 17.2618 14.357 17.2501 14.4888 17.2266C14.7525 17.2032 15.0045 17.1314 15.2447 17.0113C15.523 16.8794 15.7632 16.6905 15.9654 16.4444C16.1705 16.1983 16.3214 15.9185 16.418 15.605L16.4883 15.4073V5.12847C16.4883 4.51616 16.4766 4.16899 16.4532 4.08697C16.3682 3.64165 16.1749 3.26373 15.8731 2.95318C15.5743 2.63971 15.2095 2.42291 14.7789 2.30279C14.6939 2.29108 14.5914 2.27935 14.4712 2.26763L12.7618 2.25005V1.87212C12.7618 1.59673 12.7471 1.4019 12.7178 1.28764C12.6885 1.17339 12.6255 1.06792 12.5289 0.971243C12.4087 0.851123 12.2549 0.782278 12.0674 0.764706C11.8829 0.747126 11.7217 0.786675 11.584 0.883352C11.4463 0.977106 11.3526 1.10308 11.3028 1.26129C11.2794 1.30816 11.2647 1.36529 11.2588 1.43267C11.253 1.49713 11.25 1.62604 11.25 1.81939V2.25005H6.75002V1.80181C6.75002 1.59673 6.74709 1.4649 6.74123 1.4063C6.73537 1.34478 6.72072 1.29058 6.69728 1.24371C6.62404 1.06207 6.51564 0.930238 6.37209 0.8482C6.22853 0.76324 6.06594 0.738336 5.8843 0.773488ZM5.2383 4.21001C5.25002 4.42681 5.25881 4.56304 5.26467 4.61871C5.27053 4.67144 5.28518 4.73443 5.30862 4.80767C5.35843 4.8897 5.41848 4.96734 5.48878 5.04058C5.67042 5.20757 5.88722 5.27056 6.13918 5.22954C6.39114 5.18853 6.57131 5.05376 6.67971 4.82525C6.70314 4.75201 6.71779 4.69195 6.72365 4.64507C6.72952 4.59526 6.73831 4.45756 6.75002 4.23198V3.76177H11.25V4.23198C11.2618 4.45756 11.2706 4.59526 11.2764 4.64507C11.2823 4.69195 11.2969 4.75201 11.3204 4.82525C11.4288 5.05376 11.6089 5.18853 11.8609 5.22954C12.1128 5.27056 12.3296 5.20757 12.5113 5.04058C12.5816 4.96734 12.6417 4.8897 12.6915 4.80767C12.7149 4.73443 12.7295 4.67144 12.7354 4.61871C12.7413 4.56305 12.7501 4.42681 12.7618 4.21001V3.76177H14.4537L14.5635 3.81451C14.6338 3.85259 14.7012 3.90532 14.7657 3.9727C14.8331 4.03716 14.8843 4.10601 14.9195 4.17925C14.9576 4.24957 14.9825 4.36968 14.9942 4.5396C15.0059 4.70659 15.0118 5.07134 15.0118 5.63385V6.75005H2.98829L3.00587 4.5352C3.01758 4.39165 3.0293 4.3023 3.04102 4.26715C3.12598 4.03863 3.27686 3.88189 3.49367 3.79693C3.54055 3.78522 3.61232 3.7735 3.709 3.76177H5.2383V4.21001ZM14.9942 11.6983C14.9942 13.3184 14.9913 14.3057 14.9854 14.6602C14.9796 15.0147 14.9708 15.2095 14.9591 15.2447C14.8741 15.4615 14.7232 15.6124 14.5064 15.6973L14.3834 15.7501H3.61671L3.49367 15.6973C3.36183 15.6475 3.24757 15.5626 3.15088 15.4424L3.11573 15.4073C3.07765 15.3604 3.05274 15.2945 3.04102 15.2095C3.01758 15.0894 3.00587 14.8316 3.00587 14.4361L2.98829 8.26177H15.0118L14.9942 11.6983Z" fill="#B7B9BF"/>
</svg>
