<svg width="16" height="16" viewBox="0 0 16 16" fill="none" xmlns="http://www.w3.org/2000/svg">
<g clip-path="url(#clip0_499_226)">
<path d="M7.84035 1.3252C7.48897 1.34601 7.15321 1.46311 6.83307 1.67648C6.74718 1.74154 6.65348 1.8274 6.55197 1.93408C6.45046 2.04077 6.37368 2.13054 6.32162 2.2034C6.23573 2.3309 5.30263 3.95461 3.52231 7.07453C1.742 10.1918 0.836232 11.7869 0.805003 11.8598C0.708703 12.0836 0.660549 12.3295 0.660542 12.5975C0.650132 12.7458 0.652736 12.8707 0.668355 12.9722C0.683973 13.0737 0.713904 13.1881 0.758147 13.3157C0.875274 13.6461 1.06658 13.9258 1.33206 14.1548C1.59754 14.3838 1.90728 14.536 2.26126 14.6115C2.32373 14.6323 2.6647 14.6427 3.28416 14.6427H7.9848H12.8143C13.3374 14.6427 13.6407 14.6323 13.724 14.6115C14.1092 14.5256 14.4397 14.3435 14.7156 14.0651C15.1112 13.6721 15.3091 13.2038 15.3091 12.6599C15.3091 12.3399 15.2401 12.0419 15.1021 11.7661C15.0579 11.6906 14.156 10.1138 12.3965 7.0355C10.6396 3.95461 9.72867 2.36083 9.66361 2.25415C9.52566 2.03036 9.33696 1.83911 9.09749 1.68038C8.85804 1.51905 8.60947 1.41106 8.3518 1.35642C8.1722 1.32519 8.00172 1.31478 7.84035 1.3252ZM8.27371 2.71472C8.34659 2.75896 8.40645 2.811 8.45331 2.87083C8.50276 2.92808 9.42545 4.52838 11.2214 7.67171C13.0199 10.815 13.9296 12.4192 13.9504 12.4843C14.0025 12.656 13.9829 12.8213 13.8918 12.98C13.8033 13.1387 13.668 13.2454 13.4858 13.3C13.4337 13.3104 13.1084 13.3157 12.5098 13.3157H2.49941L2.37058 13.2532C2.22222 13.1881 2.1103 13.0763 2.03482 12.9175C2.00359 12.8421 1.98797 12.7536 1.98797 12.6521C1.98797 12.5506 2.00619 12.4635 2.04262 12.3906C2.08167 12.3151 2.97963 10.7344 4.73652 7.64829C6.49601 4.5622 7.39787 2.98794 7.44212 2.92549C7.52801 2.80839 7.65294 2.72903 7.81692 2.68739C7.9809 2.64315 8.13316 2.65746 8.27371 2.73033V2.71472ZM7.80911 5.35323C7.6165 5.41829 7.47205 5.53538 7.37575 5.70452L7.3289 5.8021V8.61626C7.3289 8.75417 7.34191 8.85565 7.36794 8.92071C7.39657 8.98316 7.44212 9.04692 7.50459 9.11197C7.56966 9.17442 7.64123 9.22516 7.71932 9.26419C7.80001 9.30062 7.8885 9.31883 7.9848 9.31883C8.0811 9.31883 8.16829 9.30062 8.24638 9.26419C8.32707 9.22516 8.39864 9.17442 8.46111 9.11197C8.52618 9.04692 8.57173 8.98316 8.59776 8.92071C8.62639 8.85566 8.64071 8.75418 8.64071 8.61626V5.8021L8.59385 5.70452C8.51837 5.56661 8.41166 5.46513 8.27371 5.40008C8.20864 5.36885 8.12275 5.35063 8.01603 5.34544C7.90931 5.34023 7.84034 5.34283 7.80911 5.35323ZM7.87158 10.6771C7.73363 10.6979 7.6113 10.7617 7.50459 10.8684C7.34581 11.0297 7.28725 11.2223 7.3289 11.446C7.37054 11.6698 7.49287 11.8299 7.69589 11.9261C7.77137 11.9574 7.86767 11.973 7.9848 11.973C8.17741 11.973 8.33748 11.9092 8.46502 11.7817C8.56132 11.6854 8.61988 11.5683 8.64071 11.4304C8.68235 11.2067 8.62249 11.0154 8.46111 10.8567C8.30234 10.6953 8.10583 10.6355 7.87158 10.6771Z" fill="#EE4E4E"/>
</g>
<defs>
<clipPath id="clip0_499_226">
<rect width="14.6548" height="13.3214" fill="white" transform="translate(0.654297 1.32129)"/>
</clipPath>
</defs>
</svg>
