<svg width="16" height="16" viewBox="0 0 16 16" fill="none" xmlns="http://www.w3.org/2000/svg">
<path d="M5.53518 1.37461C4.91798 1.46055 4.37371 1.69622 3.90236 2.08164C3.43361 2.46445 3.09246 2.93841 2.87891 3.50352C2.74089 3.87591 2.67188 4.26523 2.67188 4.67148C2.67188 4.88502 2.68751 5.07773 2.71876 5.24961C2.75262 5.41888 2.806 5.60508 2.87891 5.8082C2.9961 6.15977 3.17449 6.48269 3.41407 6.77696C3.65626 7.06862 3.931 7.31081 4.2383 7.50352C4.51695 7.67539 4.79689 7.79909 5.07815 7.87461C5.362 7.94753 5.66929 7.98398 6.00002 7.98398C6.1719 7.98398 6.30992 7.97878 6.41408 7.96836C6.52086 7.95795 6.65498 7.93581 6.81644 7.90195C7.27477 7.78476 7.69534 7.57252 8.07816 7.26523C8.46358 6.95533 8.76826 6.58163 8.99222 6.14413C9.14065 5.84465 9.24222 5.50872 9.29692 5.13633C9.31775 5.02955 9.32816 4.87461 9.32816 4.67148C9.32816 4.46836 9.31775 4.31341 9.29692 4.20664C9.2214 3.70664 9.04431 3.2483 8.76566 2.83164C8.48962 2.41497 8.13285 2.07382 7.69534 1.8082C7.36462 1.60508 6.99092 1.46576 6.57424 1.39024C6.45705 1.36941 6.28388 1.35638 6.05471 1.35117C5.82554 1.34596 5.65236 1.35378 5.53518 1.37461ZM6.22268 2.6871C6.53257 2.70794 6.83075 2.81731 7.11722 3.01523C7.40628 3.21315 7.62763 3.46445 7.78128 3.76914C7.93753 4.07122 8.00784 4.40716 7.99221 4.77696C7.97659 5.14414 7.86721 5.47226 7.66409 5.76132C7.5469 5.94101 7.40237 6.09856 7.2305 6.23398C7.06122 6.3668 6.88544 6.46966 6.70315 6.54258C6.55471 6.58685 6.44534 6.6168 6.37503 6.63242C6.30732 6.64805 6.18232 6.65586 6.00002 6.65586C5.81773 6.65586 5.69143 6.64805 5.62112 6.63242C5.55341 6.61679 5.44534 6.58685 5.2969 6.54258C4.99742 6.43581 4.7383 6.25742 4.51955 6.00742C4.3008 5.75742 4.14845 5.47747 4.06252 5.16757C3.97918 4.81601 3.98439 4.46965 4.07814 4.12851C4.17449 3.78737 4.34767 3.4944 4.59767 3.24961C4.85028 3.00221 5.15236 2.83034 5.50393 2.73398C5.56904 2.71315 5.66278 2.69493 5.78518 2.6793C5.90757 2.66367 5.9896 2.66107 6.03127 2.67148L6.22268 2.6871ZM11.2305 4.67148C11.0066 4.70274 10.8438 4.82253 10.7422 5.03085C10.6433 5.23919 10.6472 5.44492 10.754 5.64804C10.7748 5.70013 10.9987 5.93971 11.4258 6.3668L12.0469 6.99179L11.4258 7.63242C10.9987 8.0595 10.7748 8.29909 10.754 8.35117C10.6472 8.5543 10.6407 8.75742 10.7344 8.96054C10.8308 9.16367 10.9909 9.28606 11.2149 9.32773C11.3659 9.34856 11.5105 9.32773 11.6485 9.26523C11.7006 9.23138 11.9402 9.00091 12.3672 8.57382L13.0079 7.95273L13.6329 8.57382C14.06 9.00091 14.2995 9.23138 14.3516 9.26523C14.5548 9.35898 14.7579 9.35898 14.961 9.26523C15.1641 9.16888 15.2813 9.00872 15.3126 8.78476C15.3438 8.63372 15.3282 8.48919 15.2657 8.35117C15.2318 8.29909 15.0014 8.0595 14.5743 7.63242L13.9532 6.99179L14.5743 6.3668C15.0014 5.93971 15.2318 5.70013 15.2657 5.64804C15.3386 5.48659 15.3477 5.31601 15.293 5.13633C15.241 4.95403 15.1355 4.82643 14.9766 4.75352C14.8803 4.69883 14.7709 4.67148 14.6485 4.67148C14.5261 4.67148 14.4219 4.69883 14.336 4.75352C14.2839 4.78477 14.0495 5.00873 13.6329 5.42539L13.0079 6.04649L12.3672 5.42539C11.9506 5.00872 11.7123 4.78476 11.6524 4.75352C11.5951 4.71966 11.5026 4.69232 11.375 4.67148C11.3438 4.67148 11.2956 4.67148 11.2305 4.67148ZM3.53517 9.37461C2.80079 9.48139 2.17188 9.79649 1.64844 10.3199C1.23177 10.7366 0.944013 11.2379 0.785155 11.8238C0.730466 12.0061 0.697913 12.1741 0.687498 12.3277C0.677083 12.4814 0.671875 12.7939 0.671875 13.2652V14.1441L0.718755 14.273C0.76303 14.346 0.816413 14.415 0.878904 14.4801C1.04036 14.6285 1.23307 14.6845 1.45703 14.648C1.681 14.6116 1.84115 14.4918 1.9375 14.2887L1.98438 14.1754L2.00001 13.2652C2.01042 12.7939 2.02084 12.4996 2.03125 12.3824C2.04167 12.2652 2.06901 12.1324 2.11329 11.984C2.22006 11.6949 2.39845 11.4358 2.64844 11.2066C2.89845 10.9775 3.1784 10.8199 3.4883 10.734C3.60549 10.7027 3.80992 10.6819 4.10158 10.6715C4.39585 10.6611 5.02867 10.6559 6.00002 10.6559C6.97138 10.6559 7.60289 10.6611 7.89456 10.6715C8.18883 10.6819 8.39456 10.7027 8.51175 10.734C8.83206 10.8199 9.11982 10.984 9.37503 11.2262C9.63285 11.4657 9.80863 11.7392 9.90238 12.0465C9.94666 12.1741 9.9714 12.2978 9.9766 12.4176C9.98181 12.5348 9.98963 12.8173 10 13.2652L10.0157 14.1754L10.0625 14.2887C10.1589 14.4918 10.3191 14.6116 10.543 14.648C10.767 14.6845 10.9597 14.6285 11.1211 14.4801C11.1836 14.415 11.237 14.346 11.2813 14.273L11.3282 14.1441V13.2652C11.3282 12.7939 11.323 12.4814 11.3126 12.3277C11.3021 12.1741 11.2696 12.0061 11.2149 11.8238C11.1524 11.579 11.0625 11.3447 10.9454 11.1207C10.7422 10.7249 10.461 10.3811 10.1016 10.0894C9.74484 9.79518 9.35421 9.58945 8.92973 9.47226L8.87894 9.45664C8.75133 9.41236 8.63936 9.38502 8.54301 9.37461C8.42582 9.3642 8.21227 9.35899 7.90237 9.35898L6.06253 9.34336C4.49481 9.34336 3.65236 9.35377 3.53517 9.37461Z" fill="#EE4E4E"/>
</svg>
