<svg width="18" height="18" viewBox="0 0 18 18" fill="none" xmlns="http://www.w3.org/2000/svg">
<path d="M4.28468 0.773433C3.78077 0.808593 3.34278 1.00049 2.97071 1.34912C2.59864 1.69776 2.37012 2.12403 2.28515 2.62793C2.26172 2.77149 2.25 4.89551 2.25 9C2.25 13.1045 2.26172 15.2285 2.28515 15.3721C2.37011 15.8291 2.5708 16.2261 2.88722 16.563C3.20655 16.897 3.59474 17.1123 4.05177 17.209C4.14552 17.2207 4.43263 17.2324 4.9131 17.2441H9.00003H13.087C13.5674 17.2324 13.8545 17.2207 13.9483 17.209C14.4053 17.1123 14.792 16.897 15.1085 16.563C15.4278 16.2261 15.6299 15.8291 15.7149 15.3721C15.7383 15.2285 15.7501 13.5996 15.7501 10.4853C15.7501 7.37109 15.7383 5.74218 15.7149 5.59863C15.6417 5.15332 15.4673 4.75781 15.192 4.41211C15.0953 4.29199 14.5606 3.7456 13.5879 2.77295C12.8204 2.01709 12.3457 1.55859 12.1641 1.39745C11.9854 1.23339 11.8067 1.10888 11.628 1.02393C11.3643 0.892091 11.0757 0.808593 10.7623 0.773433C10.6421 0.749998 9.57425 0.738281 7.55862 0.738281C5.54299 0.738281 4.45168 0.749998 4.28468 0.773433ZM9.75589 3.88916V5.52393L9.80863 5.7041C9.88187 5.89746 9.98734 6.07177 10.125 6.22705C10.2627 6.38232 10.4151 6.50244 10.5821 6.58741C10.7022 6.64893 10.7989 6.68555 10.8721 6.69726C10.9805 6.72069 11.1548 6.73827 11.3951 6.75H14.2383V14.6162C14.2383 14.9883 14.2222 15.2109 14.19 15.2842C14.1607 15.3545 14.1094 15.4292 14.0362 15.5083C13.9659 15.5845 13.8956 15.6416 13.8252 15.6797L13.6978 15.7324H4.30225L4.17481 15.6797C4.1045 15.6416 4.03272 15.5845 3.95948 15.5083C3.88917 15.4292 3.8379 15.3545 3.80567 15.2842C3.77637 15.2109 3.76172 14.9106 3.76172 14.3833V9V3.6167C3.76172 3.08936 3.77344 2.79639 3.79688 2.73779C3.84668 2.62939 3.91847 2.52978 4.01222 2.43896C4.1089 2.34814 4.21143 2.29101 4.31983 2.26757C4.39307 2.25586 5.31153 2.25 7.07522 2.25H9.73832L9.75589 3.88916ZM12.5992 3.90673L13.9307 5.23828H11.25V3.90673C11.25 3.01904 11.25 2.56934 11.25 2.55762L12.5992 3.90673ZM5.76125 6.04687C5.60305 6.09668 5.47853 6.1875 5.38771 6.31934C5.29982 6.45117 5.25587 6.59473 5.25587 6.75C5.25587 6.95508 5.33351 7.13525 5.48878 7.29053C5.56202 7.36084 5.62794 7.40917 5.68654 7.43554C5.74806 7.45897 5.85646 7.47656 6.01173 7.48828C6.12013 7.48828 6.36622 7.48828 6.75002 7.48828C7.13381 7.48828 7.3799 7.48828 7.48831 7.48828C7.64358 7.47656 7.75051 7.45898 7.80911 7.43554C7.87063 7.40917 7.93802 7.36084 8.01126 7.29053C8.16653 7.13525 8.24417 6.95508 8.24417 6.75C8.24417 6.54492 8.17239 6.3706 8.02883 6.22705C7.96731 6.16845 7.89553 6.11426 7.8135 6.06446L7.70364 6.01172H6.7676C6.14357 6.01172 5.80812 6.02343 5.76125 6.04687ZM5.81398 9.01757C5.69386 9.05273 5.5796 9.12451 5.4712 9.23291C5.32765 9.36474 5.25294 9.52441 5.24708 9.71191C5.24121 9.89648 5.29542 10.062 5.40968 10.2085C5.52394 10.352 5.67629 10.4414 5.86672 10.4766C5.95168 10.5 6.99611 10.5117 9.00003 10.5117C11.0039 10.5117 12.0484 10.5 12.1333 10.4766C12.3355 10.4414 12.4937 10.3403 12.608 10.1733C12.7222 10.0034 12.7618 9.81592 12.7266 9.61084C12.7149 9.52881 12.6929 9.4585 12.6607 9.39991C12.6314 9.33838 12.5831 9.27832 12.5157 9.21973C12.4512 9.1582 12.3838 9.1084 12.3135 9.07031L12.1861 9.01757L9.05277 9C6.95218 9 5.87258 9.00586 5.81398 9.01757ZM5.88429 12.0059C5.63233 12.0527 5.44923 12.1904 5.33497 12.4189C5.22364 12.6475 5.22072 12.876 5.32619 13.1045C5.36427 13.1631 5.41554 13.2231 5.48 13.2847C5.54738 13.3433 5.61622 13.3916 5.68654 13.4297L5.81398 13.4824H12.1861L12.3135 13.4297C12.3838 13.3916 12.4512 13.3433 12.5157 13.2847C12.583 13.2231 12.6314 13.1631 12.6607 13.1045C12.6929 13.043 12.7149 12.9653 12.7266 12.8716C12.7618 12.7017 12.7398 12.5449 12.6607 12.4014C12.5845 12.2578 12.4629 12.1436 12.2959 12.0586L12.1685 12.0059H9.07035C7.01955 12.0059 5.95754 12.0059 5.88429 12.0059Z" fill="#70737A"/>
</svg>
