<svg width="14" height="14" viewBox="0 0 14 14" fill="none" xmlns="http://www.w3.org/2000/svg">
<path d="M8.59619 1.18945C8.521 1.20768 8.44808 1.24755 8.37744 1.30908C8.30908 1.37061 8.25781 1.43213 8.22363 1.49365C8.19173 1.5529 8.17578 1.63835 8.17578 1.75C8.17578 1.86165 8.18945 1.94368 8.2168 1.99609C8.24642 2.04622 8.28857 2.09977 8.34326 2.15674C8.40023 2.21143 8.4515 2.25358 8.49707 2.2832L8.58252 2.32422H10.835L8.09033 5.08252C6.85074 6.32438 6.0817 7.09912 5.7832 7.40674C5.4847 7.71436 5.3252 7.8864 5.30469 7.92285C5.23177 8.08236 5.22721 8.23731 5.29102 8.3877C5.3571 8.53581 5.46419 8.64291 5.6123 8.70898C5.76269 8.77278 5.91764 8.76822 6.07715 8.69531C6.11361 8.6748 6.28565 8.5153 6.59326 8.2168C6.90088 7.9183 7.67562 7.14926 8.91748 5.90967L11.6758 3.16504V5.41748L11.7168 5.50293C11.7464 5.5485 11.7886 5.59977 11.8433 5.65674C11.9002 5.71143 11.9538 5.75358 12.0039 5.7832C12.0563 5.81055 12.1383 5.82422 12.25 5.82422C12.3617 5.82422 12.4425 5.81055 12.4927 5.7832C12.5451 5.75358 12.5986 5.71143 12.6533 5.65674C12.7103 5.59977 12.7536 5.5485 12.7832 5.50293L12.8242 5.41748V1.56885L12.7832 1.4834C12.7536 1.43783 12.7126 1.38997 12.6602 1.33984C12.61 1.28743 12.5622 1.24642 12.5166 1.2168L12.4312 1.17578H10.5273C9.26725 1.17578 8.62353 1.18034 8.59619 1.18945ZM2.60449 2.95313C2.26725 3.0101 1.97444 3.15593 1.72607 3.39063C1.47998 3.62305 1.31022 3.9113 1.2168 4.25537C1.19857 4.31234 1.18946 4.5083 1.18945 4.84326L1.17578 7.88184L1.18945 10.9067C1.18945 11.2417 1.19857 11.4377 1.2168 11.4946C1.31023 11.8205 1.46631 12.0939 1.68506 12.3149C1.90609 12.5337 2.17952 12.6898 2.50537 12.7832C2.56234 12.8014 2.7583 12.8105 3.09326 12.8106L6.11816 12.8242L9.15674 12.8106C9.4917 12.8106 9.68766 12.8014 9.74463 12.7832C10.3986 12.6055 10.8281 12.1851 11.0332 11.522C11.0514 11.465 11.0605 11.3488 11.0606 11.1733L11.0742 7.4751L11.0469 7.37939C10.9899 7.23812 10.8919 7.12988 10.7529 7.05469C10.7051 7.03646 10.6675 7.02507 10.6401 7.02051C10.6128 7.01595 10.5661 7.01367 10.5 7.01367C10.3975 7.01367 10.3177 7.0262 10.2607 7.05127C10.2061 7.07406 10.1502 7.11393 10.0933 7.1709C10.0386 7.22559 9.99642 7.28027 9.9668 7.33496L9.92578 7.43408L9.91211 11.2144L9.87109 11.3135C9.77766 11.498 9.63297 11.6097 9.43701 11.6484C9.37093 11.6667 8.26693 11.6758 6.125 11.6758C3.98307 11.6758 2.87907 11.6667 2.81299 11.6484C2.61702 11.6097 2.47233 11.498 2.37891 11.3135L2.33789 11.2144V4.53564L2.37891 4.43652C2.44499 4.29752 2.54753 4.19498 2.68652 4.12891L2.78564 4.08789L6.56592 4.07422L6.66504 4.0332C6.71973 4.00358 6.77442 3.96143 6.8291 3.90674C6.88607 3.84977 6.92822 3.79167 6.95557 3.73242C6.98519 3.67089 6.99772 3.59114 6.99316 3.49316C6.9886 3.39518 6.97151 3.31657 6.94189 3.25732C6.91454 3.19579 6.87011 3.13769 6.80859 3.08301C6.74934 3.02604 6.69124 2.98617 6.63428 2.96338C6.57959 2.93831 6.46338 2.92578 6.28564 2.92578H4.62109C3.35188 2.92578 2.67968 2.9349 2.60449 2.95313Z" fill="white"/>
</svg>
