<svg width="20" height="20" viewBox="0 0 20 20" fill="none" xmlns="http://www.w3.org/2000/svg">
<path d="M1.5378 0.8595C1.25784 0.885538 1.05439 1.02877 0.927438 1.28919C0.803742 1.54961 0.808628 1.80677 0.942095 2.06067C0.968133 2.12578 1.50362 2.68242 2.54855 3.7306C3.59673 4.77552 4.1078 5.30612 4.08175 5.3224L3.79855 5.56166C3.56092 5.7472 3.28097 6.00762 2.9587 6.3429C2.63969 6.67493 2.36951 6.98743 2.14816 7.2804C1.93006 7.57337 1.70707 7.91354 1.4792 8.30091C1.25133 8.68829 1.07881 9.04148 0.961624 9.36049C0.815137 9.73484 0.787466 10.088 0.878609 10.4201C0.97301 10.713 1.14228 11.0841 1.38643 11.5333C1.63383 11.9793 1.89099 12.3813 2.15791 12.7394C2.37276 13.0193 2.64295 13.3302 2.96848 13.672C3.29725 14.0105 3.60161 14.2872 3.88156 14.5021C4.933 15.355 6.10487 15.962 7.39719 16.3234C8.69277 16.6814 9.99974 16.7677 11.3181 16.5822C12.2524 16.4487 13.1459 16.1883 13.9988 15.8009L14.4187 15.6202L16.1375 17.3195C17.2735 18.4523 17.8741 19.0398 17.9392 19.0822C18.1118 19.1603 18.2924 19.1863 18.4812 19.1603C18.7612 19.1082 18.9597 18.9552 19.0769 18.7013C19.1974 18.4474 19.199 18.1935 19.0818 17.9396C19.0395 17.8875 16.2384 15.075 10.6785 9.50209C5.11855 3.92591 2.27836 1.09877 2.15791 1.02064C1.98539 0.874158 1.77868 0.820443 1.5378 0.8595ZM9.57982 3.3595C9.16641 3.37252 8.88321 3.40019 8.73021 3.44251C8.57722 3.48158 8.45352 3.55482 8.35911 3.66224C8.16054 3.86081 8.08404 4.10007 8.12963 4.38002C8.1752 4.65997 8.33796 4.86667 8.6179 5.00013C8.69928 5.02617 8.7888 5.04244 8.88646 5.04896C8.98737 5.05547 9.19246 5.04571 9.5017 5.01966C10.2081 4.96757 10.934 5.02128 11.6794 5.18079C12.9197 5.43469 14.046 5.96529 15.0584 6.77259C16.074 7.57662 16.8471 8.5597 17.3777 9.72182L17.4998 10.0001L17.4021 10.2199C17.1743 10.7146 16.8862 11.2078 16.5379 11.6993C16.4207 11.8719 16.3409 12.0053 16.2986 12.0997C16.2595 12.1941 16.2465 12.3016 16.2595 12.422C16.2856 12.741 16.4451 12.9738 16.7381 13.1202C16.8194 13.1593 16.9334 13.1788 17.0799 13.1788C17.2654 13.1788 17.4184 13.1365 17.5388 13.0519C17.6593 12.964 17.8188 12.7801 18.0174 12.5001C18.2713 12.1258 18.5073 11.7254 18.7254 11.299C18.9467 10.8725 19.0802 10.5503 19.1258 10.3322C19.1746 10.1108 19.1795 9.9041 19.1404 9.71204C19.1014 9.51673 18.9939 9.24004 18.8181 8.88197C18.4991 8.18861 18.0825 7.53268 17.5681 6.91419C17.0571 6.29244 16.4874 5.7472 15.8591 5.27844C15.2862 4.85202 14.6726 4.49231 14.0183 4.19934C13.3673 3.90637 12.7016 3.68665 12.0212 3.54017C11.5004 3.43275 11.0333 3.37253 10.6199 3.3595L10.1218 3.33997C10.0144 3.33997 9.83373 3.34648 9.57982 3.3595ZM6.22043 7.40247L7.11888 8.32044L7.02122 8.54017C6.90078 8.76804 6.81614 8.98288 6.76731 9.1847C6.72173 9.38327 6.69244 9.62579 6.67942 9.91224C6.6664 10.1987 6.68593 10.4656 6.73802 10.713C6.79336 10.9572 6.88776 11.2062 7.02122 11.4601C7.24583 11.9549 7.57461 12.3585 8.00755 12.671C8.44376 12.9835 8.9353 13.1935 9.48217 13.3009C9.64168 13.327 9.85327 13.3335 10.1169 13.3204C10.3839 13.3074 10.6166 13.2781 10.8152 13.2326C11.017 13.1837 11.2318 13.0991 11.4597 12.9786L11.6794 12.881L12.4216 13.5988C12.9001 14.0935 13.1394 14.3442 13.1394 14.3507C13.1394 14.3572 13.0629 14.3914 12.9099 14.4533C12.7569 14.5118 12.6007 14.5672 12.4412 14.6193C11.7478 14.8471 11.0072 14.9741 10.2195 15.0001C8.91413 15.0392 7.66738 14.7723 6.47922 14.1993C5.29432 13.6264 4.30148 12.8126 3.50069 11.7579C3.22074 11.3868 2.96032 10.9539 2.71945 10.4591L2.49972 10.0001L2.62179 9.72182C3.19471 8.49461 4.01339 7.4741 5.07786 6.66029C5.21132 6.55287 5.28457 6.49916 5.29759 6.49916C5.31386 6.49916 5.62148 6.80026 6.22043 7.40247ZM10.3611 11.6408C10.2927 11.6538 10.1658 11.6603 9.98022 11.6603C9.79468 11.6603 9.66121 11.6473 9.57982 11.6212C9.28685 11.5398 9.02969 11.3869 8.80834 11.1622C8.59025 10.9344 8.44701 10.6805 8.37864 10.4005C8.36562 10.3191 8.35586 10.1987 8.34936 10.0392C8.34284 9.87968 8.34609 9.75924 8.35911 9.67786L8.37864 9.56067L10.0974 11.299C10.2471 11.4454 10.335 11.5366 10.3611 11.5724C10.3871 11.605 10.3871 11.6277 10.3611 11.6408Z" fill="#212125"/>
</svg>
