<svg width="18" height="18" viewBox="0 0 18 18" fill="none" xmlns="http://www.w3.org/2000/svg">
<g clip-path="url(#clip0_491_297)">
<path d="M2.77394 0.773433C2.52198 0.796867 2.27002 0.868644 2.01807 0.988764C1.76612 1.10888 1.54932 1.26563 1.36768 1.45899C1.104 1.73438 0.91797 2.06983 0.809575 2.46533L0.756835 2.68066V5.52393C0.745118 7.01221 0.745118 7.91895 0.756835 8.24414C0.768552 8.56933 0.791991 8.81543 0.827151 8.98242C0.900394 9.22265 1.01465 9.45117 1.16992 9.66796C1.21973 9.74999 2.35645 10.9072 4.58009 13.1397C6.80667 15.3721 7.98587 16.5483 8.11771 16.6684C8.56302 17.0288 9.07279 17.2178 9.64701 17.2353C10.2242 17.2529 10.7588 17.0933 11.251 16.7563C11.3594 16.686 12.2837 15.7808 14.024 14.0405C15.7642 12.3003 16.6695 11.3789 16.7398 11.2764C16.8131 11.1738 16.879 11.0757 16.9376 10.9819C17.1778 10.5249 17.273 10.0356 17.2232 9.51416C17.1763 8.99267 16.9918 8.52685 16.6695 8.1167C16.5845 8.02295 15.417 6.854 13.167 4.60986C10.917 2.36573 9.73783 1.20704 9.62943 1.13379C9.30716 0.928713 8.95413 0.808593 8.57035 0.773433C8.41214 0.749998 7.44534 0.738281 5.66994 0.738281C3.89454 0.738281 2.92921 0.749998 2.77394 0.773433ZM8.69339 2.32031C8.75492 2.3584 8.97465 2.56055 9.35258 2.92676C9.73051 3.29297 10.6812 4.2378 12.2046 5.76123C13.7662 7.31983 14.7198 8.27637 15.0655 8.63086C15.4141 8.98535 15.6002 9.19775 15.6236 9.26807C15.7818 9.56983 15.7877 9.87598 15.6412 10.1865C15.6177 10.2598 15.4771 10.4282 15.2193 10.6919C14.9615 10.9556 14.2261 11.6997 13.0132 12.9243C11.2876 14.6528 10.3941 15.5347 10.3326 15.5698C10.189 15.6782 10.0088 15.7353 9.79203 15.7412C9.57523 15.7471 9.38333 15.7017 9.21634 15.605C9.14603 15.5581 7.9888 14.4185 5.74466 12.186C4.21828 10.6626 3.27492 9.71485 2.91456 9.34277C2.55713 8.9707 2.35938 8.7539 2.3213 8.69238L2.26856 8.56934V2.82568L2.3213 2.69824C2.39454 2.54297 2.49122 2.43603 2.61133 2.37744L2.62892 2.35986C2.68751 2.32178 2.75929 2.29688 2.84425 2.28515C2.96437 2.27343 3.21046 2.26172 3.58253 2.25L8.57035 2.26757L8.69339 2.32031ZM5.32717 4.53515C5.13674 4.58496 4.96974 4.68457 4.82619 4.83399C4.68263 4.98341 4.58595 5.15479 4.53614 5.34815C4.46583 5.62354 4.4966 5.89307 4.62843 6.15673C4.66359 6.22704 4.73244 6.31347 4.83498 6.41601C4.93752 6.51855 5.02395 6.5874 5.09426 6.62256C5.26418 6.70752 5.44143 6.75 5.626 6.75C5.81057 6.75 5.98781 6.70752 6.15773 6.62256C6.22804 6.5874 6.31447 6.51855 6.41701 6.41601C6.51955 6.31347 6.5884 6.22704 6.62356 6.15673C6.73196 5.93993 6.7715 5.71435 6.74221 5.47998C6.71291 5.24561 6.6133 5.04492 6.44338 4.87793C6.2178 4.62598 5.94827 4.5 5.63479 4.5C5.53811 4.5 5.43557 4.51172 5.32717 4.53515Z" fill="#70737A"/>
</g>
<defs>
<clipPath id="clip0_491_297">
<rect width="18" height="18" fill="white"/>
</clipPath>
</defs>
</svg>
