<svg width="16" height="16" viewBox="0 0 16 16" fill="none" xmlns="http://www.w3.org/2000/svg">
<g clip-path="url(#clip0_499_242)">
<path d="M2.34464 2.03124C2.13124 2.06249 1.92824 2.12629 1.73565 2.22263C1.47019 2.37365 1.24637 2.56633 1.0642 2.80068C0.884623 3.03503 0.762305 3.30193 0.697242 3.60138C0.686833 3.6847 0.676424 3.93988 0.666016 4.36691V11.3583C0.666016 11.8504 0.676424 12.1759 0.697242 12.3347C0.70765 12.4415 0.729773 12.543 0.763611 12.6394L0.794837 12.7019C0.867705 12.9154 0.986121 13.1185 1.15009 13.3112C1.31665 13.5039 1.50663 13.6562 1.72003 13.7681C1.93344 13.8801 2.15205 13.9517 2.37587 13.983C2.48257 13.9934 3.47413 13.9986 5.35054 13.9986L8.16516 13.983L8.27837 13.9361C8.48137 13.8398 8.60369 13.6796 8.64533 13.4557C8.68697 13.2317 8.62841 13.0391 8.46966 12.8776C8.36295 12.7709 8.23543 12.7071 8.08709 12.6862C8.00121 12.6654 7.05779 12.655 5.25685 12.655H2.87164C2.62701 12.655 2.47866 12.6446 2.42661 12.6238C2.26526 12.5587 2.14164 12.4467 2.05576 12.2879L2.00891 12.1746L1.9933 5.87064L2.2002 6.01515C5.37787 8.04095 7.03046 9.0812 7.15799 9.13588C7.40262 9.26347 7.67719 9.32726 7.98168 9.32726C8.28617 9.32726 8.57115 9.26347 8.83661 9.13588C8.95373 9.07078 9.83858 8.51616 11.4912 7.47201L13.9701 5.88626L14.0013 8.83123L14.0482 8.9445C14.082 9.00699 14.1249 9.06818 14.177 9.12806C14.2316 9.18535 14.285 9.22832 14.337 9.25696C14.3917 9.283 14.4554 9.30123 14.5283 9.31164C14.7209 9.34289 14.8888 9.30774 15.0319 9.20618C15.1776 9.10463 15.2713 8.95882 15.313 8.76874C15.3234 8.70364 15.3234 7.84436 15.313 6.19091V4.27317C15.3026 3.9529 15.2922 3.73417 15.2817 3.617C15.2713 3.54149 15.2492 3.45035 15.2154 3.34359L15.1998 3.31235C15.0618 2.96082 14.8484 2.67049 14.5595 2.44135C14.2733 2.21222 13.9493 2.0703 13.5875 2.01562C13.4574 2.00521 11.5771 2 7.94655 2C4.31864 2 2.45134 2.01041 2.34464 2.03124ZM13.5524 3.37484C13.6278 3.40869 13.6968 3.45556 13.7593 3.51544C13.8243 3.57273 13.8725 3.63393 13.9037 3.69902C13.9375 3.76151 13.9571 3.81099 13.9623 3.84744C13.9675 3.88389 13.9701 3.9555 13.9701 4.06226V4.30441L11.1242 6.12842C9.21658 7.334 8.23023 7.94722 8.16516 7.96805C8.04805 7.9993 7.93094 7.9993 7.81382 7.96805C7.74876 7.94722 6.76241 7.33401 4.85476 6.12842L2.00891 4.30441V4.06226C2.00891 3.9555 2.01152 3.88389 2.01672 3.84744C2.02193 3.81099 2.03755 3.76412 2.06356 3.70683C2.09219 3.64694 2.14034 3.58575 2.20801 3.52326C2.27828 3.45816 2.34204 3.4152 2.39929 3.39436C2.45915 3.37093 2.72851 3.354 3.20737 3.34359H7.98949H12.7716C13.2401 3.34359 13.5003 3.35401 13.5524 3.37484ZM14.5283 10.6865C14.4554 10.6969 14.3891 10.719 14.3292 10.7529C14.272 10.7841 13.8647 11.1734 13.1073 11.9207L11.987 13.0378L11.5224 12.5925C11.2127 12.2826 11.0214 12.1056 10.9486 12.0613C10.7976 11.9988 10.6454 11.9897 10.4918 12.034C10.3383 12.0756 10.2133 12.1577 10.117 12.28C10.0208 12.4024 9.97782 12.543 9.98823 12.7019C9.99863 12.7982 10.0169 12.8763 10.0429 12.9362C10.0715 12.9935 10.1496 13.0859 10.2771 13.2135C10.3604 13.3099 10.5517 13.5078 10.851 13.8072L10.8978 13.8541C11.1971 14.1535 11.3897 14.3397 11.4756 14.4126C11.5927 14.5194 11.6773 14.5871 11.7293 14.6157C11.784 14.6417 11.8646 14.6548 11.9713 14.6548H11.987C12.1145 14.6548 12.2095 14.6391 12.2719 14.6079C12.337 14.574 12.8406 14.0858 13.7827 13.1432C14.7274 12.198 15.2167 11.6994 15.2505 11.6473C15.313 11.5093 15.3338 11.3648 15.313 11.2138C15.2713 11.0341 15.1776 10.8935 15.0319 10.7919C14.8888 10.6904 14.7209 10.6552 14.5283 10.6865Z" fill="#43A047"/>
</g>
<defs>
<clipPath id="clip0_499_242">
<rect width="14.6548" height="12.6548" fill="white" transform="translate(0.666016 2)"/>
</clipPath>
</defs>
</svg>
