<svg width="16" height="16" viewBox="0 0 16 16" fill="none" xmlns="http://www.w3.org/2000/svg">
<path d="M7.53607 0.671875C6.99179 0.713544 6.44752 0.815105 5.90325 0.976561C5.36158 1.13542 4.85506 1.34896 4.38371 1.61719C3.49829 2.11719 2.75349 2.77084 2.14932 3.57813C1.54776 4.38281 1.12458 5.27344 0.879785 6.25C0.634992 7.22396 0.598535 8.21224 0.770413 9.21485C0.929271 10.1445 1.25349 11.0117 1.74307 11.8164C2.23526 12.6211 2.86027 13.306 3.61808 13.8711C4.70402 14.6836 5.94621 15.1589 7.34466 15.2969C7.49309 15.3177 7.71705 15.3281 8.01654 15.3281C8.31602 15.3281 8.53998 15.3177 8.68841 15.2969C9.43581 15.2214 10.1481 15.0456 10.8251 14.7695C11.5022 14.4909 12.1181 14.1172 12.6728 13.6484C13.6754 12.8151 14.4059 11.7878 14.8642 10.5664C15.3226 9.34506 15.445 8.09506 15.2314 6.81641C15.2106 6.65496 15.1871 6.53777 15.1611 6.46485C15.1351 6.38933 15.1025 6.32552 15.0634 6.27344C15.027 6.21875 14.971 6.16797 14.8955 6.1211C14.8226 6.07162 14.7562 6.03907 14.6963 6.02344C14.639 6.00781 14.5674 6.00521 14.4814 6.01562C14.3955 6.02604 14.3213 6.04167 14.2588 6.0625C14.066 6.14844 13.9423 6.29818 13.8877 6.51171C13.8772 6.57682 13.872 6.6276 13.872 6.66406C13.872 6.70051 13.8825 6.77734 13.9033 6.89453C13.958 7.27994 13.9879 7.6276 13.9931 7.9375C13.9983 8.24479 13.9801 8.56901 13.9384 8.91016C13.8212 9.65756 13.5673 10.3646 13.1767 11.0312C12.7887 11.6979 12.2952 12.2656 11.6962 12.7344C11.0348 13.2474 10.2991 13.6081 9.48921 13.8164C8.67931 14.0247 7.8655 14.0599 7.04779 13.9219C6.23268 13.7812 5.48398 13.4948 4.80168 13.0625C4.11938 12.6302 3.54516 12.0846 3.07902 11.4258C2.61547 10.7643 2.29906 10.0273 2.12979 9.21485C2.05427 8.84245 2.01651 8.4375 2.01651 8C2.01651 7.38021 2.09724 6.80989 2.25871 6.28906C2.54517 5.32813 3.03736 4.49349 3.73527 3.78516C4.43579 3.07421 5.26001 2.57031 6.20793 2.27344C6.50742 2.17709 6.79518 2.11068 7.07122 2.07422C7.34986 2.03515 7.66497 2.01562 8.01654 2.01562C8.27175 2.01562 8.47097 2.02083 8.6142 2.03125C8.76003 2.04166 8.95014 2.07421 9.18451 2.1289C9.47357 2.18099 9.73269 2.24739 9.96186 2.32813C10.191 2.40886 10.4554 2.52344 10.7548 2.67187C10.9658 2.77865 11.0947 2.83985 11.1416 2.85547C11.191 2.8711 11.2483 2.87891 11.3134 2.8789C11.4931 2.88932 11.6481 2.83594 11.7783 2.71876C11.9788 2.52865 12.0426 2.29427 11.9697 2.01562C11.9384 1.90885 11.8824 1.82161 11.8017 1.75391C11.721 1.68359 11.5843 1.60026 11.3916 1.50391C10.5296 1.05599 9.63373 0.789064 8.70404 0.703121C8.5556 0.68229 8.35768 0.671875 8.11029 0.671875C7.86549 0.671875 7.67409 0.671875 7.53607 0.671875ZM14.5127 2.01562C14.471 2.02604 14.4202 2.04818 14.3603 2.08203C14.303 2.11329 13.2288 3.17448 11.1376 5.26562L8.00091 8.38281L7.20013 7.58594C6.65586 7.05209 6.35768 6.76824 6.30559 6.73438C6.21966 6.69271 6.11809 6.67187 6.00091 6.67187C5.88372 6.67187 5.78215 6.69271 5.69622 6.73438C5.63372 6.76823 5.57252 6.82031 5.51262 6.89063C5.45532 6.95834 5.40975 7.02474 5.3759 7.08984C5.32381 7.2487 5.32381 7.40755 5.3759 7.56641C5.39673 7.6211 5.46313 7.70964 5.57512 7.83203C5.6871 7.95443 5.9996 8.27213 6.51262 8.78515L6.6259 8.8789C7.02955 9.29557 7.28997 9.55729 7.40716 9.66406C7.56862 9.81249 7.67799 9.90364 7.73529 9.9375C7.79518 9.96875 7.87331 9.98438 7.96967 9.98438L8.04779 10C8.1129 10 8.16628 9.98958 8.20794 9.96875C8.28346 9.92448 8.40326 9.82552 8.56733 9.67187C8.734 9.51823 9.00873 9.25391 9.39155 8.8789L11.7783 6.48047C14.07 4.19661 15.2327 3.02864 15.2666 2.97656C15.3082 2.88021 15.3291 2.77604 15.3291 2.66406C15.3291 2.55208 15.3082 2.44792 15.2666 2.35157C15.2327 2.29948 15.1858 2.2474 15.1259 2.19531C15.0687 2.14063 15.0101 2.10026 14.9502 2.07422C14.8929 2.04557 14.8213 2.02604 14.7353 2.01562C14.652 2.00521 14.5778 2.00521 14.5127 2.01562Z" fill="#43A047"/>
</svg>
