<svg width="20" height="20" viewBox="0 0 20 20" fill="none" xmlns="http://www.w3.org/2000/svg">
<g clip-path="url(#clip0_486_233)">
<path d="M9.41813 0.839844C8.73778 0.891929 8.05744 1.01888 7.37711 1.2207C6.70002 1.41927 6.06688 1.6862 5.47768 2.02149C4.37091 2.64649 3.43991 3.46354 2.6847 4.47266C1.93274 5.47852 1.40377 6.5918 1.09778 7.8125C0.791787 9.02995 0.746215 10.2653 0.961064 11.5186C1.15964 12.6807 1.56491 13.7646 2.17688 14.7705C2.79212 15.7764 3.57338 16.6325 4.52065 17.3389C5.87808 18.3545 7.43082 18.9486 9.17887 19.1211C9.36441 19.1471 9.64436 19.1602 10.0187 19.1602C10.3931 19.1602 10.673 19.1471 10.8586 19.1211C11.7928 19.0267 12.6831 18.807 13.5295 18.4619C14.3758 18.1136 15.1457 17.6465 15.8391 17.0605C17.0923 16.0189 18.0054 14.7347 18.5783 13.208C19.1512 11.6813 19.3042 10.1188 19.0373 8.52051C19.0113 8.3187 18.982 8.17221 18.9494 8.08106C18.9169 7.98666 18.8762 7.90691 18.8274 7.8418C18.7818 7.77344 18.7118 7.70996 18.6174 7.65137C18.5262 7.58952 18.4432 7.54883 18.3684 7.5293C18.2968 7.50977 18.2072 7.50651 18.0998 7.51953C17.9924 7.53255 17.8996 7.55208 17.8215 7.57813C17.5806 7.68555 17.426 7.87272 17.3576 8.13964C17.3446 8.22102 17.3381 8.2845 17.3381 8.33007C17.3381 8.37564 17.3511 8.47167 17.3771 8.61816C17.4455 9.09993 17.4829 9.5345 17.4895 9.92187C17.496 10.306 17.4732 10.7113 17.4211 11.1377C17.2746 12.0719 16.9572 12.9557 16.4689 13.7891C15.9839 14.6224 15.3671 15.332 14.6184 15.918C13.7915 16.5592 12.8719 17.0101 11.8596 17.2705C10.8472 17.5309 9.82992 17.5749 8.80778 17.4023C7.7889 17.2266 6.85302 16.8685 6.00014 16.3281C5.14727 15.7878 4.4295 15.1058 3.84682 14.2822C3.26739 13.4554 2.87188 12.5342 2.66029 11.5186C2.56589 11.0531 2.51868 10.5469 2.51868 10C2.51868 9.22526 2.6196 8.51237 2.82143 7.86133C3.17951 6.66016 3.79474 5.61686 4.66714 4.73144C5.54279 3.84277 6.57306 3.21289 7.75796 2.8418C8.13232 2.72136 8.49202 2.63835 8.83707 2.59277C9.18538 2.54394 9.57926 2.51953 10.0187 2.51953C10.3377 2.51953 10.5868 2.52604 10.7658 2.53906C10.9481 2.55208 11.1857 2.59277 11.4787 2.66113C11.84 2.72623 12.1639 2.80924 12.4504 2.91016C12.7368 3.01107 13.0672 3.1543 13.4416 3.33984C13.7053 3.47331 13.8664 3.54981 13.925 3.56934C13.9868 3.58888 14.0585 3.59864 14.1398 3.59863C14.3644 3.61165 14.5581 3.54492 14.7209 3.39844C14.9715 3.16082 15.0513 2.86784 14.9602 2.51953C14.9211 2.38606 14.8511 2.27702 14.7502 2.19239C14.6493 2.10449 14.4784 2.00032 14.2375 1.87989C13.16 1.31999 12.0402 0.986329 10.8781 0.878901C10.6925 0.852863 10.4452 0.839844 10.1359 0.839844C9.82991 0.839844 9.59065 0.839844 9.41813 0.839844ZM18.1389 2.51953C18.0868 2.53255 18.0233 2.56022 17.9484 2.60254C17.8768 2.64161 16.534 3.96811 13.9201 6.58203L9.99919 10.4785L8.99821 9.48243C8.31787 8.81511 7.94514 8.4603 7.88004 8.41797C7.77262 8.36589 7.64566 8.33984 7.49918 8.33984C7.35269 8.33984 7.22574 8.36589 7.11832 8.41797C7.0402 8.46029 6.96369 8.52539 6.88882 8.61329C6.8172 8.69792 6.76023 8.78093 6.71792 8.8623C6.65281 9.06087 6.65281 9.25944 6.71792 9.45801C6.74396 9.52638 6.82697 9.63705 6.96695 9.79004C7.10692 9.94303 7.49754 10.3402 8.13882 10.9814L8.28042 11.0986C8.78499 11.6195 9.11051 11.9466 9.257 12.0801C9.45882 12.2656 9.59554 12.3795 9.66716 12.4219C9.74203 12.4609 9.83968 12.4805 9.96013 12.4805L10.0578 12.5C10.1392 12.5 10.2059 12.487 10.258 12.4609C10.3524 12.4056 10.5021 12.2819 10.7072 12.0898C10.9155 11.8978 11.259 11.5674 11.7375 11.0986L14.7209 8.10059C17.5855 5.24577 19.0389 3.78581 19.0813 3.7207C19.1333 3.60026 19.1594 3.47005 19.1594 3.33007C19.1594 3.1901 19.1333 3.0599 19.0813 2.93946C19.0389 2.87435 18.9804 2.80925 18.9055 2.74414C18.8339 2.67578 18.7606 2.62532 18.6858 2.59277C18.6141 2.55696 18.5246 2.53255 18.4172 2.51953C18.313 2.50651 18.2202 2.50651 18.1389 2.51953Z" fill="#6EE7B7"/>
</g>
<defs>
<clipPath id="clip0_486_233">
<rect width="20" height="20" fill="white"/>
</clipPath>
</defs>
</svg>
