<svg width="30" height="30" viewBox="0 0 30 30" fill="none" xmlns="http://www.w3.org/2000/svg">
<path d="M24.375 26.25C25.3696 26.25 26.3234 25.8549 27.0267 25.1517C27.7299 24.4484 28.125 23.4946 28.125 22.5V16.875C28.125 15.8804 27.7299 14.9266 27.0267 14.2233C26.3234 13.5201 25.3696 13.125 24.375 13.125H5.625C4.63044 13.125 3.67661 13.5201 2.97335 14.2233C2.27009 14.9266 1.875 15.8804 1.875 16.875V22.5C1.875 23.4946 2.27009 24.4484 2.97335 25.1517C3.67661 25.8549 4.63044 26.25 5.625 26.25H24.375ZM1.875 12.6825V7.5C1.875 6.50544 2.27009 5.55161 2.97335 4.84835C3.67661 4.14509 4.63044 3.75 5.625 3.75H12.3487C13.0942 3.75032 13.8091 4.04661 14.3363 4.57375L16.9887 7.225C17.1637 7.40125 17.4025 7.5 17.6513 7.5H24.375C25.3696 7.5 26.3234 7.89509 27.0267 8.59835C27.7299 9.30161 28.125 10.2554 28.125 11.25V12.6825C27.0948 11.7583 25.759 11.248 24.375 11.25H5.625C4.24099 11.248 2.90521 11.7583 1.875 12.6825Z" fill="#08257E"/>
</svg>
