<svg width="18" height="18" viewBox="0 0 18 18" fill="none" xmlns="http://www.w3.org/2000/svg">
<path d="M2.61035 1.54688C2.41699 1.60841 2.23389 1.70802 2.06104 1.84571C1.88819 1.9834 1.75928 2.1416 1.67432 2.32032L1.63916 2.35987C1.58935 2.46534 1.55859 2.55469 1.54688 2.62794C1.52345 2.73633 1.51173 2.92822 1.51172 3.20362V4.55274V6.69726C1.51172 6.91113 1.52344 7.06054 1.54688 7.14551C1.60841 7.38574 1.7461 7.6084 1.95996 7.81348C2.05664 7.90723 2.15332 7.98487 2.25 8.04639C2.34668 8.10498 2.46094 8.15332 2.59278 8.1914L2.75538 8.24414H6.69728C6.91115 8.23243 7.05471 8.22071 7.12796 8.20899C7.39164 8.13575 7.61869 8.00391 7.80911 7.81348C8.00247 7.62012 8.13578 7.3916 8.20902 7.12794C8.22074 7.05469 8.23246 6.91114 8.24417 6.69726V2.75538L8.19143 2.59277C8.15335 2.44922 8.10354 2.33203 8.04202 2.24121C7.98342 2.15038 7.9014 2.05078 7.79593 1.94238C7.66409 1.81054 7.53812 1.71533 7.41799 1.65673L7.39602 1.63916C7.29055 1.58935 7.19533 1.55859 7.11037 1.54687C7.00198 1.52344 6.79837 1.51172 6.49954 1.51172H5.02297H3.05861C2.84474 1.52344 2.69532 1.53517 2.61035 1.54688ZM10.8897 1.54687C10.6495 1.59668 10.4209 1.72852 10.2041 1.94238C10.0987 2.05078 10.0152 2.15038 9.95365 2.24121C9.89506 2.33203 9.84672 2.44922 9.80864 2.59277L9.7559 2.75538V6.69726C9.76761 6.92578 9.77933 7.06933 9.79105 7.12794C9.86429 7.39161 9.99613 7.62013 10.1866 7.81348C10.3799 8.00391 10.6084 8.13575 10.8721 8.20899C10.9307 8.22071 11.0743 8.23243 11.3028 8.24414H15.2447L15.4073 8.1914C15.5508 8.15332 15.668 8.10498 15.7589 8.04639C15.8497 7.98486 15.9493 7.90137 16.0577 7.7959C16.2598 7.59082 16.3917 7.36231 16.4532 7.11035C16.4766 7.00195 16.4913 6.25489 16.4971 4.86914C16.503 3.4834 16.4883 2.74219 16.4532 2.64551C16.3917 2.38184 16.2613 2.15186 16.0621 1.95557C15.8658 1.75636 15.6358 1.62012 15.3721 1.54687C15.2872 1.52344 15.1436 1.51172 14.9415 1.51172H13.1221C11.7305 1.51172 10.9864 1.52344 10.8897 1.54687ZM6.75002 4.87794V6.75H2.98829V2.98828H6.75002V4.87794ZM15.0118 4.87794V6.75H11.25V2.98828H15.0118V4.87794ZM2.82569 9.75586C2.48877 9.79102 2.19433 9.94043 1.94238 10.2041C1.74023 10.3975 1.6084 10.6143 1.54688 10.8545C1.52345 10.9394 1.51173 11.0889 1.51172 11.3027V13.1221V14.7964C1.51172 15.0718 1.52344 15.2637 1.54688 15.3721C1.5586 15.4453 1.58936 15.5347 1.63916 15.6401L1.67432 15.6797C1.75928 15.8701 1.89112 16.0342 2.06982 16.1719C2.24854 16.3096 2.44044 16.4033 2.64552 16.4531C2.7422 16.4883 3.48341 16.5029 4.86916 16.4971C6.25491 16.4912 7.00198 16.4766 7.11037 16.4531C7.36233 16.3916 7.59085 16.2598 7.79593 16.0576C7.9014 15.9492 7.98343 15.8496 8.04202 15.7588C8.10354 15.668 8.15335 15.5508 8.19143 15.4072L8.24417 15.2446V11.3027C8.23246 11.0889 8.22074 10.9453 8.20902 10.8721C8.13578 10.6084 7.99954 10.3813 7.80032 10.1909C7.60403 9.99756 7.37991 9.86425 7.12796 9.79101C7.06937 9.77929 6.91995 9.76758 6.67971 9.75586H4.9878C3.65479 9.74414 2.93408 9.74414 2.82569 9.75586ZM11.0875 9.75586C10.897 9.77929 10.7359 9.82763 10.604 9.90088C10.399 9.99755 10.2276 10.1294 10.0899 10.2964C9.9522 10.4634 9.85258 10.6553 9.79105 10.8721C9.77933 10.9307 9.76761 11.0742 9.7559 11.3027V15.2446L9.80864 15.4072C9.84672 15.5508 9.89506 15.668 9.95365 15.7588C10.0152 15.8496 10.0987 15.9492 10.2041 16.0576C10.4092 16.2598 10.6377 16.3916 10.8897 16.4531C10.9981 16.4766 11.7452 16.4912 13.1309 16.4971C14.5167 16.5029 15.2579 16.4883 15.3545 16.4531C15.5596 16.4033 15.7515 16.3096 15.9302 16.1719C16.109 16.0342 16.2408 15.8701 16.3257 15.6797L16.3609 15.6401C16.4107 15.5347 16.4415 15.4453 16.4532 15.3721C16.4766 15.2637 16.4883 15.0718 16.4883 14.7964V11.4653C16.4883 11.1782 16.4766 10.9805 16.4532 10.8721C16.4415 10.7988 16.4107 10.7095 16.3609 10.604L16.3433 10.5645C16.2847 10.4561 16.1895 10.3359 16.0577 10.2041C15.9258 10.0723 15.7999 9.97705 15.6797 9.91846L15.6402 9.90088C15.5347 9.83935 15.4454 9.80273 15.3721 9.79101C15.2754 9.77929 15.0953 9.76758 14.8316 9.75586H13.2496C11.9048 9.75586 11.1841 9.76172 11.0875 9.77344V9.75586ZM6.75002 13.1221V15.0117H2.98829V11.25H6.75002V13.1221ZM15.0118 13.1221V15.0117H11.25V11.25H15.0118V13.1221Z" fill="white"/>
</svg>
