<svg width="18" height="18" viewBox="0 0 18 18" fill="none" xmlns="http://www.w3.org/2000/svg">
<path d="M8.44193 1.51172C7.90286 1.57324 7.42239 1.66114 7.00051 1.77539C6.58156 1.88672 6.14943 2.05078 5.70412 2.26758C5.38185 2.43457 5.09181 2.60302 4.83401 2.77295C4.57619 2.93994 4.30227 3.14941 4.01223 3.40137C3.30617 4.0254 2.73634 4.76954 2.30275 5.6338C1.87208 6.49805 1.61426 7.40479 1.52929 8.35401C1.51758 8.53272 1.51172 9.62989 1.51172 11.6455V14.6514L1.56446 14.814C1.82813 15.6431 2.36866 16.1836 3.18605 16.4355C3.25929 16.459 3.33986 16.4736 3.42775 16.4795C3.51857 16.4854 3.72072 16.4883 4.0342 16.4883C4.50002 16.4883 4.79299 16.4766 4.9131 16.4531C5.3467 16.3682 5.71584 16.1851 6.02053 15.9038C6.32815 15.6226 6.54788 15.2593 6.67971 14.814L6.73245 14.6162L6.75002 13.2495C6.75002 12.3355 6.74417 11.8125 6.73245 11.6807C6.65921 11.2383 6.4761 10.8486 6.18312 10.5117C5.89015 10.1748 5.52101 9.94629 5.0757 9.82618C4.87061 9.76758 4.41505 9.73828 3.709 9.73828H2.98829L3.00587 9.14502C3.01758 8.62939 3.05274 8.2002 3.11133 7.85743C3.17286 7.51465 3.2754 7.16895 3.41896 6.82032C3.77931 5.88575 4.34328 5.0918 5.11086 4.43848C5.87844 3.78223 6.75442 3.34717 7.73879 3.1333C8.12258 3.04834 8.54299 3.00586 9.00003 3.00586C9.45706 3.00586 9.88334 3.04834 10.2788 3.1333C11.4185 3.38526 12.4029 3.93018 13.232 4.76807C13.7095 5.23682 14.0948 5.76856 14.3878 6.36328C14.6837 6.95801 14.8741 7.59082 14.9591 8.26172C14.9708 8.44336 14.9825 8.73779 14.9942 9.14502L15.0118 9.73828H14.2911C13.585 9.73828 13.1294 9.76758 12.9244 9.82618C12.5523 9.93457 12.2242 10.1221 11.94 10.3887C11.6587 10.6523 11.4654 10.9629 11.3599 11.3203C11.3101 11.4902 11.2793 11.6719 11.2676 11.8652C11.2559 12.0557 11.25 12.5171 11.25 13.2495L11.2676 14.6162L11.3204 14.814C11.4522 15.2593 11.6705 15.6226 11.9751 15.9038C12.2828 16.1851 12.6534 16.3682 13.087 16.4531C13.2071 16.4766 13.5001 16.4883 13.9659 16.4883C14.2793 16.4883 14.48 16.4854 14.5679 16.4795C14.6588 16.4736 14.7408 16.459 14.814 16.4355C15.2213 16.3154 15.5596 16.1177 15.8292 15.8423C16.1016 15.564 16.3038 15.2212 16.4356 14.814L16.4883 14.6514V11.6455C16.4883 9.62989 16.4825 8.5254 16.4708 8.33203C16.3624 7.0254 15.9302 5.83009 15.1744 4.7461C14.4185 3.65918 13.4459 2.82715 12.2564 2.25C11.5386 1.90137 10.7769 1.67285 9.97123 1.56446C9.86283 1.54102 9.60795 1.52638 9.20657 1.52051C8.8052 1.51465 8.55032 1.51172 8.44193 1.51172ZM4.82521 11.3203C5.00393 11.417 5.1299 11.5562 5.20314 11.7378C5.22657 11.7964 5.23829 11.8916 5.2383 12.0234V14.4536L5.18556 14.5635C5.1006 14.7305 4.96877 14.8564 4.79006 14.9414C4.72853 14.9648 4.66994 14.9795 4.61428 14.9853C4.56154 14.9912 4.42092 14.9971 4.19239 15.0029C3.96681 15.0088 3.79982 15.0059 3.69141 14.9941C3.58302 14.9824 3.48634 14.959 3.40138 14.9238C3.25782 14.8389 3.14357 14.7129 3.05861 14.5459L3.00587 14.4185L2.98829 11.25L4.69777 11.2676L4.82521 11.3203ZM15.0118 12.832L14.9942 14.4185L14.9415 14.5459C14.8565 14.7129 14.7422 14.8389 14.5987 14.9238C14.5137 14.959 14.4171 14.9824 14.3087 14.9941C14.2003 15.0059 14.0318 15.0088 13.8033 15.0029C13.5777 14.9971 13.4371 14.9912 13.3814 14.9853C13.3287 14.9795 13.2657 14.9648 13.1924 14.9414C13.0254 14.8564 12.8995 14.7305 12.8145 14.5635L12.7618 14.4536V12.0234C12.7618 11.8916 12.7735 11.7935 12.7969 11.729C12.8204 11.6616 12.8614 11.5928 12.92 11.5225C12.9815 11.4492 13.0489 11.3921 13.1221 11.3511C13.1954 11.3071 13.2876 11.2793 13.399 11.2676C13.5132 11.2559 13.7813 11.25 14.2032 11.25H15.0118V12.832Z" fill="#70737A"/>
</svg>
