<svg width="30" height="30" viewBox="0 0 30 30" fill="none" xmlns="http://www.w3.org/2000/svg">
<path fill-rule="evenodd" clip-rule="evenodd" d="M13.9392 3.43942C14.2205 3.15822 14.6019 3.00024 14.9997 3.00024C15.3974 3.00024 15.7789 3.15822 16.0602 3.43942L26.5602 13.9394C26.7699 14.1492 26.9127 14.4164 26.9706 14.7074C27.0284 14.9983 26.9987 15.2999 26.8852 15.5739C26.7717 15.848 26.5795 16.0822 26.3329 16.247C26.0863 16.4119 25.7963 16.4999 25.4997 16.4999H23.9997V25.4999C23.9997 25.8977 23.8416 26.2793 23.5603 26.5606C23.279 26.8419 22.8975 26.9999 22.4997 26.9999H19.4997C19.1019 26.9999 18.7203 26.8419 18.439 26.5606C18.1577 26.2793 17.9997 25.8977 17.9997 25.4999V20.9999C17.9997 20.6021 17.8416 20.2206 17.5603 19.9393C17.279 19.658 16.8975 19.4999 16.4997 19.4999H13.4997C13.1019 19.4999 12.7203 19.658 12.439 19.9393C12.1577 20.2206 11.9997 20.6021 11.9997 20.9999V25.4999C11.9997 25.8977 11.8416 26.2793 11.5603 26.5606C11.279 26.8419 10.8975 26.9999 10.4997 26.9999H7.49968C7.10186 26.9999 6.72032 26.8419 6.43902 26.5606C6.15772 26.2793 5.99968 25.8977 5.99968 25.4999V16.4999H4.49968C4.20305 16.4999 3.91311 16.4119 3.66649 16.247C3.41988 16.0822 3.22767 15.848 3.11416 15.5739C3.00066 15.2999 2.97095 14.9983 3.02881 14.7074C3.08666 14.4164 3.22947 14.1492 3.43918 13.9394L13.9392 3.43942Z" fill="#B0B1B4"/>
</svg>
