<svg width="30" height="30" viewBox="0 0 30 30" fill="none" xmlns="http://www.w3.org/2000/svg">
<path fill-rule="evenodd" clip-rule="evenodd" d="M13.9392 3.43967C14.2205 3.15846 14.6019 3.00049 14.9997 3.00049C15.3974 3.00049 15.7789 3.15846 16.0602 3.43967L26.5602 13.9397C26.7699 14.1494 26.9127 14.4167 26.9706 14.7076C27.0284 14.9986 26.9987 15.3001 26.8852 15.5741C26.7717 15.8482 26.5795 16.0824 26.3329 16.2473C26.0863 16.4121 25.7963 16.5001 25.4997 16.5002H23.9997V25.5002C23.9997 25.898 23.8416 26.2795 23.5603 26.5608C23.279 26.8421 22.8975 27.0002 22.4997 27.0002H19.4997C19.1019 27.0002 18.7203 26.8421 18.439 26.5608C18.1577 26.2795 17.9997 25.898 17.9997 25.5002V21.0002C17.9997 20.6023 17.8416 20.2208 17.5603 19.9395C17.279 19.6582 16.8975 19.5002 16.4997 19.5002H13.4997C13.1019 19.5002 12.7203 19.6582 12.439 19.9395C12.1577 20.2208 11.9997 20.6023 11.9997 21.0002V25.5002C11.9997 25.898 11.8416 26.2795 11.5603 26.5608C11.279 26.8421 10.8975 27.0002 10.4997 27.0002H7.49968C7.10186 27.0002 6.72032 26.8421 6.43902 26.5608C6.15772 26.2795 5.99968 25.898 5.99968 25.5002V16.5002H4.49968C4.20305 16.5001 3.91311 16.4121 3.66649 16.2473C3.41988 16.0824 3.22767 15.8482 3.11416 15.5741C3.00066 15.3001 2.97095 14.9986 3.02881 14.7076C3.08666 14.4167 3.22947 14.1494 3.43918 13.9397L13.9392 3.43967Z" fill="#0A2C92"/>
</svg>
