<svg width="18" height="18" viewBox="0 0 18 18" fill="none" xmlns="http://www.w3.org/2000/svg">
<g clip-path="url(#clip0_284_523)">
<path d="M8.60452 0.773309C7.60843 0.808469 6.65335 1.02527 5.73928 1.4237C4.82815 1.81921 4.01222 2.36267 3.29152 3.05408C2.57374 3.74255 1.99806 4.5365 1.56446 5.43591C1.14551 6.30017 0.887697 7.22449 0.791011 8.20886C0.767577 8.37585 0.755859 8.63952 0.755859 8.99988C0.755859 9.36023 0.767577 9.6239 0.791011 9.79088C0.887689 10.7753 1.14551 11.6996 1.56446 12.5638C2.1299 13.765 2.94289 14.767 4.00343 15.5697C5.06691 16.3724 6.24612 16.8881 7.54104 17.1166C7.99807 17.2015 8.4844 17.244 9.00004 17.244C9.6475 17.244 10.2613 17.1781 10.8414 17.0463C11.4244 16.9144 12.0044 16.7108 12.5816 16.4354C13.6627 15.9051 14.5899 15.1757 15.3633 14.2469C16.1368 13.3182 16.6744 12.2709 16.9761 11.1049C17.2281 10.1468 17.3057 9.18152 17.2091 8.20886C17.1124 7.2362 16.8546 6.30603 16.4356 5.41834C15.9317 4.38708 15.2374 3.49353 14.3526 2.73766C13.4708 1.9818 12.4791 1.43541 11.3775 1.09851C10.5132 0.834831 9.58891 0.726432 8.60452 0.773309ZM9.84819 2.30262C10.771 2.42274 11.625 2.71424 12.4102 3.17712C13.1954 3.64001 13.8648 4.24353 14.4185 4.98766C15.1275 5.93395 15.5596 7.02526 15.7149 8.26159C15.7266 8.40515 15.7325 8.65124 15.7325 8.99988C15.7325 9.34851 15.7266 9.5946 15.7149 9.73816C15.5948 10.7343 15.2857 11.6468 14.7877 12.4759C14.2896 13.3021 13.6319 13.9979 12.8145 14.5634C12.4073 14.8505 11.9576 15.0907 11.4654 15.2841C10.9732 15.4745 10.4634 15.6063 9.93608 15.6796C9.71928 15.7147 9.40727 15.7323 9.00004 15.7323C8.59281 15.7323 8.28079 15.7147 8.06399 15.6796C7.14114 15.5477 6.30178 15.2533 5.54592 14.7963C4.79006 14.3392 4.13527 13.7445 3.58155 13.0121C2.87256 12.0658 2.44043 10.9745 2.28516 9.73816C2.27344 9.5946 2.26758 9.34851 2.26758 8.99988C2.26758 8.65124 2.27344 8.40515 2.28516 8.26159C2.40528 7.30066 2.69239 6.42175 3.1465 5.62488C3.60353 4.828 4.2173 4.14684 4.98781 3.58141C5.45363 3.23278 5.97073 2.94567 6.53909 2.72009C7.11038 2.49157 7.67874 2.35242 8.24417 2.30262L8.56937 2.26745C8.6514 2.25573 8.85502 2.25573 9.18022 2.26745C9.50541 2.27917 9.72807 2.29089 9.84819 2.30262ZM8.8726 5.27331C8.71732 5.29674 8.57963 5.36852 8.45951 5.48864C8.28079 5.67028 8.21487 5.88707 8.26175 6.13903C8.30863 6.39099 8.44632 6.57117 8.67484 6.67956C8.7598 6.71472 8.8682 6.7323 9.00004 6.7323C9.21684 6.7323 9.39701 6.66052 9.54057 6.51697C9.64896 6.40857 9.71488 6.27674 9.73832 6.12146C9.7852 5.8695 9.71782 5.65417 9.53617 5.47546C9.35745 5.29383 9.13626 5.22644 8.8726 5.27331ZM8.80228 8.27917C8.58548 8.35241 8.42289 8.48425 8.31449 8.67468L8.26175 8.78454V11.953C8.26175 12.1083 8.2764 12.2225 8.3057 12.2958C8.33793 12.3661 8.3892 12.4379 8.45951 12.5111C8.53275 12.5814 8.61332 12.6385 8.70121 12.6825C8.79203 12.7235 8.89164 12.744 9.00004 12.744C9.10843 12.744 9.20658 12.7235 9.29447 12.6825C9.38529 12.6385 9.46586 12.5814 9.53617 12.5111C9.60941 12.4379 9.66068 12.3661 9.68998 12.2958C9.72221 12.2225 9.73832 12.1083 9.73832 11.953V8.78454L9.68558 8.67468C9.60062 8.51941 9.48051 8.40515 9.32523 8.33191C9.25199 8.29675 9.15531 8.27624 9.03519 8.27039C8.91507 8.26452 8.83743 8.26745 8.80228 8.27917Z" fill="#5D7EEB"/>
</g>
<defs>
<clipPath id="clip0_284_523">
<rect width="18" height="18" fill="white"/>
</clipPath>
</defs>
</svg>
