<svg width="16" height="16" viewBox="0 0 16 16" fill="none" xmlns="http://www.w3.org/2000/svg">
<g clip-path="url(#clip0_499_234)">
<g clip-path="url(#clip1_499_234)">
<path d="M7.63973 0.675934C6.75467 0.707172 5.90606 0.899786 5.0939 1.25378C4.28433 1.60517 3.55937 2.088 2.919 2.70229C2.28125 3.31396 1.76974 4.01934 1.38448 4.81843C1.01223 5.58628 0.783156 6.40749 0.697249 7.28207C0.676427 7.43043 0.666016 7.66468 0.666016 7.98484C0.666016 8.30499 0.676427 8.53925 0.697249 8.68761C0.783149 9.56219 1.01222 10.3834 1.38448 11.1512C1.88688 12.2184 2.60924 13.1086 3.55156 13.8218C4.49648 14.535 5.54423 14.9931 6.6948 15.1961C7.10088 15.2716 7.533 15.3094 7.99115 15.3094C8.56643 15.3094 9.11178 15.2508 9.6272 15.1337C10.1452 15.0165 10.6606 14.8356 11.1734 14.591C12.134 14.1198 12.9579 13.4717 13.6451 12.6466C14.3323 11.8215 14.81 10.891 15.0781 9.85502C15.302 9.00387 15.3709 8.14622 15.285 7.28207C15.1991 6.4179 14.9701 5.59149 14.5978 4.80282C14.1501 3.8866 13.5332 3.09271 12.747 2.42117C11.9635 1.74962 11.0823 1.26418 10.1036 0.964855C9.33565 0.730593 8.51437 0.634286 7.63973 0.675934ZM8.74475 2.03465C9.56473 2.14137 10.3235 2.40035 11.0212 2.8116C11.7188 3.22286 12.3136 3.75905 12.8056 4.42018C13.4355 5.26091 13.8195 6.23049 13.9575 7.32891C13.9679 7.45645 13.9731 7.6751 13.9731 7.98484C13.9731 8.29458 13.9679 8.51323 13.9575 8.64077C13.8507 9.52575 13.5761 10.3365 13.1336 11.0732C12.691 11.8072 12.1067 12.4254 11.3804 12.9277C11.0186 13.1828 10.619 13.3962 10.1817 13.568C9.74434 13.7372 9.2914 13.8544 8.82284 13.9194C8.63021 13.9507 8.35298 13.9663 7.99115 13.9663C7.62931 13.9663 7.35208 13.9507 7.15945 13.9194C6.33948 13.8023 5.59369 13.5407 4.92209 13.1346C4.25049 12.7286 3.66869 12.2002 3.1767 11.5495C2.54675 10.7088 2.16279 9.73918 2.02483 8.64077C2.01442 8.51323 2.00922 8.29458 2.00922 7.98484C2.00922 7.6751 2.01442 7.45645 2.02483 7.32891C2.13156 6.47517 2.38667 5.6943 2.79015 4.98632C3.19623 4.27833 3.74158 3.67316 4.42619 3.1708C4.84009 2.86105 5.29954 2.60597 5.80454 2.40555C6.31215 2.20253 6.81715 2.07889 7.31955 2.03465L7.60849 2.00341C7.68138 1.993 7.86229 1.993 8.15124 2.00341C8.44018 2.01382 8.63802 2.02423 8.74475 2.03465ZM7.87791 4.67397C7.73995 4.69479 7.6176 4.75856 7.51087 4.86528C7.35208 5.02665 7.29351 5.21927 7.33516 5.44312C7.37682 5.66697 7.49916 5.82705 7.7022 5.92335C7.77769 5.95459 7.87401 5.97021 7.99115 5.97021C8.18378 5.97021 8.34387 5.90644 8.47142 5.7789C8.56773 5.68259 8.6263 5.56546 8.64713 5.4275C8.68878 5.20365 8.62891 5.01234 8.46751 4.85357C8.30872 4.69219 8.11219 4.63233 7.87791 4.67397ZM7.81544 7.34453C7.62281 7.4096 7.47834 7.52673 7.38203 7.69592L7.33516 7.79353V10.6086C7.33516 10.7465 7.34818 10.848 7.37421 10.9131C7.40285 10.9756 7.4484 11.0393 7.51087 11.1044C7.57595 11.1669 7.64754 11.2176 7.72563 11.2567C7.80633 11.2931 7.89484 11.3113 7.99115 11.3113C8.08746 11.3113 8.17466 11.2931 8.25275 11.2567C8.33345 11.2176 8.40504 11.1669 8.46751 11.1044C8.53259 11.0393 8.57815 10.9756 8.60418 10.9131C8.63281 10.848 8.64713 10.7465 8.64713 10.6086V7.79353L8.60027 7.69592C8.52478 7.55797 8.41806 7.45646 8.28009 7.39138C8.21501 7.36015 8.12911 7.34193 8.02238 7.33672C7.91565 7.33152 7.84667 7.33412 7.81544 7.34453Z" fill="#8C8F96"/>
</g>
</g>
<defs>
<clipPath id="clip0_499_234">
<rect width="16" height="16" fill="white"/>
</clipPath>
<clipPath id="clip1_499_234">
<rect width="14.6548" height="14.6429" fill="white" transform="translate(0.666016 0.666504)"/>
</clipPath>
</defs>
</svg>
