<svg width="18" height="18" viewBox="0 0 18 18" fill="none" xmlns="http://www.w3.org/2000/svg">
<g clip-path="url(#clip0_491_285)">
<path d="M11.1631 0.738287C10.6446 0.785164 10.1582 0.893562 9.70415 1.06348C9.42875 1.17188 9.14018 1.3125 8.83842 1.48535C8.53959 1.6582 8.27006 1.84717 8.02982 2.05225C7.68118 2.35107 7.36917 2.69238 7.09378 3.07618C6.81838 3.45996 6.59573 3.8628 6.4258 4.28467C6.29397 4.62159 6.19729 4.9336 6.13576 5.22071C6.07716 5.50782 6.04201 5.83155 6.03029 6.1919C6.01857 6.63721 6.06105 7.0752 6.15773 7.50586L6.21047 7.73877L3.78028 10.1689C2.16016 11.7773 1.30175 12.6416 1.20508 12.7617C1.03809 12.9902 0.912111 13.2422 0.827151 13.5176C0.791991 13.6611 0.768552 13.8296 0.756835 14.023C0.745118 14.2134 0.745118 14.5606 0.756835 15.0645V15.8599C0.768552 15.9917 0.780269 16.0869 0.791986 16.1455C0.876947 16.3975 1.01172 16.6201 1.19629 16.8135C1.38379 17.0039 1.60938 17.1358 1.87305 17.209C1.93164 17.2207 2.04004 17.2324 2.19824 17.2441H3.36719H4.55373C4.71194 17.2324 4.82034 17.2207 4.87893 17.209C5.08401 17.1475 5.27297 17.0479 5.44582 16.9102C5.61867 16.7725 5.75344 16.6084 5.85012 16.418C5.91165 16.2832 5.9512 16.166 5.96877 16.0664C5.98635 15.9639 5.99514 15.7808 5.99514 15.5171L6.01272 15.0117L6.51809 14.9941C6.78177 14.9941 6.96341 14.9854 7.06302 14.9678C7.16556 14.9502 7.28421 14.9106 7.41897 14.8491C7.6094 14.7525 7.77347 14.6206 7.91116 14.4536C8.04885 14.2866 8.14846 14.1006 8.21 13.8955C8.23343 13.7988 8.24515 13.5894 8.24515 13.2671L8.26273 12.7617L8.5352 12.7441C8.84574 12.709 9.12406 12.6313 9.37015 12.5112C9.61625 12.3911 9.85356 12.2109 10.0821 11.9707L10.2623 11.7905L10.5127 11.8433C10.9463 11.9399 11.4048 11.9795 11.8882 11.9619C12.3746 11.9443 12.8345 11.8696 13.2681 11.7378C14.0474 11.4976 14.7432 11.1064 15.3555 10.5645C16.003 10.002 16.4952 9.33106 16.8321 8.55177C17.1309 7.83106 17.2774 7.08399 17.2716 6.31055C17.2657 5.53418 17.1075 4.78125 16.7969 4.05177C16.5567 3.50978 16.2227 3.0088 15.795 2.54883C15.3702 2.08594 14.8809 1.70361 14.3272 1.40186C14.1485 1.30811 13.9273 1.20997 13.6636 1.10743C13.3999 1.00489 13.1597 0.93018 12.9429 0.883302C12.6793 0.821777 12.376 0.776365 12.0333 0.747068C11.6905 0.717771 11.4004 0.714844 11.1631 0.738287ZM12.1871 2.26758C12.8697 2.35254 13.4864 2.59278 14.0372 2.98829C14.5909 3.3838 15.0245 3.88185 15.338 4.48243C15.4698 4.76954 15.5709 5.03907 15.6412 5.29101C15.691 5.49609 15.7247 5.66455 15.7422 5.79639C15.7598 5.92823 15.7686 6.12012 15.7686 6.37207C15.7569 6.58887 15.7481 6.73975 15.7422 6.82472C15.7364 6.90675 15.7217 7.01368 15.6983 7.14552C15.6016 7.60254 15.4449 8.01709 15.2281 8.38916C14.8677 9.03662 14.3668 9.54346 13.7252 9.90967C13.0836 10.2759 12.3965 10.459 11.6641 10.459C11.4239 10.459 11.2159 10.4473 11.0401 10.4238C10.8672 10.3975 10.6622 10.3491 10.4248 10.2788C10.1465 10.1939 9.92386 10.188 9.75687 10.2612C9.68363 10.2964 9.51517 10.4429 9.2515 10.7007C8.98782 10.9585 8.81058 11.1123 8.71976 11.1621C8.63187 11.209 8.47952 11.2383 8.26273 11.25C8.09574 11.2617 7.9639 11.2793 7.86721 11.3027C7.77053 11.3262 7.66507 11.3657 7.55081 11.4214C7.43655 11.4741 7.3135 11.5664 7.18167 11.6982C7.04983 11.8301 6.96047 11.9502 6.91359 12.0586C6.84035 12.2022 6.79787 12.3193 6.78615 12.4102C6.77444 12.501 6.76272 12.6899 6.751 12.9771V13.5H6.22805C5.94094 13.5117 5.74905 13.5264 5.65237 13.5439C5.55569 13.5615 5.43557 13.6069 5.29201 13.6802C5.18361 13.7271 5.06349 13.8164 4.93166 13.9482C4.79982 14.0801 4.71046 14.2002 4.66358 14.3086C4.59034 14.4522 4.54786 14.5693 4.53614 14.6602C4.52443 14.751 4.51271 14.9399 4.50099 15.2271V15.75H2.25098V14.8491C2.2627 14.395 2.26856 14.1255 2.26856 14.0405C2.26856 13.9556 2.28321 13.8838 2.3125 13.8252C2.34473 13.7637 2.51026 13.5776 2.80909 13.2671C3.10791 12.9536 3.85206 12.2036 5.04152 11.0171C6.26614 9.78077 7.01907 9.01905 7.30033 8.73193C7.58158 8.44189 7.72806 8.27344 7.73977 8.22657C7.77786 8.12989 7.7969 8.04933 7.79691 7.98487C7.79691 7.91749 7.78372 7.8296 7.75735 7.72119L7.65188 7.34327C7.57864 7.03273 7.54202 6.70021 7.54202 6.34571C7.54202 5.99122 7.5845 5.65138 7.66947 5.32618C7.84818 4.58204 8.21293 3.94044 8.76371 3.40137C9.31742 2.86231 9.97221 2.50782 10.7281 2.3379C11.1968 2.22071 11.6832 2.19727 12.1871 2.26758ZM12.0772 4.53516C11.8868 4.58496 11.7198 4.68458 11.5762 4.83399C11.4327 4.98341 11.336 5.1548 11.2862 5.34815C11.2159 5.62354 11.2466 5.89307 11.3785 6.15674C11.4136 6.22705 11.4825 6.31347 11.585 6.41601C11.6876 6.51855 11.774 6.5874 11.8443 6.62256C12.0142 6.70752 12.1915 6.75 12.376 6.75C12.5606 6.75 12.7378 6.70752 12.9078 6.62256C12.9781 6.5874 13.0645 6.51855 13.167 6.41601C13.2696 6.31347 13.3384 6.22705 13.3736 6.15674C13.482 5.93994 13.5215 5.71436 13.4922 5.47999C13.4629 5.24561 13.3633 5.04493 13.1934 4.87794C12.9678 4.62598 12.6924 4.5 12.3672 4.5C12.2823 4.5 12.1856 4.51172 12.0772 4.53516Z" fill="#70737A"/>
</g>
<defs>
<clipPath id="clip0_491_285">
<rect width="18" height="18" fill="white"/>
</clipPath>
</defs>
</svg>
