<svg width="119" height="144" viewBox="0 0 119 144" fill="none" xmlns="http://www.w3.org/2000/svg">
<path d="M11.4503 23.4858L8.64778 25.7651L5.92578 36.6969V64.8679L33.8232 80.1841L59.7307 66.7824L86.0626 78.2696L104.114 74.714L112.55 50.9096L110.723 26.1294L107.268 22.6946L83.8051 23.4858L59.7307 38.8154L41.1779 25.7651L11.4503 23.4858Z" fill="white"/>
<path d="M59.7895 77.8601V61.8779C56.9767 62.1337 55.0303 64.3285 54.4088 65.394C52.5761 68.4626 57.2323 74.9833 59.7895 77.8601Z" fill="#39578E"/>
<path d="M8.73184 25.5767C11.7567 28.9573 17.0352 29.6542 19.2963 29.5801C-0.658724 49.4833 13.8805 65.8459 23.6445 71.5393C35.5034 76.7346 46.6119 71.1614 50.6838 67.7255C52.7484 61.1637 57.6692 58.5533 59.8715 58.0682C65.6526 60.2981 67.8818 65.4355 68.2737 67.7255C81.6415 76.8246 92.7134 74.0593 96.5784 71.5393C118.74 55.3005 107.681 37.0038 99.3822 29.8853C105.125 29.8451 109.204 27.024 110.526 25.6184L116.238 30.581V69.4202C116.238 74.2291 115.896 79.0608 114.691 83.7162C104.666 122.44 73.7411 139.638 58.7393 143.47C24.7201 132.131 8.68894 101.929 3.39534 83.3614C2.13549 78.9425 1.83691 74.3379 1.83691 69.7429V30.581L8.73184 25.5767Z" fill="#08257E"/>
<path d="M23.4935 15.5493C38.5985 17.0301 47.5578 23.8175 50.1494 27.0261C48.0011 17.3369 33.8284 13.2398 27.0106 12.4024L60.1454 2.77665L91.4291 12.4024C74.2892 16.8721 69.2319 24.0139 68.8456 27.0261C77.5829 18.1408 91.1206 15.6727 96.7974 15.5493C109.533 11.9951 116.542 3.7022 118.455 0C121.861 21.4728 99.0187 27.9517 87.1716 28.507C69.1048 29.6917 60.8859 44.7968 59.0348 52.2012C55.3326 32.0612 33.798 27.0261 23.4935 27.0261C-0.49696 24.3605 -1.55817 7.89805 0.910025 0C6.53739 9.92193 18.3104 14.5003 23.4935 15.5493Z" fill="#08257E"/>
<circle cx="35.0002" cy="49.3432" r="11.6379" fill="#081C57"/>
<circle cx="83.9221" cy="50.2905" r="11.6379" fill="#081C57"/>
<circle cx="30.0994" cy="43.9981" r="5.34552" fill="white"/>
<circle cx="89.2674" cy="43.9981" r="5.34552" fill="white"/>
<path d="M51.5312 78.7305C51.9773 79.4236 52.4807 80.1468 53.0312 80.8545C54.4019 82.6163 56.2907 84.586 58.5264 85.5527L59.2793 85.8779L60.0771 85.6846C61.3286 85.3811 62.8122 84.4169 64.251 82.916C65.2316 81.893 66.2562 80.552 67.2529 78.832C71.2588 82.0687 78.3355 85.748 87.7178 85.8105C87.9148 89.1121 87.8341 93.7007 87.0596 98.5938C86.0889 104.725 84.0645 111.112 80.3418 116.047L80.3242 116.069L80.3086 116.092C78.7959 118.195 75.8654 121.683 72.0996 125.131C68.5494 128.381 64.3704 131.49 60.042 133.409C57.3458 132.427 53.3674 130.575 49.4268 127.9C45.0306 124.916 40.8733 121.04 38.4912 116.403L38.4834 116.388C36.8687 113.298 34.5214 107.868 32.8213 101.779C31.315 96.3844 30.3756 90.6754 30.7725 85.6914C33.5429 85.5317 37.1294 85.0426 40.7715 84.0059C44.438 82.9621 48.35 81.3102 51.5312 78.7305Z" fill="#FFB300" stroke="#E6A101" stroke-width="4.90374"/>
<circle cx="49.022" cy="94.1653" r="3.17045" fill="#FFEBBB"/>
<rect x="45.8516" y="99.1113" width="6.3409" height="17.7902" rx="0.81729" fill="#FFEBBB"/>
<path d="M63.0557 97.3354C68.4585 97.3354 72.8386 101.715 72.8389 107.118C72.8389 112.521 68.4587 116.901 63.0557 116.901C57.6529 116.901 53.2734 112.521 53.2734 107.118C53.2737 101.715 57.653 97.3357 63.0557 97.3354ZM63.0566 102.665C60.5969 102.665 58.6025 104.659 58.6025 107.119C58.6028 109.578 60.5971 111.572 63.0566 111.572C65.516 111.572 67.5095 109.578 67.5098 107.119C67.5098 104.659 65.5162 102.665 63.0566 102.665Z" fill="#FFEBBB"/>
<path d="M67.5371 81.823V100.26L72.8388 107.671V84.9494L67.5371 81.823Z" fill="#FFEBBB"/>
<path d="M59.7421 79.843V61.8713C56.13 62.7921 54.4598 65.9142 54.0761 67.3602C53.1554 70.9014 57.4698 77.1576 59.7421 79.843Z" fill="#36548D"/>
</svg>
