<svg width="14" height="14" viewBox="0 0 14 14" fill="none" xmlns="http://www.w3.org/2000/svg">
<g clip-path="url(#clip0_360_543)">
<path d="M6.77441 0.601697C6.28906 0.619924 5.8265 0.74639 5.38672 0.981097C4.94922 1.21352 4.57438 1.52113 4.26221 1.90395C3.95004 2.28676 3.73356 2.71628 3.61279 3.19252C3.56494 3.38848 3.53645 3.54229 3.52734 3.65395C3.51823 3.7656 3.50911 4.0322 3.5 4.45375V5.25014H3.07959C2.7902 5.25925 2.5988 5.27748 2.50537 5.30483C2.17041 5.38913 1.88558 5.55319 1.65088 5.79701C1.41846 6.03854 1.26921 6.33249 1.20313 6.67885C1.1849 6.74265 1.17579 6.91924 1.17578 7.20864V11.9835L1.23047 12.1373C1.33529 12.4837 1.52214 12.7708 1.79102 12.9987C2.06218 13.2265 2.37549 13.3598 2.73096 13.3986C2.82439 13.4168 4.2474 13.4259 7 13.4259C9.75261 13.4259 11.1756 13.4168 11.269 13.3986C11.4741 13.3804 11.6701 13.3245 11.8569 13.2311C12.0734 13.1286 12.2603 12.9816 12.4175 12.7902C12.577 12.5988 12.6943 12.3812 12.7695 12.1373L12.8242 11.9835V7.20864C12.8242 6.91925 12.8151 6.74265 12.7969 6.67885C12.7308 6.33249 12.5804 6.03855 12.3457 5.79702C12.1133 5.5532 11.8296 5.38914 11.4946 5.30483C11.4012 5.27748 11.2098 5.25925 10.9204 5.25014H10.5V4.45375C10.4909 4.0322 10.4818 3.7656 10.4727 3.65395C10.4635 3.54229 10.4351 3.38848 10.3872 3.19252C10.2664 2.71628 10.0443 2.2822 9.7207 1.89028C9.39941 1.49835 9.01546 1.18617 8.56885 0.953747C8.01742 0.682587 7.41927 0.565237 6.77441 0.601697ZM7.4751 1.80483C7.97868 1.90737 8.40365 2.1546 8.75 2.54653C8.99153 2.81769 9.15901 3.12644 9.25244 3.4728C9.28206 3.60268 9.30143 3.72914 9.31055 3.85219C9.31966 3.97295 9.32422 4.20993 9.32422 4.56313V5.25014H4.67578V4.49477C4.67578 4.08461 4.68262 3.82827 4.69629 3.72573C4.70996 3.62091 4.74072 3.49444 4.78857 3.34633C4.93668 2.91794 5.1862 2.56133 5.53711 2.27651C5.88802 1.99167 6.28679 1.82077 6.7334 1.76381C6.82683 1.75469 6.94759 1.75469 7.0957 1.76381C7.24609 1.77292 7.37256 1.78659 7.4751 1.80483ZM11.269 6.45327C11.3533 6.48289 11.4308 6.53302 11.5015 6.60366C11.5721 6.67202 11.6211 6.74835 11.6484 6.83266C11.6576 6.87823 11.6621 7.71335 11.6621 9.33803V11.4367C11.653 11.6896 11.6439 11.8297 11.6348 11.8571C11.5687 12.0257 11.4513 12.143 11.2827 12.2091L11.187 12.2501H2.81299L2.71729 12.2091C2.6421 12.1795 2.58741 12.151 2.55322 12.1237C2.52132 12.0963 2.48372 12.053 2.44043 11.9938C2.39942 11.9323 2.37207 11.8787 2.3584 11.8331C2.34473 11.7853 2.33789 10.9536 2.33789 9.33803C2.33789 7.72247 2.34245 6.88734 2.35156 6.83266C2.37891 6.74835 2.42562 6.67429 2.4917 6.61049C2.55778 6.54441 2.63298 6.492 2.71729 6.45327C2.75375 6.44415 2.98617 6.43504 3.41455 6.42592H6.98633H10.5C10.9762 6.42592 11.2326 6.43503 11.269 6.45327ZM6.71973 8.20327C6.53288 8.24201 6.35515 8.34454 6.18652 8.51088C6.05664 8.64304 5.9655 8.77178 5.91309 8.89711C5.86296 9.02243 5.83789 9.16941 5.83789 9.33803C5.83789 9.58184 5.89827 9.79148 6.01904 9.96694C6.17855 10.2016 6.38135 10.3611 6.62744 10.4454C6.87581 10.5275 7.12305 10.5275 7.36914 10.4454C7.61752 10.3611 7.82145 10.2016 7.98096 9.96694C8.10173 9.79148 8.16211 9.58185 8.16211 9.33803C8.16211 9.16941 8.13591 9.02243 8.0835 8.89711C8.03337 8.77178 7.94336 8.64304 7.81348 8.51088C7.64486 8.34454 7.46257 8.242 7.2666 8.20327C7.19141 8.18504 7.10026 8.17592 6.99316 8.17592C6.88607 8.17592 6.79492 8.18503 6.71973 8.20327Z" fill="#08257E"/>
</g>
<defs>
<clipPath id="clip0_360_543">
<rect width="13.9999" height="14" fill="white"/>
</clipPath>
</defs>
</svg>
