<svg width="16" height="16" viewBox="0 0 16 16" fill="none" xmlns="http://www.w3.org/2000/svg">
<path d="M2.97657 1.37501C2.59115 1.44011 2.25651 1.60677 1.97266 1.875C1.6914 2.14062 1.4974 2.47005 1.39063 2.86328C1.3698 2.92839 1.35938 3.20052 1.35937 3.67969L1.34375 8L1.35937 12.3203C1.35937 12.7995 1.36979 13.0716 1.39063 13.1367C1.4974 13.5091 1.67579 13.8216 1.92579 14.0742C2.17839 14.3242 2.49089 14.5026 2.86329 14.6094C2.91798 14.6302 3.03517 14.6406 3.21486 14.6406L6.19143 14.6563L6.28909 14.6094C6.34117 14.5755 6.39846 14.5273 6.46096 14.4648C6.52607 14.3997 6.57424 14.3385 6.6055 14.2812C6.63935 14.2214 6.65628 14.1276 6.65628 14C6.65628 13.8724 6.64065 13.776 6.6094 13.7109C6.53388 13.5833 6.42711 13.4818 6.28909 13.4063L6.19143 13.3437L3.55079 13.3281C3.34766 13.3281 3.21615 13.3229 3.15626 13.3125C3.09897 13.3021 3.04428 13.2747 2.99219 13.2305H2.97657C2.86979 13.1576 2.78386 13.0573 2.71876 12.9297L2.67188 12.8164V3.18359L2.71876 3.07031C2.79428 2.91145 2.91147 2.79427 3.07032 2.71876L3.1836 2.67188L6.19143 2.65625L6.28909 2.60937C6.34117 2.57552 6.39846 2.52735 6.46096 2.46485C6.52607 2.39974 6.57424 2.33854 6.6055 2.28125C6.63935 2.22135 6.65628 2.12761 6.65628 2C6.65628 1.8724 6.64065 1.77604 6.6094 1.71094C6.53388 1.58333 6.42711 1.48177 6.28909 1.40625L6.19143 1.34375H4.65627C3.62241 1.34375 3.06251 1.35417 2.97657 1.37501ZM10.5118 4.01562C10.3633 4.05729 10.2383 4.14583 10.1368 4.28125C10.0352 4.41406 9.98962 4.55469 10 4.70312V4.71876C10.0105 4.81511 10.0313 4.89063 10.0625 4.94532C10.1068 5.01823 10.2084 5.14063 10.3672 5.3125L12.3829 7.34375H5.80861L5.71096 7.40625C5.57294 7.48177 5.46617 7.58333 5.39065 7.71094C5.35939 7.77604 5.34377 7.8724 5.34377 8C5.34377 8.1276 5.35939 8.22135 5.39065 8.28125C5.4245 8.33854 5.47267 8.39974 5.53517 8.46485C5.60028 8.52735 5.65887 8.57552 5.71096 8.60937L5.80861 8.65625H12.3829L11.2461 9.79297C10.7461 10.3034 10.4297 10.6289 10.2969 10.7695C10.1641 10.9076 10.086 11.0026 10.0625 11.0547C9.9792 11.237 9.974 11.4141 10.0469 11.5859C10.1224 11.7552 10.2448 11.8776 10.4141 11.9531C10.586 12.026 10.7631 12.0208 10.9454 11.9375C10.9974 11.9036 11.125 11.7917 11.3282 11.6016C11.5313 11.4089 12.0274 10.918 12.8165 10.1289C13.9779 8.96484 14.5756 8.35677 14.6094 8.30469C14.6303 8.26041 14.6433 8.22005 14.6485 8.18359C14.6537 8.14713 14.6563 8.08594 14.6563 8C14.6563 7.91407 14.6537 7.85287 14.6485 7.81641C14.6433 7.77996 14.6303 7.73959 14.6094 7.69532C14.5756 7.64323 13.9779 7.03516 12.8165 5.8711C12.0482 5.09245 11.5573 4.60548 11.3438 4.41016C11.1303 4.21224 10.9961 4.10026 10.9414 4.07422C10.8894 4.04557 10.8204 4.02604 10.7344 4.01562C10.6511 4.00521 10.5769 4.00521 10.5118 4.01562Z" fill="#EE4E4E"/>
</svg>
