<svg width="20" height="20" viewBox="0 0 20 20" fill="none" xmlns="http://www.w3.org/2000/svg">
<g clip-path="url(#clip0_486_245)">
<path d="M9.85899 0.859184C9.76785 0.872203 9.68484 0.896617 9.60996 0.932427C9.53834 0.964979 9.4651 1.0252 9.39023 1.1131C9.31861 1.19774 9.2649 1.27749 9.2291 1.35236C9.19655 1.42397 9.18027 1.54605 9.18027 1.71857V5.23907L9.23888 5.36114C9.28119 5.42625 9.34141 5.49949 9.41953 5.58087C9.50091 5.65899 9.57741 5.71921 9.64903 5.76153C9.7239 5.80059 9.84109 5.82013 10.0006 5.82013C10.1601 5.82013 10.2757 5.80059 10.3473 5.76153C10.4221 5.71921 10.4986 5.65899 10.5768 5.58087C10.6581 5.49949 10.72 5.42625 10.7623 5.36114L10.8209 5.23907V1.89923C10.8209 1.64532 10.8111 1.48256 10.7916 1.41094C10.7721 1.33607 10.7346 1.25958 10.6793 1.18146L10.6598 1.16193C10.5654 1.04149 10.4482 0.955222 10.3082 0.903127C10.1682 0.847784 10.0185 0.833136 9.85899 0.859184ZM3.88241 3.28106C3.69361 3.32012 3.53898 3.42266 3.41854 3.58868C3.30134 3.7547 3.24926 3.93862 3.26228 4.14044C3.26228 4.26088 3.28181 4.35365 3.32088 4.41876C3.37296 4.51316 3.49992 4.65964 3.70174 4.85821C3.8352 5.0047 4.16072 5.33836 4.6783 5.85918L4.70271 5.87871C5.58162 6.7446 6.06014 7.20195 6.13828 7.25078C6.21966 7.29635 6.33359 7.31915 6.48006 7.31916C6.62655 7.31916 6.73885 7.30288 6.81698 7.27033C6.89836 7.23777 6.98625 7.17429 7.08065 7.07988C7.17505 6.98548 7.23853 6.89922 7.2711 6.8211C7.30365 6.73972 7.31992 6.62578 7.31992 6.4793C7.31992 6.33281 7.29551 6.22051 7.24668 6.14238C7.20111 6.061 6.74537 5.58086 5.87948 4.70196C5.31958 4.14206 4.95662 3.78236 4.79061 3.62286C4.62459 3.46009 4.50415 3.36244 4.42928 3.32988C4.35766 3.29733 4.26814 3.27455 4.16072 3.26153C4.05331 3.24851 3.96053 3.25502 3.88241 3.28106ZM15.7184 3.28106C15.6012 3.30709 15.4677 3.38685 15.318 3.52033C15.1715 3.65379 14.7728 4.04767 14.1217 4.70196C13.2395 5.58086 12.7789 6.061 12.7399 6.14238C12.7008 6.22051 12.6813 6.33281 12.6813 6.4793C12.6813 6.62578 12.6975 6.73972 12.7301 6.8211C12.7626 6.89922 12.8261 6.98548 12.9205 7.07988C13.0149 7.17428 13.1012 7.23776 13.1793 7.27033C13.2607 7.30288 13.3746 7.31916 13.5211 7.31916C13.6676 7.31916 13.7799 7.29636 13.858 7.25078C13.9394 7.20195 14.4196 6.7446 15.2985 5.87871C15.8746 5.3058 16.2392 4.93959 16.3922 4.78008C16.5452 4.62058 16.6347 4.50665 16.6608 4.43828C16.7682 4.21367 16.7812 3.99883 16.6998 3.79376C16.6217 3.58542 16.4687 3.42755 16.2408 3.32013C16.1725 3.29409 16.0846 3.27781 15.9772 3.2713C15.873 3.26478 15.7867 3.26804 15.7184 3.28106ZM1.40193 9.21856C1.33356 9.23157 1.26683 9.26576 1.20173 9.3211C1.04222 9.42852 0.931544 9.57826 0.869696 9.77033C0.811105 9.96238 0.820872 10.1528 0.898996 10.3416C0.954339 10.4328 1.02107 10.519 1.09918 10.6004C1.18056 10.6785 1.26032 10.7355 1.33844 10.7713C1.41982 10.8039 1.54678 10.8201 1.71931 10.8201H5.23983L5.3619 10.7615C5.42701 10.7192 5.49862 10.659 5.57675 10.5809C5.65813 10.4995 5.71835 10.423 5.75742 10.3514C5.79973 10.2765 5.82089 10.1593 5.82089 9.99981C5.82089 9.84031 5.80136 9.71986 5.76229 9.63848C5.66789 9.47898 5.53443 9.35203 5.3619 9.25763L5.23983 9.1795H3.35994C2.10667 9.1795 1.454 9.19252 1.40193 9.21856ZM14.7809 9.19903C14.6735 9.22506 14.5693 9.28203 14.4684 9.36993C14.3707 9.45782 14.2975 9.54571 14.2487 9.6336C14.2031 9.71824 14.1803 9.84031 14.1803 9.99981C14.1803 10.1593 14.1998 10.2765 14.2389 10.3514C14.2812 10.423 14.3414 10.4995 14.4196 10.5809C14.5009 10.659 14.5742 10.7192 14.6393 10.7615L14.7614 10.8201H18.2819C18.4544 10.8201 18.5797 10.8039 18.6579 10.7713C18.7392 10.7355 18.819 10.6785 18.8971 10.6004C18.9785 10.519 19.042 10.4295 19.0875 10.3318C19.1364 10.2309 19.1608 10.1203 19.1608 9.99981C19.1608 9.87937 19.1413 9.76544 19.1022 9.65801C19.0078 9.47247 18.8678 9.3325 18.6823 9.2381L18.5602 9.1795H16.6998C15.4596 9.1795 14.8199 9.18601 14.7809 9.19903ZM6.27988 12.7C6.17246 12.7261 6.03899 12.8123 5.87948 12.9588C5.71997 13.1053 5.32772 13.4927 4.70271 14.1209C4.12654 14.6938 3.76196 15.06 3.60897 15.2195C3.45597 15.379 3.36645 15.493 3.34041 15.5613C3.23299 15.786 3.22648 16.0057 3.32088 16.2205C3.41528 16.4321 3.56827 16.5851 3.77987 16.6795C3.99471 16.7739 4.21444 16.7674 4.43904 16.66C4.5074 16.6339 4.62134 16.5444 4.78084 16.3914C4.94035 16.2384 5.30656 15.8738 5.87948 15.2977C6.74536 14.4188 7.2011 13.9402 7.24668 13.8621C7.29551 13.7807 7.31992 13.6668 7.31992 13.5203C7.31992 13.3738 7.30365 13.2615 7.2711 13.1834C7.23854 13.102 7.18158 13.0141 7.10019 12.9197C6.94069 12.7733 6.75351 12.6935 6.53866 12.6805C6.4052 12.6805 6.31893 12.687 6.27988 12.7ZM13.2819 12.7C13.041 12.7814 12.8603 12.9279 12.7399 13.1395C12.7008 13.2208 12.6813 13.3413 12.6813 13.5008C12.6813 13.6603 12.7041 13.7807 12.7496 13.8621C12.7985 13.9402 13.2558 14.4188 14.1217 15.2977C14.6946 15.8738 15.0608 16.2384 15.2203 16.3914C15.3798 16.5444 15.4938 16.6339 15.5621 16.66C15.7868 16.7674 16.0049 16.7739 16.2164 16.6795C16.4313 16.5851 16.5859 16.4321 16.6803 16.2205C16.7747 16.0057 16.7682 15.7859 16.6608 15.5613C16.6347 15.493 16.5452 15.379 16.3922 15.2195C16.2392 15.06 15.8746 14.6938 15.2985 14.1209L15.2203 14.0379C14.7256 13.5464 14.4049 13.2339 14.2584 13.1004C14.0599 12.9149 13.9199 12.7944 13.8385 12.7391C13.7734 12.713 13.6806 12.6935 13.5602 12.6805H13.5407C13.4072 12.6805 13.3209 12.687 13.2819 12.7ZM9.78086 14.199C9.53998 14.2804 9.35931 14.4269 9.23888 14.6385L9.18027 14.7606V18.2811C9.18027 18.4536 9.19655 18.5805 9.2291 18.6619C9.26491 18.7401 9.32188 18.8198 9.4 18.9012C9.48139 18.9793 9.57091 19.0428 9.66856 19.0916C9.76948 19.1372 9.88015 19.16 10.0006 19.16C10.121 19.16 10.2301 19.1372 10.3277 19.0916C10.4287 19.0428 10.5182 18.9793 10.5963 18.9012C10.6777 18.8198 10.7346 18.7401 10.7672 18.6619C10.803 18.5805 10.8209 18.4536 10.8209 18.2811V14.7606L10.7623 14.6385C10.6679 14.466 10.5344 14.339 10.3619 14.2576C10.2805 14.2186 10.1731 14.1958 10.0396 14.1893C9.90618 14.1828 9.81992 14.186 9.78086 14.199Z" fill="#FFD200"/>
</g>
<defs>
<clipPath id="clip0_486_245">
<rect width="20" height="20" fill="white"/>
</clipPath>
</defs>
</svg>
