<svg width="18" height="18" viewBox="0 0 18 18" fill="none" xmlns="http://www.w3.org/2000/svg">
<path d="M2.64552 2.28515C2.40529 2.32031 2.17677 2.39209 1.95996 2.50048C1.66113 2.6704 1.40918 2.8872 1.2041 3.15087C1.00195 3.41455 0.864254 3.71484 0.791011 4.05176C0.779294 4.14552 0.767577 4.43262 0.755859 4.91309V9V13.0869C0.767577 13.5674 0.779294 13.8545 0.791011 13.9482C0.887689 14.4053 1.10303 14.7935 1.43702 15.1128C1.77394 15.4292 2.17091 15.6299 2.62794 15.7148C2.7715 15.7383 4.89553 15.75 9.00004 15.75C13.1045 15.75 15.2286 15.7383 15.3721 15.7148C15.8292 15.6299 16.2247 15.4292 16.5587 15.1128C16.8956 14.7935 17.1124 14.4053 17.2091 13.9482C17.2208 13.8545 17.2325 13.5674 17.2442 13.0869V9V4.91309C17.2325 4.43262 17.2208 4.14551 17.2091 4.05176C17.1007 3.58301 16.8721 3.1875 16.5235 2.86524C16.1749 2.54005 15.7676 2.34083 15.3018 2.26758C15.1553 2.25586 13.0386 2.25 8.95169 2.25C4.86769 2.25 2.76563 2.26172 2.64552 2.28515ZM15.2623 3.79688C15.3472 3.83496 15.4249 3.8877 15.4952 3.95508C15.5684 4.01953 15.6226 4.08838 15.6578 4.16163C15.6959 4.23194 15.7178 4.2876 15.7237 4.32861C15.7296 4.36963 15.7325 4.4502 15.7325 4.57032V4.84277L12.564 6.87744C10.4517 8.21924 9.36478 8.90625 9.30326 8.93848C9.24467 8.96778 9.17289 8.98242 9.08793 8.98242L9.05278 9C8.97075 9.01172 8.88139 8.99414 8.7847 8.94726C8.65287 8.88573 8.37015 8.72314 7.93655 8.45947L2.26758 4.84277V4.57032C2.26758 4.4502 2.27051 4.36963 2.27638 4.32861C2.28224 4.2876 2.29982 4.23486 2.3291 4.17041C2.36133 4.10303 2.41554 4.03418 2.49171 3.96387C2.57082 3.89063 2.64259 3.84228 2.70704 3.81884C2.77442 3.79248 3.07765 3.77343 3.61671 3.76172H9.00004H14.3834C14.9107 3.76172 15.2037 3.77344 15.2623 3.79688ZM8.01127 10.2612C8.2017 10.355 8.39945 10.4209 8.60452 10.459C8.68948 10.4824 8.82132 10.4941 9.00004 10.4941C9.17875 10.4941 9.31059 10.4824 9.39555 10.459C9.65923 10.4092 9.8936 10.3242 10.0987 10.2041C10.2188 10.1338 11.19 9.52295 13.0123 8.37158L15.7501 6.62256L15.7325 13.6978L15.6797 13.8252C15.5831 14.0039 15.4439 14.1299 15.2623 14.2031L15.1392 14.2383H2.86085L2.7378 14.2031C2.55616 14.1299 2.417 14.0039 2.32032 13.8252L2.26758 13.6978L2.25001 6.62256L5.04055 8.38916C6.90091 9.57568 7.89115 10.1997 8.01127 10.2612Z" fill="#70737A"/>
</svg>
