<svg width="16" height="16" viewBox="0 0 16 16" fill="none" xmlns="http://www.w3.org/2000/svg">
<g clip-path="url(#clip0_499_238)">
<path d="M7.67233 0.675635C7.05521 0.696455 6.45763 0.816193 5.87957 1.03485C5.30412 1.2535 4.76642 1.56064 4.26648 1.95629C4.11545 2.07342 3.93058 2.24391 3.71185 2.46776C3.49313 2.69162 3.32518 2.87773 3.208 3.02609C2.88773 3.46339 2.63125 3.91109 2.43856 4.36921C2.24848 4.82732 2.11569 5.32839 2.04018 5.87241C2.00893 6.05461 1.99591 6.3136 2.00112 6.64938C2.00633 6.98516 2.01935 7.24936 2.04018 7.44197C2.14694 8.11354 2.36045 8.79551 2.68072 9.48789C3.06609 10.3078 3.61811 11.1746 4.33678 12.0882C5.05805 12.9993 5.89259 13.8817 6.84039 14.7354C7.01225 14.8838 7.13463 14.9879 7.20754 15.0478C7.28305 15.105 7.35856 15.1493 7.43407 15.1805C7.60333 15.2664 7.7895 15.3094 7.9926 15.3094C8.1957 15.3094 8.38188 15.2664 8.55113 15.1805C8.63706 15.1493 8.71127 15.1102 8.77376 15.0634C8.83885 15.0139 8.95733 14.915 9.12919 14.7666C9.86348 14.1055 10.5457 13.4079 11.1758 12.6739C11.806 11.9373 12.3293 11.2267 12.746 10.5421C13.3214 9.57379 13.6964 8.64974 13.8708 7.76995C14.0479 6.89016 14.0244 6.01817 13.8005 5.15399C13.5323 4.12063 13.0155 3.22001 12.2499 2.45215C11.9713 2.16322 11.6875 1.91855 11.3985 1.71811C11.112 1.51509 10.7931 1.33809 10.4415 1.18712C9.58748 0.794078 8.66441 0.623583 7.67233 0.675635ZM8.68002 2.03438C9.19298 2.10986 9.68121 2.26994 10.1447 2.51462C10.6082 2.7593 11.0209 3.07425 11.3828 3.45948C11.9062 4.00349 12.2694 4.63601 12.4725 5.35703C12.6756 6.07544 12.7069 6.80166 12.5663 7.53568C12.3007 8.84756 11.4375 10.3403 9.97675 12.014C9.73198 12.2925 9.35052 12.6882 8.83234 13.201C8.31417 13.7112 8.03426 13.9662 7.9926 13.9662C7.95094 13.9662 7.67102 13.7112 7.15286 13.201C6.63469 12.6882 6.25322 12.2926 6.00846 12.014C4.64403 10.4471 3.80168 9.03497 3.48141 7.77776C3.41632 7.53308 3.37335 7.26888 3.35251 6.98516C3.33169 6.70144 3.33169 6.43724 3.35251 6.19256C3.4072 5.68239 3.54 5.19044 3.75091 4.7167C3.96443 4.24036 4.25346 3.81608 4.618 3.44386C5.01118 3.02739 5.46946 2.69421 5.99283 2.44433C6.51621 2.19185 7.06562 2.04478 7.64108 2.00313C7.73742 1.99272 7.90797 1.99272 8.15274 2.00313C8.39751 2.01354 8.57327 2.02396 8.68002 2.03438ZM7.70357 4.00219C7.13853 4.06727 6.64771 4.28591 6.23109 4.65813C5.79625 5.04076 5.51373 5.52101 5.38353 6.09886C5.35229 6.21599 5.33666 6.37607 5.33666 6.5791C5.33666 6.77952 5.34707 6.94481 5.3679 7.07496C5.45383 7.62939 5.69469 8.10833 6.09048 8.51179C6.43158 8.86319 6.83649 9.10136 7.30519 9.22629C7.77388 9.34862 8.23997 9.34602 8.70346 9.21849C9.16695 9.08834 9.57054 8.84756 9.91425 8.49616C10.297 8.09011 10.5366 7.61637 10.6329 7.07496C10.6433 6.94481 10.6485 6.77952 10.6485 6.5791C10.6485 6.37607 10.6329 6.2212 10.6017 6.11448C10.4715 5.52621 10.189 5.04076 9.75411 4.65813C9.39999 4.34838 8.99379 4.14535 8.53551 4.04905C8.41834 4.02823 8.27382 4.01261 8.10196 4.00219C7.93271 3.99178 7.79991 3.99178 7.70357 4.00219ZM8.29725 5.36093C8.52119 5.40519 8.7295 5.52232 8.92219 5.71232C9.06019 5.85288 9.16044 5.99474 9.22293 6.1379C9.28803 6.28107 9.32057 6.44896 9.32057 6.64158C9.32057 7.04763 9.17085 7.38341 8.8714 7.64891C8.62664 7.87276 8.33371 7.98469 7.9926 7.98469C7.6515 7.98469 7.35857 7.87276 7.1138 7.64891C6.7727 7.33915 6.62818 6.95522 6.68025 6.49711C6.69067 6.33832 6.72712 6.19777 6.78962 6.07543C6.85472 5.95049 6.95106 5.82425 7.07865 5.69671C7.20885 5.56916 7.34294 5.47676 7.48095 5.41949C7.61895 5.35962 7.7843 5.32969 7.97698 5.32969C8.10457 5.32969 8.21133 5.3401 8.29725 5.36093Z" fill="#FFB300"/>
</g>
<defs>
<clipPath id="clip0_499_238">
<rect width="11.9881" height="14.6429" fill="white" transform="translate(2 0.666504)"/>
</clipPath>
</defs>
</svg>
