<svg width="14" height="14" viewBox="0 0 14 14" fill="none" xmlns="http://www.w3.org/2000/svg">
<path d="M6.52113 0.0163544C6.42999 0.0293735 6.34698 0.0537874 6.2721 0.0895969C6.20049 0.122149 6.12724 0.182373 6.05238 0.270269C5.98076 0.354907 5.92705 0.434659 5.89125 0.509526C5.85869 0.581145 5.84242 0.737392 5.84242 0.978269V5.83667H0.603137L0.481065 5.89527C0.269474 6.00269 0.126245 6.16382 0.0513779 6.37867C-0.0202414 6.59026 -0.0169843 6.79696 0.0611494 6.99878C0.116492 7.08993 0.183221 7.17619 0.261336 7.25757C0.342717 7.33569 0.42247 7.39266 0.500594 7.42847C0.581976 7.46102 0.743109 7.4773 0.983996 7.4773H5.84242V12.3357C5.84242 12.5766 5.85869 12.7377 5.89125 12.8191C5.92706 12.8972 5.98402 12.977 6.06215 13.0584C6.14353 13.1365 6.23305 13.2 6.33071 13.2488C6.43162 13.2944 6.5423 13.3171 6.66273 13.3171C6.78317 13.3171 6.89222 13.2944 6.98988 13.2488C7.09079 13.2 7.18031 13.1365 7.25844 13.0584C7.33982 12.977 7.39679 12.8972 7.42934 12.8191C7.46515 12.7377 7.48305 12.5766 7.48305 12.3357V7.4773H12.3415C12.5824 7.4773 12.7419 7.46102 12.82 7.42847C12.9014 7.39266 12.9811 7.33569 13.0592 7.25757C13.1406 7.17619 13.2041 7.08667 13.2497 6.98901C13.2985 6.8881 13.3229 6.77742 13.3229 6.65698C13.3229 6.53654 13.3034 6.42261 13.2643 6.31518C13.1699 6.12964 13.03 5.98967 12.8444 5.89527L12.7223 5.83667H7.48305V0.997797C7.48305 0.743892 7.47003 0.590902 7.444 0.538826C7.37563 0.350026 7.25519 0.206793 7.08267 0.109126C6.91014 0.00821153 6.72296 -0.0227122 6.52113 0.0163544Z" fill="#F0F5FF"/>
</svg>
