<svg width="30" height="30" viewBox="0 0 30 30" fill="none" xmlns="http://www.w3.org/2000/svg">
<path d="M15.0004 15C16.4923 15 17.923 14.4074 18.9779 13.3525C20.0328 12.2976 20.6254 10.8668 20.6254 9.375C20.6254 7.88316 20.0328 6.45242 18.9779 5.39752C17.923 4.34263 16.4923 3.75 15.0004 3.75C13.5086 3.75 12.0779 4.34263 11.023 5.39752C9.96807 6.45242 9.37544 7.88316 9.37544 9.375C9.37544 10.8668 9.96807 12.2976 11.023 13.3525C12.0779 14.4074 13.5086 15 15.0004 15ZM23.8786 26.25C25.0373 26.25 25.9279 25.1981 25.5136 24.1144C24.7007 21.9845 23.2602 20.1517 21.3827 18.8587C19.5051 17.5656 17.2792 16.8733 14.9995 16.8733C12.7198 16.8733 10.4938 17.5656 8.61634 18.8587C6.73882 20.1517 5.29829 21.9845 4.48544 24.1144C4.07294 25.1981 4.96169 26.25 6.12044 26.25H23.8786Z" fill="#B0B1B4"/>
</svg>
