<svg width="18" height="18" viewBox="0 0 18 18" fill="none" xmlns="http://www.w3.org/2000/svg">
<path d="M8.87293 3.02351C8.7909 3.03523 8.71619 3.0572 8.6488 3.08943C8.58434 3.11872 8.51842 3.17293 8.45104 3.25203C8.38659 3.32821 8.33825 3.39998 8.30603 3.46736C8.27673 3.53182 8.26208 3.67244 8.26208 3.88923V8.26179H3.54673L3.43686 8.31453C3.24643 8.41121 3.11753 8.55623 3.05015 8.74959C2.98569 8.94002 2.98862 9.12606 3.05894 9.30769C3.10875 9.38972 3.16881 9.46736 3.23911 9.5406C3.31235 9.61091 3.38413 9.66218 3.45444 9.69441C3.52768 9.72371 3.6727 9.73836 3.8895 9.73836H8.26208V14.1109C8.26208 14.3277 8.27673 14.4727 8.30603 14.546C8.33826 14.6163 8.38953 14.6881 8.45984 14.7613C8.53308 14.8316 8.61365 14.8887 8.70154 14.9327C8.79236 14.9737 8.89197 14.9942 9.00037 14.9942C9.10876 14.9942 9.20691 14.9737 9.2948 14.9327C9.38562 14.8887 9.46619 14.8316 9.5365 14.7613C9.60974 14.6881 9.66101 14.6163 9.69031 14.546C9.72254 14.4727 9.73865 14.3277 9.73865 14.1109V9.73836H14.1112C14.328 9.73836 14.4716 9.72371 14.5419 9.69441C14.6151 9.66218 14.6869 9.61091 14.7572 9.5406C14.8305 9.46736 14.8876 9.38679 14.9286 9.2989C14.9726 9.20808 14.9945 9.10847 14.9945 9.00007C14.9945 8.89168 14.977 8.78914 14.9418 8.69245C14.8568 8.52546 14.7309 8.39949 14.5639 8.31453L14.454 8.26179H9.73865V3.90681C9.73865 3.67829 9.72694 3.5406 9.7035 3.49373C9.64198 3.32381 9.53358 3.1949 9.3783 3.107C9.22303 3.01618 9.05457 2.98835 8.87293 3.02351Z" fill="#8C8F96"/>
</svg>
