<svg width="18" height="18" viewBox="0 0 18 18" fill="none" xmlns="http://www.w3.org/2000/svg">
<path d="M5.02296 0.773433C4.771 0.796867 4.51905 0.868644 4.2671 0.988764C4.01514 1.10888 3.79834 1.26563 3.6167 1.45899C3.35303 1.7461 3.16699 2.09326 3.0586 2.50048L3.00586 2.72021V15.3193L3.0586 15.5347C3.12013 15.7515 3.19776 15.9404 3.29151 16.1016C3.38819 16.2627 3.51416 16.4224 3.66943 16.5806C3.82764 16.7358 3.98731 16.8618 4.14844 16.9585C4.30958 17.0522 4.49854 17.1299 4.71534 17.1914L4.93067 17.2441H13.0694L13.2847 17.1914C13.5015 17.1299 13.6905 17.0522 13.8516 16.9585C14.0127 16.8618 14.171 16.7358 14.3262 16.5806C14.4844 16.4224 14.6104 16.2627 14.7041 16.1016C14.8008 15.9404 14.8799 15.7515 14.9415 15.5347L14.9942 15.3193V2.68066L14.9415 2.46533C14.8331 2.06982 14.647 1.73437 14.3833 1.45899C13.9996 1.05176 13.5132 0.817383 12.9244 0.755857C12.7808 0.74414 11.4668 0.738281 8.98245 0.738281C6.49806 0.738281 5.17823 0.749998 5.02296 0.773433ZM13.0518 2.32031C13.2188 2.40527 13.3448 2.53125 13.4297 2.69824L13.4825 2.82568V15.1743L13.4473 15.2842C13.3389 15.5098 13.1763 15.6533 12.9595 15.7148C12.8892 15.7383 11.5694 15.75 9.00003 15.75C6.43068 15.75 5.11085 15.7383 5.04054 15.7148C4.82374 15.6533 4.66114 15.5098 4.55275 15.2842L4.51758 15.1743V2.82568L4.57032 2.69824C4.667 2.48437 4.8296 2.34668 5.05811 2.28515C5.13136 2.26172 6.46291 2.25 9.05277 2.25L12.9244 2.26757L13.0518 2.32031ZM8.80227 12.7793C8.58547 12.8525 8.42288 12.9844 8.31448 13.1748C8.27932 13.248 8.26174 13.3506 8.26174 13.4824C8.26174 13.6143 8.27639 13.7168 8.30569 13.79C8.33792 13.8604 8.39504 13.938 8.47707 14.023C8.60891 14.1548 8.7803 14.2266 8.99123 14.2383C9.20217 14.25 9.38234 14.1811 9.53176 14.0317C9.68118 13.8823 9.75589 13.7051 9.75589 13.5C9.75589 13.2949 9.68411 13.1235 9.54056 12.9858C9.397 12.8481 9.22854 12.7734 9.03518 12.7617C8.91506 12.7617 8.83742 12.7676 8.80227 12.7793Z" fill="#70737A"/>
</svg>
