<svg width="18" height="18" viewBox="0 0 18 18" fill="none" xmlns="http://www.w3.org/2000/svg">
<path d="M8.47707 1.54693C7.78273 1.64361 7.17043 1.90874 6.64015 2.34234C6.11281 2.773 5.72902 3.3062 5.48878 3.94194C5.33351 4.36089 5.25587 4.79888 5.25587 5.25591C5.25587 5.49614 5.27345 5.71293 5.30861 5.9063C5.34669 6.09673 5.40675 6.3062 5.48878 6.53472C5.62062 6.93023 5.8213 7.29351 6.09083 7.62456C6.36329 7.95269 6.67238 8.22515 7.01809 8.44194C7.33157 8.63531 7.64651 8.77447 7.96291 8.85943C8.28225 8.94146 8.62796 8.98247 9.00003 8.98247C9.19339 8.98247 9.34866 8.97661 9.46584 8.9649C9.58596 8.95318 9.73685 8.92827 9.91849 8.89018C10.4341 8.75835 10.9073 8.51958 11.3379 8.17387C11.7715 7.82524 12.1143 7.40483 12.3662 6.91264C12.5332 6.57572 12.6475 6.19779 12.709 5.77886C12.7325 5.65874 12.7442 5.48442 12.7442 5.25591C12.7442 5.02739 12.7325 4.85307 12.709 4.73295C12.6241 4.17045 12.4249 3.65483 12.1114 3.18609C11.8008 2.71733 11.3995 2.33354 10.9073 2.03472C10.5352 1.8062 10.1148 1.64946 9.64602 1.5645C9.51419 1.54107 9.31936 1.52642 9.06155 1.52056C8.80374 1.5147 8.60891 1.52349 8.47707 1.54693ZM9.25051 3.02348C9.59915 3.04692 9.9346 3.16996 10.2569 3.39262C10.5821 3.61528 10.8311 3.898 11.0039 4.24077C11.1797 4.58061 11.2588 4.95854 11.2412 5.37456C11.2237 5.78765 11.1006 6.15678 10.8721 6.48198C10.7403 6.68412 10.5777 6.86137 10.3843 7.01372C10.1939 7.16314 9.99612 7.27886 9.79104 7.36089C9.62405 7.4107 9.50101 7.44439 9.42191 7.46196C9.34574 7.47954 9.20511 7.48833 9.00003 7.48833C8.79495 7.48833 8.65286 7.47954 8.57376 7.46196C8.49758 7.44438 8.376 7.41069 8.20901 7.36089C7.87209 7.24077 7.58059 7.04009 7.33449 6.75884C7.0884 6.47759 6.91701 6.16264 6.82033 5.81401C6.72658 5.4185 6.73244 5.02885 6.83791 4.64506C6.9463 4.26128 7.14113 3.93169 7.42238 3.6563C7.70656 3.37797 8.04641 3.18462 8.44192 3.07622C8.51516 3.05279 8.62063 3.03228 8.75832 3.0147C8.89602 2.99712 8.9883 2.99419 9.03518 3.00591L9.25051 3.02348ZM6.22706 10.5469C5.40089 10.667 4.69336 11.0215 4.10449 11.6104C3.63574 12.0791 3.31201 12.6431 3.1333 13.3023C3.07177 13.5074 3.03515 13.6963 3.02344 13.8692C3.01172 14.042 3.00586 14.3936 3.00586 14.9239V15.9126L3.0586 16.0577C3.10841 16.1397 3.16846 16.2173 3.23877 16.2906C3.42041 16.4576 3.6372 16.5205 3.88916 16.4795C4.14112 16.4385 4.3213 16.3038 4.42969 16.0752L4.48243 15.9478L4.50001 14.9239C4.51172 14.3936 4.52344 14.0625 4.53516 13.9307C4.54688 13.7989 4.57764 13.6495 4.62745 13.4825C4.74757 13.1573 4.94825 12.8658 5.2295 12.608C5.51075 12.3501 5.8257 12.1729 6.17434 12.0762C6.30617 12.0411 6.53615 12.0176 6.86428 12.0059C7.19533 11.9942 7.90725 11.9883 9.00003 11.9883C10.0928 11.9883 10.8033 11.9942 11.1314 12.0059C11.4624 12.0176 11.6939 12.0411 11.8257 12.0762C12.1861 12.1729 12.5098 12.3575 12.7969 12.6299C13.087 12.8995 13.2847 13.2071 13.3902 13.5528C13.44 13.6963 13.4678 13.8355 13.4737 13.9703C13.4795 14.1021 13.4883 14.42 13.5 14.9239L13.5176 15.9478L13.5704 16.0752C13.6788 16.3038 13.8589 16.4385 14.1109 16.4795C14.3629 16.5205 14.5796 16.4576 14.7613 16.2906C14.8316 16.2173 14.8917 16.1397 14.9415 16.0577L14.9942 15.9126V14.9239C14.9942 14.3936 14.9883 14.042 14.9766 13.8692C14.9649 13.6963 14.9283 13.5074 14.8668 13.3023C14.7964 13.0269 14.6954 12.7632 14.5635 12.5113C14.335 12.066 14.0186 11.6792 13.6143 11.3511C13.2129 11.0201 12.7735 10.7886 12.2959 10.6568L12.2388 10.6392C12.0953 10.5894 11.9693 10.5586 11.8609 10.5469C11.729 10.5352 11.4888 10.5293 11.1402 10.5293L9.07034 10.5118C7.30666 10.5118 6.3589 10.5235 6.22706 10.5469Z" fill="#B7B9BF"/>
</svg>
