<svg width="20" height="20" viewBox="0 0 20 20" fill="none" xmlns="http://www.w3.org/2000/svg">
<g clip-path="url(#clip0_375_262)">
<path d="M15.7176 0.859448C15.1316 0.898514 14.5864 1.10522 14.0818 1.47956C13.9353 1.57396 11.9675 3.52058 8.17847 7.31942C4.39264 11.1182 2.44602 13.0844 2.3386 13.2178C2.20513 13.4066 2.09445 13.6247 2.00657 13.8721C1.92193 14.1163 1.70871 14.8129 1.36691 15.962C1.02836 17.1078 0.852583 17.7198 0.839563 17.7979C0.826544 17.9184 0.836311 18.0486 0.868863 18.1885C0.901416 18.3285 0.943735 18.4457 0.995821 18.5401C1.05116 18.6345 1.13254 18.7322 1.23995 18.8331C1.34737 18.9307 1.44666 19.0007 1.53781 19.043C1.63221 19.0821 1.73963 19.1147 1.86008 19.1407C1.98052 19.1667 2.08957 19.1733 2.18723 19.1602C2.28814 19.1472 2.9457 18.96 4.15989 18.5987L5.94213 18.0421C6.19278 17.9607 6.3653 17.9005 6.4597 17.8614L6.47923 17.8419C6.6127 17.7735 6.76569 17.6661 6.93822 17.5196C7.1791 17.2917 7.69343 16.7921 8.4812 16.0206L12.6609 11.8409C16.4597 8.03881 18.4129 6.06452 18.5203 5.91805C18.6928 5.68042 18.8328 5.43465 18.9402 5.18073C19.1681 4.60782 19.2251 4.02189 19.1111 3.42293C18.9972 2.82072 18.727 2.29338 18.3006 1.84089C17.9653 1.49259 17.5779 1.23217 17.1385 1.05965C16.699 0.887124 16.2254 0.82039 15.7176 0.859448ZM16.3181 2.53913C16.5851 2.59448 16.8276 2.73282 17.0457 2.95418C17.267 3.17227 17.4054 3.41479 17.4607 3.68172C17.5389 4.0398 17.4982 4.37996 17.3387 4.70222C17.2996 4.76732 17.2003 4.88614 17.0408 5.05868C16.8129 5.29956 16.3051 5.82039 15.5174 6.62118L11.5574 10.5811C7.75854 14.38 5.82819 16.2973 5.76634 16.3331C5.70775 16.3656 5.1918 16.5317 4.21848 16.8311C3.24517 17.1306 2.752 17.2738 2.73899 17.2608C2.72597 17.2478 2.8692 16.7546 3.16867 15.7813C3.46815 14.808 3.63417 14.2921 3.66672 14.2335C3.70253 14.1716 5.61986 12.2413 9.4187 8.44246L13.3787 4.50203C14.1795 3.70125 14.7003 3.18693 14.9412 2.95906C15.1137 2.79956 15.2325 2.70027 15.2976 2.6612C15.6199 2.5017 15.9601 2.46101 16.3181 2.53913ZM10.5417 16.7188C10.4473 16.7611 10.3562 16.823 10.2683 16.9044C10.1837 16.9825 10.1235 17.059 10.0876 17.1339C10.0551 17.2055 10.0356 17.2608 10.0291 17.2999C10.0225 17.3389 10.0193 17.4057 10.0193 17.5001C10.0193 17.6466 10.0388 17.767 10.0779 17.8614C10.1853 18.06 10.3399 18.1999 10.5417 18.2813L10.6785 18.3204H17.7391L17.8611 18.2618C17.9262 18.2195 17.9978 18.1593 18.076 18.0811C18.1573 17.9998 18.2176 17.9233 18.2566 17.8516C18.2989 17.7768 18.3201 17.6596 18.3201 17.5001C18.3201 17.3406 18.3006 17.2201 18.2615 17.1387C18.1671 16.9792 18.0336 16.8523 17.8611 16.7579L17.7391 16.6798H11.0984C10.7794 16.6928 10.5938 16.7058 10.5417 16.7188Z" fill="#8C8F96"/>
</g>
<defs>
<clipPath id="clip0_375_262">
<rect width="20" height="20" fill="white"/>
</clipPath>
</defs>
</svg>
