<svg width="57" height="57" viewBox="0 0 57 57" fill="none" xmlns="http://www.w3.org/2000/svg">
<rect width="57" height="57" rx="28.5" fill="white"/>
<path d="M19 29C19 30.78 19.5278 32.5201 20.5168 34.0001C21.5057 35.4802 22.9113 36.6337 24.5558 37.3149C26.2004 37.9961 28.01 38.1743 29.7558 37.8271C31.5016 37.4798 33.1053 36.6226 34.364 35.364C35.6226 34.1053 36.4798 32.5016 36.8271 30.7558C37.1743 29.01 36.9961 27.2004 36.3149 25.5558C35.6337 23.9113 34.4802 22.5057 33.0001 21.5168C31.5201 20.5278 29.78 20 28 20C25.484 20.0095 23.069 20.9912 21.26 22.74L19 25" stroke="#70737A" stroke-width="2" stroke-linecap="round" stroke-linejoin="round"/>
<path d="M19 20V25H24" stroke="#70737A" stroke-width="2" stroke-linecap="round" stroke-linejoin="round"/>
</svg>
