<svg width="20" height="20" viewBox="0 0 20 20" fill="none" xmlns="http://www.w3.org/2000/svg">
<path d="M9.7803 3.35937C9.69892 3.37239 9.62405 3.40331 9.55569 3.45214C9.49058 3.49771 8.45868 4.51985 6.45997 6.51856L4.08203 8.94043C3.73373 9.28547 3.51237 9.52473 3.41797 9.6582C3.36589 9.73958 3.33984 9.83398 3.33984 9.9414V10C3.33984 10.2279 3.42611 10.4281 3.59863 10.6006C3.70605 10.708 3.83952 10.778 3.99903 10.8105C4.15854 10.8431 4.31153 10.8333 4.45802 10.7812C4.5394 10.7552 4.69239 10.6315 4.91699 10.4102C5.14486 10.1888 5.79916 9.53939 6.8799 8.46191C8.38707 6.95475 9.14716 6.20117 9.16018 6.20117C9.1732 6.20117 9.17971 7.83366 9.17971 11.0986V15.4004C9.17971 15.8268 9.19599 16.0807 9.22854 16.1621C9.26435 16.2402 9.32132 16.32 9.39944 16.4014C9.48082 16.4795 9.57034 16.543 9.668 16.5918C9.76892 16.6374 9.87959 16.6602 10 16.6602C10.1205 16.6602 10.2295 16.6374 10.3272 16.5918C10.4281 16.543 10.5176 16.4795 10.5957 16.4014C10.6771 16.32 10.7341 16.2402 10.7666 16.1621C10.8024 16.0807 10.8203 15.8268 10.8203 15.4004V11.0986C10.8203 7.83366 10.8269 6.20117 10.8399 6.20117C10.8529 6.20117 11.613 6.95475 13.1202 8.46191C14.2009 9.53939 14.8536 10.1888 15.0782 10.4102C15.306 10.6315 15.4607 10.7552 15.5421 10.7812C15.6885 10.8333 15.8415 10.8431 16.001 10.8105C16.1605 10.778 16.294 10.708 16.4014 10.6006C16.574 10.4281 16.6602 10.2279 16.6602 10V9.9414C16.6602 9.83398 16.6342 9.73958 16.5821 9.6582C16.4877 9.52473 16.2663 9.27896 15.918 8.9209L13.5206 6.51856C11.5186 4.50684 10.4851 3.4847 10.42 3.45214C10.3549 3.41633 10.2784 3.38541 10.1905 3.35937C10.1026 3.33333 10.0358 3.32031 9.99026 3.32031C9.94469 3.32031 9.8747 3.33333 9.7803 3.35937Z" fill="white"/>
</svg>
