<svg width="18" height="18" viewBox="0 0 18 18" fill="none" xmlns="http://www.w3.org/2000/svg">
<path d="M8.80227 0.773538C8.50345 0.796972 8.20901 0.928809 7.91897 1.16905C7.47659 1.5294 7.04739 1.82969 6.63136 2.06992C6.21828 2.31015 5.78322 2.51377 5.32619 2.68077C5.06251 2.77744 4.81056 2.85069 4.57033 2.9005C4.33009 2.94737 4.04298 2.98253 3.709 3.00596C3.50392 3.01768 3.34717 3.04844 3.23877 3.09825C3.07178 3.15685 2.90918 3.25206 2.75098 3.3839C2.59571 3.51573 2.48291 3.66515 2.41259 3.83214L2.39502 3.87168C2.33349 3.98008 2.29687 4.07529 2.28515 4.15733C2.27343 4.28917 2.26172 4.54698 2.25 4.93077V7.22031C2.25 9.15098 2.25586 10.2057 2.26758 10.3844C2.3877 11.8024 2.86231 13.0387 3.69141 14.0934C3.81153 14.2369 3.99757 14.4347 4.24953 14.6866C4.50148 14.9386 4.71096 15.1305 4.87795 15.2623C5.66897 15.898 6.64748 16.4444 7.8135 16.9015C8.20902 17.0567 8.49027 17.1593 8.65726 17.2091C8.86234 17.256 9.04837 17.2618 9.21536 17.2267C9.35892 17.2032 9.58743 17.1373 9.90091 17.0289C11.064 16.5836 12.0411 16.068 12.8321 15.482C13.1573 15.2535 13.4634 14.9942 13.7505 14.7042C14.9283 13.5294 15.5889 12.0836 15.7325 10.3668C15.7442 10.1647 15.7501 9.10997 15.7501 7.20274C15.7501 5.29258 15.7383 4.2833 15.7149 4.17491C15.6534 3.89952 15.5171 3.65782 15.3062 3.44982C15.0982 3.23888 14.8624 3.10265 14.5987 3.04111C14.5137 3.01768 14.3511 3.0001 14.1109 2.98839C13.6919 2.96495 13.2789 2.88732 12.8716 2.75548C12.1744 2.52696 11.5078 2.19591 10.8721 1.76232C10.6436 1.60704 10.3682 1.39757 10.0459 1.1339C9.68558 0.846789 9.27103 0.726669 8.80227 0.773538ZM9.36038 2.50059C9.91116 2.9459 10.481 3.31797 11.0699 3.6168C12.1128 4.14708 13.0782 4.44151 13.9659 4.5001H14.2383L14.2208 10.046C14.2208 10.3331 14.209 10.5484 14.1856 10.692C13.9922 11.8434 13.503 12.819 12.7178 13.6188C11.9327 14.4156 10.7901 15.0895 9.29008 15.6402L9.01761 15.7501L8.7847 15.6798C6.7925 14.9474 5.40675 13.9923 4.62745 12.8146C4.21729 12.2023 3.94629 11.5006 3.81446 10.7096C3.79103 10.5543 3.77931 10.339 3.7793 10.0636L3.76172 4.5001H4.01222C4.75636 4.45323 5.54884 4.24668 6.38967 3.88048C7.2305 3.51426 8.01712 3.03087 8.74955 2.43028C8.8931 2.31016 8.97659 2.2501 9.00003 2.2501C9.02346 2.2501 9.14358 2.3336 9.36038 2.50059ZM11.0699 6.76768C11.0113 6.79111 10.9571 6.81309 10.9073 6.8336C10.8604 6.85118 10.4048 7.29063 9.54056 8.15196L8.26174 9.43077L7.73879 8.91221C7.51027 8.6837 7.355 8.53868 7.27297 8.47715C7.16458 8.38047 7.07962 8.32042 7.01809 8.29698C6.9595 8.27355 6.876 8.26183 6.7676 8.26182C6.6592 8.26182 6.58742 8.26768 6.55226 8.2794C6.5171 8.29111 6.47462 8.30869 6.42482 8.33214C6.26955 8.4171 6.14943 8.53135 6.06447 8.67491C6.02931 8.74815 6.01173 8.85655 6.01173 9.0001V9.01768C6.01173 9.1378 6.02638 9.22862 6.05568 9.29015C6.08791 9.34874 6.16408 9.44395 6.2842 9.57578C6.36623 9.67246 6.5757 9.88926 6.91261 10.2262L6.96535 10.2789C7.32571 10.6393 7.56301 10.8736 7.67727 10.982C7.79153 11.0875 7.87795 11.1534 7.93655 11.1798C8.05667 11.2384 8.18265 11.2618 8.31448 11.2501C8.44632 11.2384 8.56644 11.1959 8.67483 11.1227C8.73636 11.0758 9.2886 10.5309 10.3316 9.48789C11.0757 8.74375 11.5254 8.28819 11.6807 8.1212C11.8389 7.95128 11.9297 7.83556 11.9532 7.77403C12.0352 7.53673 12.0103 7.3126 11.8785 7.10167C11.7466 6.89073 11.5547 6.77941 11.3028 6.76768C11.1944 6.75596 11.1167 6.75596 11.0699 6.76768Z" fill="#08257E"/>
</svg>
