<svg width="22" height="22" viewBox="0 0 22 22" fill="none" xmlns="http://www.w3.org/2000/svg">
<rect width="22" height="22" rx="11" fill="#12B886"/>
<path d="M15.4817 6.95313C15.4339 6.96224 15.3906 6.98161 15.3519 7.01123C15.3154 7.03858 14.29 8.06055 12.2757 10.0772L9.25078 13.085L7.96221 11.7964C7.10317 10.9396 6.64288 10.4976 6.58135 10.4702C6.52211 10.4406 6.44805 10.4258 6.35918 10.4258C6.27032 10.4258 6.19284 10.4383 6.12676 10.4634C6.06296 10.4862 6.0003 10.5238 5.93877 10.5762C5.87953 10.6263 5.83509 10.6833 5.80547 10.7471C5.78725 10.7949 5.77585 10.8325 5.77129 10.8599C5.76673 10.8872 5.76445 10.9339 5.76445 11V11.041C5.75534 11.1162 5.76901 11.1823 5.80547 11.2393C5.85333 11.3122 5.97523 11.4466 6.17119 11.6426C6.30107 11.7839 6.6235 12.1108 7.13848 12.6235L8.63555 14.1069C8.8224 14.2847 8.95228 14.3975 9.02519 14.4453C9.07305 14.4818 9.13457 14.4954 9.20976 14.4863L9.30547 14.5C9.35333 14.5 9.40004 14.4909 9.4456 14.4727C9.50257 14.4248 9.60967 14.3291 9.76689 14.1856C9.9264 14.0397 10.193 13.7856 10.5667 13.4233L12.8499 11.1401C14.2399 9.74105 15.1399 8.83643 15.5501 8.42627C15.9603 8.01384 16.1756 7.78483 16.1961 7.73926C16.2234 7.68229 16.2371 7.60254 16.2371 7.5C16.2371 7.43392 16.2348 7.38721 16.2303 7.35986C16.2257 7.33251 16.2143 7.29492 16.1961 7.24707C16.1665 7.19238 16.1209 7.1377 16.0594 7.08301C16.0001 7.02604 15.9397 6.98617 15.8782 6.96338C15.819 6.93831 15.7495 6.92578 15.6697 6.92578C15.59 6.92578 15.5273 6.9349 15.4817 6.95313Z" fill="white"/>
</svg>
