<svg width="18" height="18" viewBox="0 0 18 18" fill="none" xmlns="http://www.w3.org/2000/svg">
<path d="M8.74955 0.773436C8.72319 0.785153 8.65727 0.796875 8.5518 0.808601C8.27347 0.858409 7.99954 0.960945 7.73001 1.11621C7.46049 1.27148 7.24222 1.45752 7.07522 1.67432C6.9053 1.8794 6.78079 2.07862 6.70168 2.27197C6.62551 2.46241 6.55813 2.70703 6.49954 3.00586C6.47318 3.16113 6.44241 3.28418 6.40725 3.375C6.37209 3.46582 6.31496 3.55079 6.23587 3.62988C6.15969 3.70606 6.07034 3.77198 5.96779 3.82764C5.86525 3.88037 5.75979 3.91846 5.65139 3.9419C5.4844 3.96533 5.27493 3.92871 5.02297 3.83203C4.85305 3.76172 4.70803 3.71485 4.58791 3.6914C4.47072 3.66504 4.31544 3.65185 4.12208 3.65185C3.88185 3.64014 3.68995 3.65332 3.5464 3.6914C3.07764 3.78516 2.67481 3.9917 2.3379 4.31104C2.00391 4.63038 1.771 5.00977 1.63916 5.44922C1.50732 5.88574 1.50147 6.33106 1.62159 6.78515C1.76514 7.31249 2.07715 7.76806 2.55763 8.15185C2.7129 8.28662 2.82569 8.41699 2.896 8.54297C2.96925 8.66894 3.00587 8.82129 3.00587 9C3.00587 9.17872 2.96925 9.33106 2.896 9.45703C2.82569 9.58301 2.7129 9.71338 2.55763 9.84815C2.20899 10.1235 1.95704 10.4224 1.80177 10.7446C1.62013 11.105 1.52931 11.48 1.5293 11.8696C1.5293 12.2593 1.62012 12.6343 1.80177 12.9946C1.96876 13.3198 2.19581 13.5967 2.48292 13.8252C2.77296 14.0537 3.09083 14.209 3.43653 14.291C3.95216 14.4228 4.49269 14.3745 5.05812 14.146C5.27492 14.064 5.47854 14.0376 5.66897 14.0669C5.86233 14.0962 6.03958 14.187 6.2007 14.3394C6.36184 14.4888 6.46145 14.7012 6.49954 14.9766C6.54642 15.2988 6.63577 15.5933 6.7676 15.8599C6.96097 16.2554 7.24954 16.5762 7.63333 16.8223C8.01712 17.0684 8.4302 17.2031 8.8726 17.2266C9.40287 17.25 9.89213 17.1211 10.3404 16.8399C10.7916 16.5586 11.1182 16.1719 11.3204 15.6797C11.3936 15.4863 11.4478 15.2666 11.483 15.0205C11.521 14.7744 11.5928 14.5855 11.6983 14.4536C11.8067 14.3218 11.9327 14.2192 12.0762 14.146C12.3428 14.0259 12.6373 14.0259 12.9595 14.146C13.1529 14.231 13.3213 14.2896 13.4649 14.3218C13.6085 14.3511 13.7696 14.3657 13.9483 14.3657C14.2266 14.3657 14.4918 14.3232 14.7437 14.2383C15.1158 14.1182 15.4395 13.9204 15.7149 13.645C16.1104 13.2612 16.3492 12.8057 16.4312 12.2783C16.5162 11.748 16.4385 11.2368 16.1983 10.7446C16.043 10.4224 15.7969 10.1294 15.46 9.86572C15.293 9.73389 15.1729 9.60205 15.0997 9.47021C15.0294 9.33544 14.9942 9.17871 14.9942 9C14.9942 8.82129 15.0294 8.66894 15.0997 8.54297C15.1729 8.41699 15.2872 8.28662 15.4424 8.15185C15.7061 7.94971 15.9112 7.72852 16.0577 7.48828C16.3096 7.11622 16.4473 6.71192 16.4708 6.27539C16.4942 5.83594 16.4063 5.41846 16.2071 5.02295C16.0108 4.62744 15.7296 4.30664 15.3633 4.06054C14.9971 3.81445 14.6045 3.67822 14.1856 3.65185C13.9688 3.62842 13.7637 3.63282 13.5704 3.66505C13.3799 3.69434 13.1705 3.75733 12.942 3.85401C12.7632 3.92432 12.6109 3.95948 12.4849 3.95948C12.3589 3.95948 12.2227 3.92432 12.0762 3.85401C11.9327 3.78076 11.8067 3.67823 11.6983 3.54639C11.5928 3.41455 11.521 3.22558 11.483 2.97949C11.4478 2.7334 11.3936 2.51367 11.3204 2.32032C11.1651 1.94825 10.9278 1.62745 10.6084 1.35791C10.292 1.08838 9.93022 0.911136 9.52299 0.826176C9.44975 0.802742 9.31352 0.785162 9.1143 0.773436C8.91801 0.761719 8.79643 0.761719 8.74955 0.773436ZM9.39555 2.35987C9.52739 2.41846 9.64165 2.4961 9.73832 2.59277C9.835 2.68945 9.90092 2.79785 9.93608 2.91797C9.95951 2.97656 9.98295 3.08935 10.0064 3.25634C10.1031 3.83349 10.3433 4.31396 10.7271 4.69776C11.0406 5.02295 11.4185 5.2456 11.8609 5.36572C11.9693 5.40088 12.0557 5.42139 12.1202 5.42725C12.1875 5.43311 12.3121 5.43604 12.4937 5.43604C12.7076 5.43604 12.8775 5.42432 13.0035 5.40088C13.1294 5.37744 13.295 5.32325 13.5001 5.23829C13.6788 5.16504 13.837 5.12842 13.9747 5.12842C14.1153 5.12842 14.2632 5.1709 14.4185 5.25586C14.4888 5.29102 14.5694 5.35108 14.6602 5.43604C14.751 5.521 14.814 5.59864 14.8492 5.66895C14.9224 5.8125 14.9591 5.96631 14.9591 6.13038C14.9591 6.29151 14.9224 6.44386 14.8492 6.58741C14.814 6.67237 14.7716 6.74268 14.7217 6.79834C14.6749 6.85108 14.5972 6.91846 14.4888 7.00048C13.8296 7.53076 13.5001 8.19726 13.5001 9C13.5001 9.80273 13.8296 10.4692 14.4888 10.9995C14.6207 11.1079 14.7188 11.2075 14.7833 11.2983C14.8506 11.3862 14.8975 11.4902 14.9239 11.6103C14.9825 11.874 14.9576 12.1143 14.8492 12.3311C14.814 12.4014 14.751 12.4819 14.6602 12.5728C14.5694 12.6636 14.4888 12.7266 14.4185 12.7617C14.2515 12.835 14.1006 12.8716 13.9659 12.8716C13.834 12.8716 13.6685 12.832 13.4693 12.7529C13.273 12.6738 13.1001 12.6196 12.9507 12.5903C12.8013 12.561 12.6241 12.5522 12.419 12.564C12.0586 12.5757 11.7349 12.6475 11.4478 12.7793C11.0523 12.9727 10.7315 13.2349 10.4854 13.5659C10.2393 13.894 10.0796 14.2808 10.0064 14.7261C9.98295 14.9048 9.95951 15.0234 9.93608 15.082C9.90092 15.2022 9.835 15.3106 9.73832 15.4072C9.64165 15.5039 9.53325 15.5815 9.41313 15.6401C9.34281 15.6782 9.28568 15.7002 9.24174 15.7061C9.20072 15.7119 9.12016 15.7149 9.00004 15.7149C8.87992 15.7149 8.79788 15.7119 8.75394 15.7061C8.71292 15.7002 8.66312 15.6782 8.60452 15.6401C8.34085 15.52 8.16067 15.3413 8.06399 15.104C8.04056 15.0425 8.01712 14.9399 7.99369 14.7964C7.94388 14.4829 7.87064 14.2251 7.77396 14.023C7.61869 13.6743 7.39749 13.3799 7.11038 13.1397C6.82327 12.8994 6.49953 12.731 6.13918 12.6343C6.03079 12.5991 5.94289 12.5786 5.87551 12.5728C5.81105 12.5669 5.688 12.564 5.50636 12.564C5.2925 12.564 5.12258 12.5757 4.9966 12.5991C4.87063 12.6226 4.7051 12.6768 4.50002 12.7617C4.3213 12.835 4.16163 12.8716 4.02101 12.8716C3.88332 12.8716 3.73683 12.835 3.58155 12.7617C3.51124 12.7266 3.43068 12.6636 3.33986 12.5728C3.24904 12.4819 3.18605 12.4014 3.15089 12.3311C3.04249 12.1143 3.01759 11.874 3.07619 11.6103C3.10255 11.4902 3.14796 11.3862 3.21242 11.2983C3.2798 11.2075 3.37941 11.1079 3.51125 10.9995C4.02687 10.5894 4.34474 10.0723 4.46487 9.44824C4.4883 9.34277 4.50002 9.19336 4.50002 9C4.50002 8.80664 4.4883 8.65723 4.46487 8.55176C4.34474 7.93945 4.03273 7.42236 3.52882 7.00048C3.4087 6.91846 3.32374 6.85108 3.27394 6.79834C3.22706 6.74268 3.18605 6.67237 3.15089 6.58741C3.05421 6.38526 3.02345 6.18165 3.05861 5.97657C3.09669 5.77149 3.18751 5.59131 3.33107 5.43604C3.47462 5.28077 3.6548 5.18409 3.8716 5.146C3.97999 5.13428 4.08107 5.13574 4.17482 5.15039C4.2715 5.16211 4.39161 5.19727 4.53517 5.25586C4.72853 5.3291 4.90285 5.38037 5.05812 5.40967C5.21339 5.43897 5.3921 5.44776 5.59425 5.43604C5.79934 5.42432 5.97365 5.40382 6.11721 5.37452C6.26369 5.34229 6.4263 5.2793 6.60501 5.18554C6.86869 5.05371 7.10306 4.88525 7.30813 4.68018C7.66848 4.30811 7.897 3.83936 7.99369 3.27393C8.01712 3.09522 8.04056 2.96924 8.06399 2.896C8.09915 2.80224 8.16215 2.7041 8.25297 2.60157C8.34379 2.49903 8.43315 2.42725 8.52103 2.38624C8.61185 2.34229 8.68949 2.31153 8.75394 2.29395C8.82132 2.27637 8.90921 2.27051 9.01761 2.27637C9.12601 2.28223 9.20072 2.28809 9.24174 2.29395C9.28568 2.29981 9.34281 2.32178 9.41313 2.35987H9.39555ZM8.53422 6.04688C7.76371 6.17872 7.14554 6.53321 6.67971 7.11035C6.52151 7.30078 6.397 7.49268 6.30618 7.68604C6.21829 7.8794 6.13772 8.10206 6.06448 8.35401C6.04105 8.44776 6.0264 8.53126 6.02053 8.60449C6.01467 8.6748 6.01174 8.80664 6.01174 9C6.01174 9.24023 6.02346 9.42627 6.04689 9.5581C6.07033 9.68994 6.11867 9.85254 6.19192 10.0459C6.33548 10.4531 6.56253 10.8135 6.87307 11.127C7.18655 11.4375 7.5469 11.6646 7.95413 11.8081C8.14749 11.8813 8.31009 11.9297 8.44193 11.9531C8.57377 11.9766 8.7598 11.9883 9.00004 11.9883C9.24027 11.9883 9.4263 11.9766 9.55814 11.9531C9.68998 11.9297 9.85258 11.8814 10.0459 11.8081C10.4532 11.6646 10.8121 11.4375 11.1226 11.127C11.4361 10.8135 11.6646 10.4531 11.8082 10.0459C11.8814 9.85254 11.9297 9.68994 11.9532 9.5581C11.9766 9.42627 11.9883 9.24023 11.9883 9C11.9883 8.75977 11.9766 8.57374 11.9532 8.4419C11.9297 8.31006 11.8814 8.14746 11.8082 7.9541C11.6294 7.47656 11.3438 7.06933 10.9512 6.73243C10.5616 6.39551 10.1148 6.17285 9.61088 6.06446C9.49076 6.04102 9.30765 6.02638 9.06156 6.02051C8.81546 6.01465 8.63968 6.02344 8.53422 6.04688ZM9.37797 7.54101C9.61821 7.60254 9.84232 7.73877 10.0503 7.94971C10.2613 8.15773 10.3975 8.38184 10.459 8.62207C10.4825 8.73046 10.4942 8.85644 10.4942 9C10.4942 9.14356 10.4825 9.26367 10.459 9.36035C10.3975 9.61231 10.2671 9.84082 10.0679 10.0459C9.87163 10.2481 9.64165 10.3857 9.37797 10.459C9.2813 10.4824 9.15532 10.4941 9.00004 10.4941C8.84476 10.4941 8.71878 10.4824 8.6221 10.459C8.35842 10.3857 8.12698 10.2481 7.92777 10.0459C7.73149 9.84082 7.60258 9.61231 7.54104 9.36035C7.51761 9.26367 7.50589 9.14356 7.50589 9C7.50589 8.85645 7.51761 8.73047 7.54104 8.62207C7.59085 8.4287 7.68753 8.24267 7.83109 8.06396C7.97464 7.88525 8.14896 7.74755 8.35404 7.65088C8.65287 7.4956 8.99418 7.45898 9.37797 7.54101Z" fill="#70737A"/>
</svg>
