<svg width="20" height="20" viewBox="0 0 20 20" fill="none" xmlns="http://www.w3.org/2000/svg">
<g clip-path="url(#clip0_284_489)">
<path d="M12.2803 2.19922C12.1729 2.22525 12.0687 2.28222 11.9678 2.37012C11.8702 2.45801 11.7969 2.5459 11.7481 2.63379C11.7025 2.71843 11.6797 2.8405 11.6797 3C11.6797 3.15951 11.6993 3.27669 11.7383 3.35156C11.7806 3.42318 11.8409 3.49968 11.919 3.58106C12.0004 3.65918 12.0736 3.7194 12.1387 3.76172L12.2608 3.82032H15.4786L11.5577 7.76074C9.78681 9.53483 8.68817 10.6416 8.26174 11.0811C7.83531 11.5205 7.60745 11.7663 7.57816 11.8184C7.47398 12.0462 7.46747 12.2676 7.55863 12.4824C7.65303 12.694 7.80602 12.847 8.0176 12.9414C8.23245 13.0325 8.45381 13.026 8.68167 12.9219C8.73376 12.8926 8.97953 12.6647 9.41898 12.2383C9.85844 11.8119 10.9652 10.7132 12.7393 8.94239L16.6798 5.02149V8.23926L16.7384 8.36133C16.7807 8.42644 16.8409 8.49968 16.919 8.58106C17.0004 8.65918 17.0769 8.7194 17.1485 8.76172C17.2234 8.80078 17.3406 8.82032 17.5001 8.82032C17.6596 8.82032 17.7751 8.80078 17.8468 8.76172C17.9216 8.7194 17.9981 8.65918 18.0762 8.58106C18.1576 8.49968 18.2195 8.42644 18.2618 8.36133L18.3204 8.23926V2.74122L18.2618 2.61914C18.2195 2.55404 18.1609 2.48568 18.086 2.41406C18.0144 2.33919 17.946 2.2806 17.8809 2.23829L17.7589 2.17969H15.0391C13.239 2.17969 12.3194 2.1862 12.2803 2.19922ZM3.72071 4.71876C3.23894 4.80014 2.82064 5.00847 2.46582 5.34376C2.11426 5.67579 1.87175 6.08757 1.73829 6.5791C1.71225 6.66048 1.69923 6.94043 1.69922 7.41894L1.67969 11.7598L1.69922 16.0811C1.69922 16.5596 1.71224 16.8395 1.73829 16.9209C1.87175 17.3864 2.09474 17.777 2.40723 18.0928C2.72299 18.4053 3.11361 18.6283 3.57911 18.7617C3.66049 18.7878 3.94044 18.8008 4.41896 18.8008L8.74026 18.8203L13.0811 18.8008C13.5596 18.8008 13.8396 18.7878 13.921 18.7617C14.8552 18.5078 15.4688 17.9072 15.7618 16.96C15.7878 16.8786 15.8008 16.7126 15.8008 16.4619L15.8204 11.1787L15.7813 11.042C15.6999 10.8402 15.56 10.6855 15.3614 10.5781C15.293 10.5521 15.2393 10.5358 15.2003 10.5293C15.1612 10.5228 15.0945 10.5195 15.0001 10.5195C14.8536 10.5195 14.7396 10.5374 14.6583 10.5732C14.5801 10.6058 14.5004 10.6628 14.419 10.7441C14.3409 10.8223 14.2807 10.9004 14.2383 10.9785L14.1797 11.1201L14.1602 16.5205L14.1016 16.6621C13.9681 16.9258 13.7614 17.0853 13.4815 17.1406C13.3871 17.1667 11.8099 17.1797 8.75003 17.1797C5.69012 17.1797 4.11297 17.1667 4.01857 17.1406C3.73862 17.0853 3.53191 16.9258 3.39845 16.6621L3.33985 16.5205V6.97949L3.39845 6.83789C3.49285 6.63932 3.63933 6.49284 3.8379 6.39844L3.9795 6.33984L9.37992 6.32032L9.52152 6.26172C9.59964 6.2194 9.67777 6.15918 9.75589 6.08106C9.83728 5.99968 9.8975 5.91667 9.93657 5.83203C9.97888 5.74413 9.99678 5.6302 9.99027 5.49023C9.98375 5.35026 9.95934 5.23795 9.91702 5.15332C9.87796 5.06542 9.81448 4.98242 9.72659 4.9043C9.64195 4.82292 9.55895 4.76595 9.47758 4.7334C9.39945 4.69759 9.23343 4.67969 8.97952 4.67969H6.60158C4.78842 4.67969 3.82813 4.69271 3.72071 4.71876Z" fill="#8C8F96"/>
</g>
<defs>
<clipPath id="clip0_284_489">
<rect width="20" height="20" fill="white"/>
</clipPath>
</defs>
</svg>
