<svg width="22" height="22" viewBox="0 0 22 22" fill="none" xmlns="http://www.w3.org/2000/svg">
<rect width="22" height="22" rx="11" fill="#FF5C5C"/>
<g clip-path="url(#clip0_477_224)">
<path d="M17.4173 11.0002C17.4173 7.4535 14.5473 4.5835 11.0007 4.5835C7.45398 4.5835 4.58398 7.4535 4.58398 11.0002C4.58398 14.5468 7.45398 17.4168 11.0007 17.4168C14.5473 17.4168 17.4173 14.5468 17.4173 11.0002ZM9.76982 7.821C9.29732 8.101 8.93565 8.5385 8.75482 9.05766C8.64398 9.361 8.80732 9.6935 9.11065 9.7985C9.41398 9.90933 9.74648 9.746 9.85148 9.44266C9.94482 9.186 10.1257 8.96433 10.3648 8.82433C10.5982 8.68433 10.8782 8.63183 11.1523 8.6785C11.4207 8.72516 11.6715 8.871 11.8465 9.081C12.0215 9.291 12.1207 9.55933 12.1207 9.8335C12.1207 10.1077 11.9048 10.3935 11.5082 10.6618C11.3215 10.7843 11.1348 10.8777 10.989 10.9418C10.919 10.971 10.8607 10.9943 10.8198 11.0118C10.8023 11.0177 10.7848 11.0235 10.779 11.0293H10.7673C10.464 11.1343 10.3007 11.461 10.3998 11.7702C10.5048 12.0735 10.8315 12.2368 11.1407 12.1377C11.1465 12.1377 11.1465 12.1318 11.1465 12.1318C11.1523 12.1318 11.1582 12.1318 11.1698 12.126C11.1873 12.1202 11.2107 12.1143 11.2398 12.1027C11.2923 12.0793 11.374 12.0502 11.4615 12.0093C11.6482 11.9277 11.899 11.7993 12.1498 11.6302C12.6282 11.3152 13.2873 10.726 13.2873 9.8335C13.2873 9.28516 13.0948 8.7485 12.739 8.3285C12.3832 7.9085 11.8932 7.62266 11.3507 7.52933C10.8082 7.436 10.2482 7.541 9.76982 7.821ZM11.0065 13.3335H11.0007C10.6798 13.3335 10.4173 13.596 10.4173 13.9168C10.4173 14.2377 10.6798 14.5002 11.0007 14.5002H11.0065C11.3273 14.5002 11.5898 14.2377 11.5898 13.9168C11.5898 13.596 11.3273 13.3335 11.0065 13.3335ZM16.2507 11.0002C16.2507 13.8993 13.8998 16.2502 11.0007 16.2502C8.10148 16.2502 5.75065 13.8993 5.75065 11.0002C5.75065 8.101 8.10148 5.75016 11.0007 5.75016C13.8998 5.75016 16.2507 8.101 16.2507 11.0002Z" fill="white"/>
</g>
<defs>
<clipPath id="clip0_477_224">
<rect width="14" height="14" fill="white" transform="translate(4 4)"/>
</clipPath>
</defs>
</svg>
