<svg width="18" height="18" viewBox="0 0 18 18" fill="none" xmlns="http://www.w3.org/2000/svg">
<path d="M8.80227 0.773538C8.50345 0.796972 8.20901 0.928809 7.91897 1.16905C7.47659 1.5294 7.04739 1.82969 6.63136 2.06992C6.21828 2.31015 5.78322 2.51377 5.32619 2.68077C5.06251 2.77744 4.81056 2.85069 4.57033 2.9005C4.33009 2.94737 4.04298 2.98253 3.709 3.00596C3.50392 3.01768 3.34717 3.04844 3.23877 3.09825C3.07178 3.15685 2.90918 3.25206 2.75098 3.3839C2.59571 3.51573 2.48291 3.66515 2.41259 3.83214L2.39502 3.87168C2.33349 3.98008 2.29687 4.07529 2.28515 4.15733C2.27343 4.28917 2.26172 4.54698 2.25 4.93077V7.22031C2.25 9.15098 2.25586 10.2057 2.26758 10.3844C2.3877 11.8024 2.86231 13.0387 3.69141 14.0934C3.81153 14.2369 3.99757 14.4347 4.24953 14.6866C4.50148 14.9386 4.71096 15.1305 4.87795 15.2623C5.66896 15.898 6.64748 16.4444 7.8135 16.9015C8.20902 17.0567 8.49027 17.1593 8.65726 17.2091C8.86234 17.256 9.04837 17.2618 9.21536 17.2267C9.35892 17.2032 9.58743 17.1373 9.90091 17.0289C11.064 16.5836 12.0411 16.068 12.8321 15.482C13.1573 15.2535 13.4634 14.9942 13.7505 14.7042C14.9283 13.5294 15.5889 12.0836 15.7325 10.3668C15.7442 10.1647 15.7501 9.10997 15.7501 7.20274C15.7501 5.29258 15.7383 4.2833 15.7149 4.17491C15.6534 3.89952 15.5172 3.65782 15.3062 3.44982C15.0982 3.23888 14.8624 3.10265 14.5987 3.04111C14.5137 3.01768 14.3511 3.0001 14.1109 2.98839C13.6919 2.96495 13.2789 2.88732 12.8716 2.75548C12.1744 2.52696 11.5078 2.19591 10.8721 1.76232C10.6436 1.60704 10.3682 1.39757 10.0459 1.1339C9.68558 0.846789 9.27103 0.726669 8.80227 0.773538ZM9.36038 2.50059C9.91116 2.9459 10.481 3.31797 11.0699 3.6168C12.1128 4.14708 13.0782 4.44151 13.9659 4.5001H14.2383L14.2208 10.046C14.2208 10.3331 14.209 10.5484 14.1856 10.692C13.9922 11.8434 13.503 12.819 12.7178 13.6188C11.9327 14.4156 10.7901 15.0895 9.29008 15.6402L9.01761 15.7501L8.7847 15.6798C6.7925 14.9474 5.40675 13.9923 4.62745 12.8146C4.21729 12.2023 3.94629 11.5006 3.81446 10.7096C3.79103 10.5543 3.77931 10.339 3.7793 10.0636L3.76172 4.5001H4.01222C4.75636 4.45323 5.54884 4.24668 6.38967 3.88048C7.2305 3.51426 8.01712 3.03087 8.74955 2.43028C8.8931 2.31016 8.97659 2.2501 9.00003 2.2501C9.02346 2.2501 9.14358 2.3336 9.36038 2.50059ZM8.87259 5.27354C8.79056 5.28525 8.71585 5.30723 8.64846 5.33946C8.584 5.36875 8.51809 5.42296 8.45071 5.50206C8.38625 5.57824 8.33791 5.65001 8.30569 5.71739C8.27639 5.78185 8.26174 5.89171 8.26174 6.04697V9.21543L8.31448 9.3253C8.35257 9.38389 8.40676 9.44981 8.47708 9.52306C8.55032 9.59337 8.61917 9.64756 8.68363 9.68565C8.75101 9.72081 8.85647 9.73839 9.00003 9.73839C9.14358 9.73839 9.24759 9.72081 9.31205 9.68565C9.37943 9.64756 9.44827 9.59337 9.51859 9.52306C9.59183 9.44981 9.64749 9.38389 9.68557 9.3253L9.73832 9.21543V6.20958C9.73832 5.98106 9.72953 5.83458 9.71195 5.77012C9.69437 5.70274 9.66068 5.63389 9.61087 5.56358L9.5933 5.54601C9.50834 5.43761 9.40287 5.35997 9.27688 5.31309C9.15091 5.26328 9.01614 5.25009 8.87259 5.27354ZM8.80227 11.2853C8.62356 11.3351 8.48586 11.4317 8.38918 11.5753C8.29251 11.7189 8.25003 11.8785 8.26174 12.0543C8.27346 12.2272 8.33938 12.3795 8.4595 12.5113C8.53274 12.5816 8.59866 12.6358 8.65726 12.6739C8.83889 12.756 9.01907 12.7706 9.19779 12.7179C9.3765 12.6622 9.52006 12.5567 9.62845 12.4015C9.73685 12.2462 9.77347 12.0719 9.73832 11.8785C9.7266 11.7848 9.70463 11.7086 9.6724 11.65C9.6431 11.5885 9.59183 11.5284 9.51859 11.4698C9.44827 11.4083 9.37943 11.36 9.31205 11.3248C9.24759 11.2867 9.16409 11.2648 9.06155 11.2589C8.96194 11.253 8.87552 11.2618 8.80227 11.2853Z" fill="#70737A"/>
</svg>
