<svg width="71" height="56" viewBox="0 0 71 56" fill="none" xmlns="http://www.w3.org/2000/svg">
<circle cx="4.11499" cy="16.0188" r="4.11499" fill="#FFCC00"/>
<rect y="22.4385" width="8.22998" height="23.0902" rx="1.51257" fill="#08257E"/>
<rect x="36.7021" y="22.439" width="8.22998" height="23.0897" rx="1.51257" fill="#08257E"/>
<path d="M22.4658 20.1338C29.4785 20.1338 35.164 25.8184 35.1641 32.8311C35.1641 39.8437 29.4785 45.5283 22.4658 45.5283C15.4533 45.5281 9.76855 39.8436 9.76855 32.8311C9.76859 25.8185 15.4533 20.134 22.4658 20.1338ZM22.4658 27.0508C19.2734 27.0508 16.6858 29.6387 16.6855 32.8311C16.6855 36.0236 19.2733 38.6123 22.4658 38.6123C25.6583 38.6123 28.2461 36.0236 28.2461 32.8311C28.2458 29.6388 25.6582 27.0508 22.4658 27.0508Z" fill="#08257E"/>
<path d="M28.2822 2.80961V26.3238C28.2822 26.6126 28.3649 26.8954 28.5206 27.1388L32.3769 33.1684C33.1912 34.4417 35.1637 33.8649 35.1637 32.3534V6.16745C35.1637 5.1507 34.6529 4.20196 33.8042 3.64214L30.6276 1.54696C29.622 0.883648 28.2822 1.6049 28.2822 2.80961Z" fill="#08257E"/>
<path d="M63.9875 29.9437V47.6984C63.9875 48.4405 64.2469 49.1593 64.7207 49.7304L68.9915 54.878C69.6257 55.6425 70.8686 55.194 70.8686 54.2007V32.3637C70.8686 31.9645 70.6445 31.5991 70.2886 31.4181L65.5291 28.9981C64.8234 28.6393 63.9875 29.152 63.9875 29.9437Z" fill="#08257E"/>
<path d="M70.0202 22.439C70.4799 22.439 70.8686 22.8036 70.8686 23.2737V33.0232C70.8685 39.9121 65.4067 45.4971 58.6696 45.4972C51.9325 45.4972 46.4708 39.9122 46.4707 33.0232V23.2737C46.4707 22.8036 46.8584 22.439 47.3181 22.439H52.2237C52.7177 22.439 53.1182 22.8394 53.1182 23.3335V32.6652C53.1182 35.7343 55.5512 38.2219 58.5526 38.2221C61.5541 38.2221 63.988 35.7344 63.988 32.6652V23.3335C63.988 22.8394 64.3885 22.439 64.8825 22.439H70.0202Z" fill="#08257E"/>
</svg>
