<svg width="14" height="14" viewBox="0 0 14 14" fill="none" xmlns="http://www.w3.org/2000/svg">
<g clip-path="url(#clip0_360_558)">
<path d="M6.69238 0.601517C5.91764 0.628864 5.1748 0.797484 4.46387 1.10738C3.75521 1.415 3.12061 1.83769 2.56006 2.37545C2.00179 2.91093 1.55404 3.52844 1.2168 4.22799C0.890954 4.90019 0.690431 5.6191 0.615231 6.38473C0.597004 6.51461 0.587891 6.71968 0.587891 6.99996C0.587891 7.28023 0.597004 7.48531 0.615231 7.61519C0.690424 8.38081 0.890947 9.09973 1.2168 9.77193C1.65658 10.7062 2.2889 11.4855 3.11377 12.1098C3.94092 12.7342 4.85807 13.1352 5.86523 13.3129C6.2207 13.379 6.59895 13.4121 7 13.4121C7.50358 13.4121 7.98096 13.3608 8.43213 13.2583C8.88558 13.1557 9.33675 12.9974 9.78564 12.7832C10.6265 12.3707 11.3477 11.8033 11.9492 11.081C12.5508 10.3587 12.9689 9.54406 13.2036 8.63717C13.3996 7.89205 13.46 7.14123 13.3848 6.38473C13.3096 5.62821 13.1091 4.90474 12.7832 4.21432C12.3913 3.41223 11.8512 2.71724 11.1631 2.12935C10.4772 1.54145 9.70589 1.11649 8.84912 0.854447C8.17692 0.649367 7.45801 0.565057 6.69238 0.601517ZM7.65967 1.79098C8.37744 1.8844 9.04167 2.11113 9.65234 2.47115C10.263 2.83117 10.7837 3.30057 11.2144 3.87935C11.7658 4.61535 12.1019 5.46414 12.2227 6.42574C12.2318 6.53739 12.2363 6.7288 12.2363 6.99996C12.2363 7.27112 12.2318 7.46252 12.2227 7.57418C12.1292 8.34892 11.8888 9.05871 11.5015 9.70357C11.1141 10.3461 10.6025 10.8873 9.9668 11.3271C9.65007 11.5504 9.30029 11.7373 8.91748 11.8877C8.53467 12.0358 8.13818 12.1383 7.72803 12.1953C7.55941 12.2226 7.31673 12.2363 7 12.2363C6.68327 12.2363 6.44059 12.2226 6.27197 12.1953C5.5542 12.0927 4.90137 11.8637 4.31348 11.5083C3.72559 11.1528 3.21631 10.6902 2.78564 10.1206C2.23421 9.38456 1.89811 8.53576 1.77734 7.57418C1.76823 7.46252 1.76367 7.27112 1.76367 6.99996C1.76367 6.7288 1.76823 6.53739 1.77734 6.42574C1.87077 5.67834 2.09408 4.99475 2.44727 4.37496C2.80274 3.75516 3.28011 3.22538 3.87939 2.7856C4.2417 2.51444 4.64388 2.29113 5.08594 2.11568C5.53027 1.93794 5.97233 1.82971 6.41211 1.79098L6.66504 1.76363C6.72884 1.75451 6.88721 1.75451 7.14014 1.76363C7.39307 1.77274 7.56624 1.78186 7.65967 1.79098ZM8.60986 5.26363C8.56429 5.28185 8.52213 5.29894 8.4834 5.3149C8.44694 5.32857 8.09261 5.67037 7.42041 6.34029L6.42578 7.33492L6.01904 6.9316C5.84131 6.75386 5.72054 6.64107 5.65674 6.59322C5.57243 6.51802 5.50635 6.47131 5.4585 6.45309C5.41293 6.43486 5.34798 6.42574 5.26367 6.42574C5.17936 6.42574 5.12354 6.43029 5.09619 6.43941C5.06884 6.44852 5.0358 6.46219 4.99707 6.48043C4.8763 6.54651 4.78288 6.63537 4.7168 6.74703C4.68945 6.80399 4.67578 6.8883 4.67578 6.99996V7.01363C4.67578 7.10705 4.68717 7.17769 4.70996 7.22555C4.73503 7.27112 4.79427 7.34517 4.8877 7.44771C4.9515 7.5229 5.11442 7.69152 5.37646 7.95357L5.41748 7.99459C5.69775 8.27486 5.88232 8.45715 5.97119 8.54146C6.06006 8.62349 6.12728 8.67476 6.17285 8.69527C6.26628 8.74084 6.36426 8.75907 6.4668 8.74996C6.56934 8.74084 6.66276 8.7078 6.74707 8.65084C6.79492 8.61438 7.22445 8.19055 8.03564 7.37935C8.61441 6.80057 8.96419 6.44625 9.08496 6.31637C9.20801 6.18421 9.27865 6.0942 9.29688 6.04635C9.36068 5.86177 9.34131 5.68746 9.23877 5.5234C9.13623 5.35934 8.98698 5.27275 8.79102 5.26363C8.70671 5.25451 8.64633 5.25451 8.60986 5.26363Z" fill="#43A047"/>
</g>
<defs>
<clipPath id="clip0_360_558">
<rect width="13.9999" height="14" fill="white"/>
</clipPath>
</defs>
</svg>
