<svg width="22" height="22" viewBox="0 0 22 22" fill="none" xmlns="http://www.w3.org/2000/svg">
<mask id="path-1-inside-1_219_487" fill="white">
<path d="M0 11C0 4.92487 4.92487 0 11 0C17.0751 0 22 4.92487 22 11C22 17.0751 17.0751 22 11 22C4.92487 22 0 17.0751 0 11Z"/>
</mask>
<path d="M0 11M22 11M22 11M0 11M11 0M22 11M11 22M0 11M11 22V21.2381C5.34566 21.2381 0.761905 16.6543 0.761905 11H0H-0.761905C-0.761905 17.4959 4.50408 22.7619 11 22.7619V22ZM22 11H21.2381C21.2381 16.6543 16.6543 21.2381 11 21.2381V22V22.7619C17.4959 22.7619 22.7619 17.4959 22.7619 11H22ZM11 0V0.761905C16.6543 0.761905 21.2381 5.34566 21.2381 11H22H22.7619C22.7619 4.50408 17.4959 -0.761905 11 -0.761905V0ZM11 0V-0.761905C4.50408 -0.761905 -0.761905 4.50408 -0.761905 11H0H0.761905C0.761905 5.34566 5.34566 0.761905 11 0.761905V0Z" fill="#CACCD3" mask="url(#path-1-inside-1_219_487)"/>
</svg>
