<svg width="22" height="22" viewBox="0 0 22 22" fill="none" xmlns="http://www.w3.org/2000/svg">
<mask id="path-1-inside-1_375_641" fill="white">
<path d="M0 11C0 4.92487 4.92487 0 11 0C17.0751 0 22 4.92487 22 11C22 17.0751 17.0751 22 11 22C4.92487 22 0 17.0751 0 11Z"/>
</mask>
<path d="M0 11M22 11M22 11M0 11M11 0M22 11M11 22M0 11M11 22V20.6667C5.66125 20.6667 1.33333 16.3388 1.33333 11H0H-1.33333C-1.33333 17.8115 4.18849 23.3333 11 23.3333V22ZM22 11H20.6667C20.6667 16.3388 16.3388 20.6667 11 20.6667V22V23.3333C17.8115 23.3333 23.3333 17.8115 23.3333 11H22ZM11 0V1.33333C16.3388 1.33333 20.6667 5.66125 20.6667 11H22H23.3333C23.3333 4.18849 17.8115 -1.33333 11 -1.33333V0ZM11 0V-1.33333C4.18849 -1.33333 -1.33333 4.18849 -1.33333 11H0H1.33333C1.33333 5.66125 5.66125 1.33333 11 1.33333V0Z" fill="#E5E7EB" mask="url(#path-1-inside-1_375_641)"/>
</svg>
