<svg width="20" height="20" viewBox="0 0 20 20" fill="none" xmlns="http://www.w3.org/2000/svg">
<path d="M8.17874 0.85937C8.00621 0.885408 7.85322 0.97167 7.71975 1.11816C7.58628 1.26464 7.51304 1.43229 7.50002 1.6211C7.50002 1.75456 7.52931 1.88803 7.5879 2.02148C7.64975 2.15495 7.7409 2.26075 7.86135 2.33887L7.88088 2.3584C7.94598 2.41374 8.0176 2.44792 8.09572 2.46094C8.1771 2.47396 8.34475 2.48698 8.59865 2.5H11.4014C11.6553 2.48698 11.8213 2.47396 11.8995 2.46094C11.9808 2.44792 12.0541 2.41374 12.1192 2.3584L12.1387 2.33887C12.3405 2.2054 12.4577 2.02962 12.4903 1.81153C12.5228 1.59017 12.4756 1.38346 12.3487 1.1914C12.2217 0.996084 12.0394 0.885408 11.8018 0.85937C11.6944 0.833332 11.0873 0.820312 9.9805 0.820312C8.87372 0.820312 8.27314 0.833332 8.17874 0.85937ZM9.28225 4.19921C8.348 4.29361 7.4577 4.55403 6.61134 4.98047C5.76499 5.4069 5.02768 5.9733 4.39942 6.67968C3.37402 7.83854 2.7539 9.21224 2.53905 10.8008C2.51302 10.9994 2.50325 11.3086 2.50977 11.7285C2.51628 12.1484 2.53256 12.4528 2.5586 12.6416C2.653 13.3219 2.81901 13.9518 3.05664 14.5313C3.29753 15.1107 3.61817 15.6673 4.01856 16.2012C4.16505 16.3867 4.37501 16.6195 4.64845 16.8994C4.92189 17.1794 5.1465 17.3926 5.32228 17.5391C5.73569 17.8581 6.18166 18.138 6.66017 18.3789C7.22007 18.6458 7.76369 18.8428 8.29104 18.9697C8.81838 19.0967 9.38805 19.1602 10 19.1602C10.612 19.1602 11.1817 19.0967 11.709 18.9697C12.2364 18.8428 12.78 18.6458 13.3399 18.3789C13.7273 18.1803 14.0707 17.972 14.3702 17.7539C14.6696 17.5325 14.987 17.2542 15.3223 16.9189C16.1329 16.1182 16.7253 15.1855 17.0997 14.1211C17.3406 13.4277 17.4708 12.6921 17.4903 11.9141C17.5098 11.1328 17.4268 10.3874 17.2413 9.67773C16.9874 8.7858 16.5935 7.97688 16.0596 7.25097C15.5258 6.52505 14.8731 5.90168 14.1016 5.38086C13.9421 5.27344 13.7012 5.13997 13.3789 4.98047C13.0599 4.82097 12.8077 4.70703 12.6221 4.63867C12.1013 4.45313 11.5609 4.31967 11.001 4.23828C10.8415 4.21225 10.555 4.19597 10.1416 4.18946C9.72822 4.18294 9.44176 4.18619 9.28225 4.19921ZM10.6592 5.8789C11.5935 5.9733 12.4626 6.29719 13.2666 6.85058C14.0739 7.40396 14.7055 8.10058 15.1612 8.94043C15.5746 9.72819 15.7943 10.5745 15.8204 11.4795C15.8464 12.4398 15.6592 13.3333 15.2588 14.1602C15.1124 14.4922 14.9528 14.7786 14.7803 15.0195C14.6078 15.2604 14.3946 15.5078 14.1407 15.7617C13.8868 16.0124 13.6459 16.2223 13.418 16.3916C13.1934 16.5576 12.9281 16.7204 12.6221 16.8799C11.6065 17.3877 10.5355 17.5846 9.40921 17.4707C8.2829 17.3568 7.26727 16.9401 6.36231 16.2207C6.14746 16.0482 5.91309 15.8252 5.6592 15.5518C5.40529 15.2783 5.19858 15.0081 5.03906 14.7412C4.4401 13.7939 4.15039 12.7441 4.16993 11.5918C4.18947 10.4362 4.51336 9.38639 5.14161 8.44238C5.71452 7.57324 6.47462 6.90592 7.42189 6.44043C8.40822 5.94564 9.48733 5.75846 10.6592 5.8789ZM12.3584 8.35937C12.2673 8.37239 12.1875 8.3968 12.1192 8.43261C12.0541 8.46516 11.5609 8.93392 10.6397 9.83887C9.9984 10.4932 9.60777 10.8936 9.4678 11.04C9.32783 11.1865 9.24482 11.2939 9.21877 11.3623C9.15366 11.5609 9.16018 11.7643 9.23831 11.9727C9.31969 12.1777 9.45316 12.3275 9.6387 12.4219C9.7331 12.4609 9.85354 12.4805 10 12.4805H10.0391C10.1465 12.4805 10.2393 12.4609 10.3174 12.4219C10.3988 12.3796 10.5404 12.2656 10.7422 12.0801C10.8887 11.9466 11.2077 11.6325 11.6993 11.1377L11.8604 10.9814C12.5017 10.3402 12.8923 9.94303 13.0323 9.79004C13.1722 9.63705 13.2552 9.52637 13.2813 9.45801C13.3464 9.25944 13.3448 9.07064 13.2764 8.8916C13.2113 8.7093 13.0957 8.56607 12.9297 8.46191C12.7637 8.35449 12.5733 8.32031 12.3584 8.35937Z" fill="white" fill-opacity="0.501961"/>
</svg>
