<svg width="16" height="16" viewBox="0 0 16 16" fill="none" xmlns="http://www.w3.org/2000/svg">
<g clip-path="url(#clip0_360_880)">
<path d="M7.61788 0.687496C7.36006 0.697911 7.11657 0.720048 6.8874 0.753907C6.65824 0.78516 6.50719 0.821618 6.43427 0.863279C6.30406 0.928383 6.2038 1.02734 6.13349 1.16016C6.06578 1.29297 6.04755 1.42839 6.0788 1.56641C6.12308 1.79037 6.24678 1.95053 6.4499 2.04688C6.5124 2.09115 6.58662 2.11329 6.67256 2.11328C6.75849 2.11328 6.88349 2.10286 7.04756 2.08203C7.21423 2.0586 7.37699 2.03646 7.53584 2.01562C7.98376 1.98437 8.46423 2.0052 8.97725 2.07812C9.12569 2.10156 9.24288 2.11328 9.32882 2.11328C9.41476 2.11328 9.48897 2.09115 9.55147 2.04688C9.79887 1.92969 9.92257 1.73307 9.92257 1.45703C9.93299 1.32942 9.90564 1.21224 9.84054 1.10547C9.77543 0.9987 9.6895 0.919271 9.58273 0.867187C9.47856 0.812498 9.24418 0.76302 8.87959 0.718753C8.80668 0.708338 8.63611 0.695317 8.36788 0.67969C8.10225 0.664063 7.95902 0.65625 7.93819 0.65625L7.61788 0.687496ZM4.0788 1.83984C3.93036 1.89453 3.68297 2.06641 3.33661 2.35547C2.99025 2.64193 2.69468 2.92839 2.44989 3.21484C2.35354 3.32162 2.24416 3.46094 2.12176 3.63281C1.99937 3.80208 1.92124 3.91667 1.88738 3.97656C1.85613 4.03385 1.83529 4.10547 1.82488 4.1914C1.81446 4.27734 1.81967 4.35807 1.8405 4.43359C1.87175 4.57161 1.94858 4.68879 2.07097 4.78515C2.19597 4.8815 2.32748 4.92968 2.46551 4.92969C2.69989 4.92969 2.8965 4.82292 3.05535 4.60937C3.31317 4.25521 3.54754 3.97005 3.75849 3.75391C3.97203 3.53516 4.25588 3.30208 4.61004 3.05468C4.72723 2.97135 4.81187 2.88411 4.86395 2.79297C4.91864 2.70182 4.94599 2.59245 4.94599 2.46484C4.94599 2.24088 4.85224 2.0625 4.66473 1.92969C4.47723 1.79428 4.28192 1.76433 4.0788 1.83984ZM11.5202 1.85547C11.3718 1.91016 11.265 1.9961 11.1999 2.11328C11.1478 2.17578 11.1166 2.23177 11.1062 2.28124C11.0958 2.32812 11.0905 2.38932 11.0905 2.46484C11.0905 2.69922 11.1804 2.88542 11.3601 3.02344L11.6179 3.21484C12.0971 3.56641 12.5281 4.01433 12.9109 4.55859C12.9864 4.66537 13.0502 4.74349 13.1023 4.79297C13.157 4.83984 13.2221 4.87369 13.2976 4.89452C13.5528 4.99088 13.7872 4.944 14.0007 4.75391C14.0971 4.65756 14.1583 4.53776 14.1843 4.39452C14.2103 4.24869 14.1921 4.11197 14.1296 3.98438C14.0958 3.92969 14.015 3.8151 13.8874 3.64063C13.7598 3.46355 13.6478 3.32162 13.5515 3.21484C13.2103 2.82162 12.821 2.45964 12.3835 2.1289C12.2142 2.0013 12.0945 1.92187 12.0241 1.89063C11.9564 1.85678 11.8692 1.83724 11.7624 1.83203C11.6556 1.82682 11.5749 1.83463 11.5202 1.85547ZM1.34441 6.07812C1.24806 6.10156 1.15431 6.14583 1.06316 6.21094C0.974619 6.27343 0.908211 6.34244 0.863936 6.41796C0.801437 6.55598 0.74805 6.83072 0.703776 7.24218C0.662107 7.65103 0.651692 8.02604 0.67253 8.36719C0.703783 8.80469 0.746751 9.14583 0.801433 9.39063C0.863932 9.65886 1.0293 9.82943 1.29754 9.90234C1.43556 9.94662 1.57879 9.9349 1.72722 9.86719C1.87826 9.79687 1.98503 9.6914 2.04754 9.55078C2.09182 9.46744 2.11395 9.38801 2.11394 9.3125C2.11394 9.23698 2.10222 9.125 2.07879 8.97656C1.98503 8.32552 1.98503 7.67448 2.07879 7.02344C2.10222 6.875 2.11394 6.76302 2.11394 6.6875C2.11394 6.61198 2.09181 6.53776 2.04754 6.46484C1.99546 6.32683 1.8991 6.22266 1.75848 6.15234C1.62046 6.08203 1.48243 6.05729 1.34441 6.07812ZM14.4343 6.07812C14.1973 6.1224 14.032 6.25131 13.9382 6.46484C13.9044 6.53776 13.8874 6.61198 13.8874 6.6875C13.8874 6.76302 13.8978 6.88411 13.9187 7.05078C13.9421 7.21484 13.9643 7.3763 13.9851 7.53515C14.0163 7.98307 13.9955 8.46354 13.9226 8.97656C13.8992 9.12499 13.8874 9.23697 13.8874 9.3125C13.8874 9.38802 13.9096 9.46745 13.9538 9.55078C14.0163 9.6914 14.1218 9.79687 14.2702 9.86719C14.4213 9.9349 14.5658 9.94662 14.7038 9.90234C14.9721 9.82943 15.1374 9.65886 15.1999 9.39063C15.2546 9.14583 15.2976 8.80469 15.3288 8.36719C15.3497 8.02604 15.338 7.65104 15.2937 7.24218C15.252 6.83072 15.1986 6.56119 15.1335 6.43359C15.071 6.30338 14.9708 6.20702 14.8328 6.14452C14.6947 6.07942 14.5619 6.05729 14.4343 6.07812ZM2.28973 11.0703C2.2142 11.1042 2.13348 11.1536 2.04754 11.2188C1.9642 11.2813 1.91082 11.3385 1.88738 11.3906C1.78061 11.6042 1.7754 11.8125 1.87176 12.0156C1.90561 12.0807 1.99154 12.2031 2.12956 12.3828C2.55665 12.9479 3.05275 13.444 3.61786 13.8711C3.79755 14.0091 3.91864 14.0951 3.98114 14.1289C4.04624 14.1602 4.13999 14.1758 4.26239 14.1758C4.38738 14.1758 4.48114 14.1549 4.54364 14.1133C4.65042 14.0586 4.73766 13.9831 4.80536 13.8867C4.87568 13.7904 4.91083 13.6836 4.91083 13.5664C4.92386 13.418 4.90041 13.2982 4.84051 13.207C4.78322 13.1159 4.65822 12.9961 4.46552 12.8477C4.17646 12.6237 3.92776 12.4049 3.71942 12.1914C3.51109 11.9779 3.28973 11.7109 3.05535 11.3906C2.99285 11.3073 2.93686 11.2448 2.88739 11.2031C2.84051 11.1588 2.78452 11.1263 2.71942 11.1055C2.65692 11.082 2.5801 11.0677 2.48895 11.0625C2.3978 11.0573 2.33139 11.0599 2.28973 11.0703ZM13.3445 11.1055C13.2481 11.1263 13.1674 11.1667 13.1023 11.2266C13.0398 11.2839 12.9708 11.3659 12.8952 11.4727C12.5228 11.9831 12.0971 12.4206 11.6179 12.7852C11.4252 12.9232 11.3015 13.0169 11.2468 13.0664C11.1947 13.1133 11.153 13.168 11.1218 13.2305C11.0671 13.3607 11.0502 13.4948 11.071 13.6328C11.0944 13.7708 11.153 13.8906 11.2468 13.9922C11.3431 14.0937 11.4603 14.1575 11.5984 14.1836C11.739 14.2096 11.8731 14.1914 12.0007 14.1289C12.0658 14.1081 12.1856 14.0312 12.3601 13.8984C12.5372 13.763 12.6791 13.6471 12.7859 13.5508C13.1791 13.2096 13.5411 12.8203 13.8718 12.3828C14.0098 12.2031 14.0945 12.082 14.1257 12.0195C14.1596 11.9544 14.1765 11.8607 14.1765 11.7383C14.1765 11.6133 14.1609 11.5195 14.1296 11.457C14.0541 11.3164 13.9473 11.2148 13.8093 11.1523C13.7442 11.1107 13.6583 11.0898 13.5515 11.0898C13.4447 11.0898 13.3757 11.0951 13.3445 11.1055ZM6.55928 13.9023C6.47594 13.9258 6.39391 13.97 6.31318 14.0352C6.23245 14.0977 6.17646 14.1654 6.14521 14.2383C6.03843 14.431 6.03322 14.6263 6.12958 14.8242C6.22593 15.0221 6.38609 15.1484 6.61005 15.2031C6.83402 15.2552 7.11657 15.2917 7.45771 15.3125C7.79886 15.3333 8.10225 15.3385 8.36788 15.3281C8.80538 15.2969 9.14653 15.2539 9.39132 15.1992C9.55278 15.1576 9.68429 15.0781 9.78585 14.9609C9.88741 14.8437 9.93299 14.7044 9.92257 14.543C9.92257 14.2669 9.79887 14.0703 9.55147 13.9531C9.48897 13.9089 9.40694 13.8867 9.30538 13.8867C9.20382 13.8867 9.04627 13.9036 8.83273 13.9375C8.70512 13.9583 8.59314 13.9713 8.49678 13.9766C8.40043 13.9818 8.22986 13.9844 7.98506 13.9844C7.6335 13.9844 7.36136 13.9688 7.16865 13.9375C6.83792 13.8828 6.6348 13.8711 6.55928 13.9023Z" fill="#B0B1B4"/>
</g>
<defs>
<clipPath id="clip0_360_880">
<rect width="16" height="16" fill="white"/>
</clipPath>
</defs>
</svg>
