<svg width="108" height="85" viewBox="0 0 108 85" fill="none" xmlns="http://www.w3.org/2000/svg">
<circle cx="6.25679" cy="24.3564" r="6.25679" fill="white"/>
<rect y="34.1174" width="12.5136" height="35.1084" rx="2.29985" fill="white"/>
<rect x="55.8047" y="34.1189" width="12.5136" height="35.1077" rx="2.29985" fill="white"/>
<path d="M34.1582 30.613C44.8207 30.6133 53.4639 39.2572 53.4639 49.9197C53.4637 60.582 44.8206 69.2261 34.1582 69.2263C23.4956 69.2263 14.8517 60.5822 14.8516 49.9197C14.8516 39.257 23.4955 30.613 34.1582 30.613ZM34.1572 41.1296C29.3031 41.1297 25.3682 45.0655 25.3682 49.9197C25.3683 54.7737 29.3032 58.7087 34.1572 58.7087C39.0113 58.7087 42.9461 54.7738 42.9463 49.9197C42.9463 45.0655 39.0114 41.1296 34.1572 41.1296Z" fill="white"/>
<path d="M43.002 4.27198V40.025C43.002 40.4642 43.1277 40.8942 43.3643 41.2642L49.2278 50.4321C50.4661 52.3682 53.4652 51.4911 53.4652 49.193V9.37753C53.4652 7.83158 52.6885 6.38902 51.398 5.53783L46.5681 2.35213C45.039 1.34358 43.002 2.44022 43.002 4.27198Z" fill="white"/>
<path d="M97.2923 45.5298V72.5256C97.2923 73.6539 97.6866 74.7468 98.4071 75.6152L104.901 83.4421C105.865 84.6044 107.755 83.9225 107.755 82.4122V49.2093C107.755 48.6023 107.414 48.0467 106.873 47.7716L99.6362 44.092C98.5632 43.5464 97.2923 44.326 97.2923 45.5298Z" fill="white"/>
<path d="M106.465 34.1189C107.164 34.1189 107.755 34.6733 107.755 35.3881V50.2121C107.755 60.6866 99.4501 69.1785 89.2065 69.1786C78.9628 69.1786 70.6584 60.6867 70.6582 50.2121V35.3881C70.6582 34.6734 71.2477 34.1189 71.9466 34.1189H79.4055C80.1567 34.1189 80.7656 34.7278 80.7656 35.479V49.6677C80.7656 54.3342 84.465 58.1167 89.0286 58.117C93.5924 58.117 97.2931 54.3344 97.2931 49.6677V35.479C97.2931 34.7278 97.902 34.1189 98.6532 34.1189H106.465Z" fill="white"/>
</svg>
